<svg width="100" height="100" viewBox="0 0 100 100" fill="none" xmlns="http://www.w3.org/2000/svg">
	<path shape-rendering="crispEdges" fill="#ff0000"
		d="M53.3521 0.603785C46.3649 0.181136 43.035 5.54542 42.5653 13.309C42.0957 21.0726 50.937 40.5308 50.937 40.5308L53.3521 0.603785Z" />
	<path shape-rendering="crispEdges" fill="#ff7600"
		d="M75.8423 7.68592C69.8519 4.06456 64.4104 7.26688 60.3867 13.923C56.363 20.579 55.1488 41.9172 55.1488 41.9172L75.8423 7.68592Z" />
	<path shape-rendering="crispEdges" fill="#ffeb00"
		d="M92.4652 24.4085C88.8438 18.4181 82.5375 18.7248 75.8814 22.7485C69.2253 26.7723 58.2339 45.102 58.2339 45.102L92.4652 24.4085Z" />
	<path shape-rendering="crispEdges" fill="#9dff00"
		d="M99.4126 46.9407C98.99 39.9535 93.2634 37.2944 85.4998 37.764C77.7362 38.2336 59.4856 49.3558 59.4856 49.3558L99.4126 46.9407Z" />
	<path shape-rendering="crispEdges" fill="#27ff00"
		d="M95.093 70.1206C97.9659 63.7373 94.131 58.7215 87.0385 55.5294C79.9459 52.3373 58.617 53.704 58.617 53.704L95.093 70.1206Z" />
	<path shape-rendering="crispEdges" fill="#00ff4e"
		d="M80.496 88.6379C86.0063 84.3209 84.9416 78.0975 80.1449 71.9749C75.3482 65.8524 55.8272 57.1506 55.8272 57.1506L80.496 88.6379Z" />
	<path shape-rendering="crispEdges" fill="#00ffc4"
		d="M58.9655 98.2506C65.8508 96.9888 67.8003 90.9835 66.3983 83.3331C64.9963 75.6827 51.7553 58.9058 51.7553 58.9058L58.9655 98.2506Z" />
	<path shape-rendering="crispEdges" fill="#00c4ff"
		d="M35.434 96.7565C42.117 98.8391 46.634 94.4276 48.9479 87.002C51.2618 79.5763 47.3341 58.5677 47.3341 58.5677L35.434 96.7565Z" />
	<path shape-rendering="crispEdges" fill="#004eff"
		d="M15.2922 84.4979C20.2419 89.4477 26.2916 87.6406 31.7913 82.1409C37.291 76.6412 43.5764 56.2137 43.5764 56.2137L15.2922 84.4979Z" />
	<path shape-rendering="crispEdges" fill="#2700ff"
		d="M3.15435 64.2831C5.23687 70.9662 11.4334 72.1775 18.859 69.8636C26.2846 67.5497 41.3432 52.383 41.3432 52.383L3.15435 64.2831Z" />
	<path shape-rendering="crispEdges" fill="#9d00ff"
		d="M1.80112 40.7431C0.539331 47.6284 5.46312 51.5807 13.1135 52.9827C20.7639 54.3847 41.1459 47.9533 41.1459 47.9533L1.80112 40.7431Z" />
	<path shape-rendering="crispEdges" fill="#ff00eb"
		d="M11.5425 19.2705C7.22546 24.7808 9.74855 30.5686 15.8711 35.3653C21.9936 40.162 43.0298 43.9393 43.0298 43.9393L11.5425 19.2705Z" />
	<path shape-rendering="crispEdges" fill="#ff0076"
		d="M30.1468 4.78457C23.7635 7.65746 23.3079 13.9548 26.5 21.0474C29.6921 28.1399 46.5634 41.2606 46.5634 41.2606L30.1468 4.78457Z" />
	<path shape-rendering="crispEdges" fill="#ff0000"
		d="M53.205 0.594879C60.1922 1.01753 62.8513 6.74408 62.3817 14.5077C61.9121 22.2713 50.7899 40.5219 50.7899 40.5219L53.205 0.594879Z" />
	<path shape-rendering="crispEdges" fill="#ff7600"
		d="M75.7162 7.60965C81.7067 11.231 81.3999 17.5374 77.3762 24.1934C73.3524 30.8495 55.0227 41.8409 55.0227 41.8409L75.7162 7.60965Z" />
	<path shape-rendering="crispEdges" fill="#ffeb00"
		d="M92.3889 24.2824C96.0103 30.2728 92.808 35.7143 86.1519 39.738C79.4958 43.7618 58.1577 44.9759 58.1577 44.9759L92.3889 24.2824Z" />
	<path shape-rendering="crispEdges" fill="#9dff00"
		d="M99.4037 46.7935C99.8263 53.7808 94.4621 57.1107 86.6985 57.5804C78.9349 58.05 59.4767 49.2087 59.4767 49.2087L99.4037 46.7935Z" />
	<path shape-rendering="crispEdges" fill="#27ff00"
		d="M95.1535 69.9861C92.2806 76.3694 85.9833 76.8251 78.8907 73.633C71.7981 70.4409 58.6775 53.5696 58.6775 53.5696L95.1535 69.9861Z" />
	<path shape-rendering="crispEdges" fill="#00ff4e"
		d="M80.612 88.547C75.1017 92.864 69.314 90.3409 64.5173 84.2184C59.7206 78.0958 55.9433 57.0596 55.9433 57.0596L80.612 88.547Z" />
	<path shape-rendering="crispEdges" fill="#00ffc4"
		d="M59.1105 98.224C52.2251 99.4858 48.2729 94.562 46.8709 86.9116C45.4689 79.2612 51.9003 58.8792 51.9003 58.8792L59.1105 98.224Z" />
	<path shape-rendering="crispEdges" fill="#00c4ff"
		d="M35.5747 96.8004C28.8916 94.7178 27.6803 88.5213 29.9942 81.0957C32.3081 73.6701 47.4748 58.6115 47.4748 58.6115L35.5747 96.8004Z" />
	<path shape-rendering="crispEdges" fill="#004eff"
		d="M15.3964 84.6022C10.4467 79.6524 12.2537 73.6027 17.7534 68.103C23.2532 62.6033 43.6807 56.3179 43.6807 56.3179L15.3964 84.6022Z" />
	<path shape-rendering="crispEdges" fill="#2700ff"
		d="M3.1982 64.4239C1.11568 57.7408 5.52717 53.2239 12.9528 50.9099C20.3784 48.596 41.387 52.5237 41.387 52.5237L3.1982 64.4239Z" />
	<path shape-rendering="crispEdges" fill="#9d00ff"
		d="M1.77454 40.8881C3.03632 34.0028 9.04164 32.0533 16.692 33.4553C24.3424 34.8573 41.1193 48.0983 41.1193 48.0983L1.77454 40.8881Z" />
	<path shape-rendering="crispEdges" fill="#ff00eb"
		d="M11.4516 19.3866C15.7686 13.8763 21.992 14.941 28.1146 19.7377C34.2371 24.5344 42.9389 44.0554 42.9389 44.0554L11.4516 19.3866Z" />
	<path shape-rendering="crispEdges" fill="#ff0076"
		d="M30.0124 4.84509C36.3957 1.9722 41.4115 5.80707 44.6036 12.8996C47.7957 19.9922 46.4289 41.3211 46.4289 41.3211L30.0124 4.84509Z" />
	<path fill="#ffff66"
		d="M70.5 50C70.5 61.3218 61.3218 70.5 50 70.5C38.6782 70.5 29.5 61.3218 29.5 50C29.5 38.6782 38.6782 29.5 50 29.5C61.3218 29.5 70.5 38.6782 70.5 50Z"
		stroke="black" stroke-width="2" />
	<circle cx="42.5" cy="48.5" r="3.5" fill="black" />
	<ellipse cx="44.2163" cy="50.5519" rx="0.55" ry="1.5" transform="rotate(49.7706 44.2163 50.5519)" fill="white"
		fill-opacity="0.75" />
	<ellipse cx="41.0305" cy="46.7658" rx="1" ry="2" transform="rotate(49.7706 41.0305 46.7658)" fill="white" />
	<circle cx="57.5" cy="48.5" r="3.5" fill="black" />
	<ellipse cx="59.2163" cy="50.5519" rx="0.55" ry="1.5" transform="rotate(49.7706 59.2163 50.5519)" fill="white"
		fill-opacity="0.75" />
	<ellipse cx="56.0305" cy="46.7658" rx="1" ry="2" transform="rotate(49.7706 56.0305 46.7658)" fill="white" />
	<rect x="42.9252" y="58.9844" width="14" height="2.2" rx="1.1" transform="rotate(-8 42.9252 58.9844)"
		fill="#AB006C" />
</svg>