<svg width="125" height="121" viewBox="0 0 125 121" fill="none" xmlns="http://www.w3.org/2000/svg">
<circle cx="7.73379" cy="64.4312" r="3" transform="rotate(-18 7.73379 64.4312)" fill="white"/>
<circle cx="36.2655" cy="55.1607" r="5" transform="rotate(-18 36.2655 55.1607)" fill="#BBBBBB"/>
<circle cx="22.0001" cy="59.7962" r="7" transform="rotate(-18 22.0001 59.7962)" fill="#888888"/>
<circle cx="33.1468" cy="69.8329" r="3" transform="rotate(-18 33.1468 69.8329)" fill="white"/>
<circle cx="10.8525" cy="49.759" r="5" transform="rotate(-18 10.8525 49.759)" fill="#BBBBBB"/>
<circle cx="25.1183" cy="45.1238" r="3" transform="rotate(-18 25.1183 45.1238)" fill="white"/>
<circle cx="18.881" cy="74.4682" r="5" transform="rotate(-18 18.881 74.4682)" fill="#BBBBBB"/>
<circle cx="94.881" cy="74.4682" r="3" transform="rotate(-78 94.881 74.4682)" fill="white"/>
<circle cx="101.118" cy="45.1238" r="5" transform="rotate(-78 101.118 45.1238)" fill="#BBBBBB"/>
<circle cx="98.0001" cy="59.7957" r="7" transform="rotate(-78 98.0001 59.7957)" fill="#888888"/>
<circle cx="112.265" cy="55.1607" r="3" transform="rotate(-78 112.265 55.1607)" fill="white"/>
<circle cx="83.7338" cy="64.4312" r="5" transform="rotate(-78 83.7338 64.4312)" fill="#BBBBBB"/>
<circle cx="86.8525" cy="49.759" r="3" transform="rotate(-78 86.8525 49.759)" fill="white"/>
<circle cx="109.147" cy="69.8329" r="5" transform="rotate(-78 109.147 69.8329)" fill="#BBBBBB"/>
<g style="mix-blend-mode:plus-lighter">
<circle cx="54" cy="62.7963" r="10" fill="#555555"/>
</g>
<circle cx="89.3968" cy="102.309" r="3" transform="rotate(-138 89.3968 102.309)" fill="white"/>
<circle cx="67.1025" cy="82.235" r="5" transform="rotate(-138 67.1025 82.235)" fill="#BBBBBB"/>
<circle cx="78.2496" cy="92.2714" r="7" transform="rotate(-138 78.2496 92.2714)" fill="#888888"/>
<circle cx="81.3683" cy="77.5997" r="3" transform="rotate(-138 81.3683 77.5997)" fill="white"/>
<circle cx="75.131" cy="106.944" r="5" transform="rotate(-138 75.131 106.944)" fill="#BBBBBB"/>
<circle cx="63.9838" cy="96.9072" r="3" transform="rotate(-138 63.9838 96.9072)" fill="white"/>
<circle cx="92.5155" cy="87.6367" r="5" transform="rotate(-138 92.5155 87.6367)" fill="#BBBBBB"/>
<circle cx="54.5155" cy="21.8187" r="3" transform="rotate(162 54.5155 21.8187)" fill="white"/>
<circle cx="25.9838" cy="31.0892" r="5" transform="rotate(162 25.9838 31.0892)" fill="#BBBBBB"/>
<circle cx="40.2492" cy="26.4538" r="7" transform="rotate(162 40.2492 26.4538)" fill="#888888"/>
<circle cx="29.1025" cy="16.417" r="3" transform="rotate(162 29.1025 16.417)" fill="white"/>
<circle cx="51.3968" cy="36.491" r="5" transform="rotate(162 51.3968 36.491)" fill="#BBBBBB"/>
<circle cx="37.131" cy="41.1262" r="3" transform="rotate(162 37.131 41.1262)" fill="white"/>
<circle cx="43.3683" cy="11.7818" r="5" transform="rotate(162 43.3683 11.7818)" fill="#BBBBBB"/>
<g style="mix-blend-mode:plus-lighter">
<circle cx="64.8478" cy="63.0586" r="10" transform="rotate(-120 64.8478 63.0586)" fill="#555555"/>
</g>
<circle cx="81.3683" cy="12.6478" r="3" transform="rotate(102 81.3683 12.6478)" fill="white"/>
<circle cx="75.131" cy="41.9922" r="5" transform="rotate(102 75.131 41.9922)" fill="#BBBBBB"/>
<circle cx="78.2492" cy="27.3203" r="7" transform="rotate(102 78.2492 27.3203)" fill="#888888"/>
<circle cx="63.9838" cy="31.9553" r="3" transform="rotate(102 63.9838 31.9553)" fill="white"/>
<circle cx="92.5155" cy="22.6848" r="5" transform="rotate(102 92.5155 22.6848)" fill="#BBBBBB"/>
<circle cx="89.3968" cy="37.357" r="3" transform="rotate(102 89.3968 37.357)" fill="white"/>
<circle cx="67.1025" cy="17.2831" r="5" transform="rotate(102 67.1025 17.2831)" fill="#BBBBBB"/>
<circle cx="29.1025" cy="83.101" r="3" transform="rotate(42 29.1025 83.101)" fill="white"/>
<circle cx="51.3968" cy="103.175" r="5" transform="rotate(42 51.3968 103.175)" fill="#BBBBBB"/>
<circle cx="40.2497" cy="93.1385" r="7" transform="rotate(42 40.2497 93.1385)" fill="#888888"/>
<circle cx="37.131" cy="107.81" r="3" transform="rotate(42 37.131 107.81)" fill="white"/>
<circle cx="43.3683" cy="78.4657" r="5" transform="rotate(42 43.3683 78.4657)" fill="#BBBBBB"/>
<circle cx="54.5155" cy="88.5027" r="3" transform="rotate(42 54.5155 88.5027)" fill="white"/>
<circle cx="25.9838" cy="97.7732" r="5" transform="rotate(42 25.9838 97.7732)" fill="#BBBBBB"/>
<g style="mix-blend-mode:plus-lighter">
<circle cx="59.6511" cy="53.533" r="10" transform="rotate(120 59.6511 53.533)" fill="#555555"/>
</g>
</svg>
