<svg width="200" height="150" viewBox="0 0 200 150" fill="none" xmlns="http://www.w3.org/2000/svg">
<rect width="200" height="150" fill="#EEEEEE"/>
<path d="M55.8926 14.12C55.3086 14.12 54.7726 14.016 54.2846 13.808C53.7966 13.6 53.3726 13.304 53.0126 12.92C52.6526 12.528 52.3726 12.068 52.1726 11.54C51.9806 11.012 51.8846 10.432 51.8846 9.8C51.8846 9.2 51.9886 8.644 52.1966 8.132C52.4126 7.612 52.7086 7.156 53.0846 6.764C53.4606 6.372 53.8966 6.068 54.3926 5.852C54.8886 5.636 55.4246 5.528 56.0006 5.528C56.4086 5.528 56.8046 5.592 57.1886 5.72C57.5806 5.84 57.9326 6.012 58.2446 6.236C58.5646 6.452 58.8246 6.7 59.0246 6.98L58.1606 7.88C57.8166 7.528 57.4646 7.264 57.1046 7.088C56.7446 6.912 56.3766 6.824 56.0006 6.824C55.6086 6.824 55.2406 6.9 54.8966 7.052C54.5606 7.196 54.2646 7.4 54.0086 7.664C53.7606 7.928 53.5646 8.244 53.4206 8.612C53.2766 8.972 53.2046 9.368 53.2046 9.8C53.2046 10.256 53.2726 10.672 53.4086 11.048C53.5526 11.416 53.7526 11.732 54.0086 11.996C54.2646 12.26 54.5686 12.464 54.9206 12.608C55.2806 12.744 55.6766 12.812 56.1086 12.812C56.3726 12.812 56.6326 12.776 56.8886 12.704C57.1446 12.632 57.3846 12.528 57.6086 12.392C57.8326 12.256 58.0366 12.096 58.2206 11.912L58.8686 12.968C58.6846 13.184 58.4326 13.38 58.1126 13.556C57.8006 13.732 57.4486 13.872 57.0566 13.976C56.6726 14.072 56.2846 14.12 55.8926 14.12ZM63.1491 14.12C62.5331 14.12 61.9811 13.98 61.4931 13.7C61.0131 13.412 60.6331 13.024 60.3531 12.536C60.0731 12.04 59.9331 11.476 59.9331 10.844C59.9331 10.212 60.0731 9.652 60.3531 9.164C60.6331 8.668 61.0131 8.28 61.4931 8C61.9811 7.712 62.5331 7.568 63.1491 7.568C63.7571 7.568 64.3011 7.712 64.7811 8C65.2691 8.28 65.6531 8.668 65.9331 9.164C66.2131 9.652 66.3531 10.212 66.3531 10.844C66.3531 11.476 66.2131 12.04 65.9331 12.536C65.6531 13.024 65.2691 13.412 64.7811 13.7C64.3011 13.98 63.7571 14.12 63.1491 14.12ZM63.1491 12.992C63.5251 12.992 63.8611 12.9 64.1571 12.716C64.4531 12.524 64.6851 12.268 64.8531 11.948C65.0211 11.62 65.1011 11.252 65.0931 10.844C65.1011 10.428 65.0211 10.06 64.8531 9.74C64.6851 9.412 64.4531 9.156 64.1571 8.972C63.8611 8.788 63.5251 8.696 63.1491 8.696C62.7731 8.696 62.4331 8.792 62.1291 8.984C61.8331 9.168 61.6011 9.424 61.4331 9.752C61.2651 10.072 61.1851 10.436 61.1931 10.844C61.1851 11.252 61.2651 11.62 61.4331 11.948C61.6011 12.268 61.8331 12.524 62.1291 12.716C62.4331 12.9 62.7731 12.992 63.1491 12.992ZM67.6999 16.64V7.7H68.9479V9.14L68.7559 9.032C68.8039 8.792 68.9399 8.564 69.1639 8.348C69.3879 8.124 69.6599 7.944 69.9799 7.808C70.3079 7.664 70.6439 7.592 70.9879 7.592C71.5559 7.592 72.0599 7.732 72.4999 8.012C72.9399 8.292 73.2879 8.676 73.5439 9.164C73.7999 9.652 73.9279 10.212 73.9279 10.844C73.9279 11.468 73.7999 12.028 73.5439 12.524C73.2959 13.012 72.9519 13.4 72.5119 13.688C72.0719 13.968 71.5759 14.108 71.0239 14.108C70.6559 14.108 70.2999 14.036 69.9559 13.892C69.6119 13.74 69.3199 13.548 69.0799 13.316C68.8399 13.084 68.6919 12.844 68.6359 12.596L68.9479 12.428V16.64H67.6999ZM70.8199 12.968C71.1879 12.968 71.5159 12.876 71.8039 12.692C72.0919 12.508 72.3199 12.256 72.4879 11.936C72.6559 11.616 72.7399 11.252 72.7399 10.844C72.7399 10.436 72.6559 10.076 72.4879 9.764C72.3279 9.444 72.1039 9.192 71.8159 9.008C71.5279 8.824 71.1959 8.732 70.8199 8.732C70.4439 8.732 70.1119 8.824 69.8239 9.008C69.5359 9.184 69.3079 9.432 69.1399 9.752C68.9719 10.072 68.8879 10.436 68.8879 10.844C68.8879 11.252 68.9719 11.616 69.1399 11.936C69.3079 12.256 69.5359 12.508 69.8239 12.692C70.1119 12.876 70.4439 12.968 70.8199 12.968ZM77.4783 14.12C77.0303 14.12 76.6383 14.016 76.3023 13.808C75.9743 13.6 75.7183 13.308 75.5343 12.932C75.3583 12.556 75.2703 12.108 75.2703 11.588V7.7H76.5063V11.252C76.5063 11.804 76.6343 12.24 76.8903 12.56C77.1543 12.88 77.5183 13.04 77.9823 13.04C78.2143 13.04 78.4263 13.004 78.6183 12.932C78.8103 12.852 78.9743 12.744 79.1103 12.608C79.2543 12.472 79.3663 12.308 79.4463 12.116C79.5263 11.924 79.5663 11.716 79.5663 11.492V7.7H80.8023V14H79.5663V12.68L79.7823 12.536C79.6863 12.832 79.5223 13.1 79.2903 13.34C79.0663 13.58 78.7983 13.772 78.4863 13.916C78.1743 14.052 77.8383 14.12 77.4783 14.12ZM83.3159 14V6.092H84.5519V14H83.3159ZM82.0079 8.9V7.7H86.0159V8.9H82.0079ZM90.0228 14.12C89.3748 14.12 88.7988 13.984 88.2948 13.712C87.7988 13.432 87.4068 13.052 87.1188 12.572C86.8388 12.092 86.6988 11.54 86.6988 10.916C86.6988 10.42 86.7788 9.968 86.9388 9.56C87.0988 9.152 87.3188 8.8 87.5988 8.504C87.8868 8.2 88.2268 7.968 88.6188 7.808C89.0188 7.64 89.4508 7.556 89.9148 7.556C90.3228 7.556 90.7028 7.636 91.0548 7.796C91.4068 7.948 91.7108 8.16 91.9668 8.432C92.2308 8.704 92.4308 9.028 92.5668 9.404C92.7108 9.772 92.7788 10.176 92.7708 10.616L92.7588 11.144H87.6108L87.3348 10.16H91.6908L91.5108 10.364V10.076C91.4868 9.812 91.3988 9.576 91.2468 9.368C91.0948 9.16 90.9028 8.996 90.6708 8.876C90.4388 8.756 90.1868 8.696 89.9148 8.696C89.4828 8.696 89.1188 8.78 88.8228 8.948C88.5268 9.108 88.3028 9.348 88.1508 9.668C87.9988 9.98 87.9228 10.368 87.9228 10.832C87.9228 11.272 88.0148 11.656 88.1988 11.984C88.3828 12.304 88.6428 12.552 88.9788 12.728C89.3148 12.904 89.7028 12.992 90.1428 12.992C90.4548 12.992 90.7428 12.94 91.0068 12.836C91.2788 12.732 91.5708 12.544 91.8828 12.272L92.5068 13.148C92.3148 13.34 92.0788 13.508 91.7988 13.652C91.5268 13.796 91.2348 13.912 90.9228 14C90.6188 14.08 90.3188 14.12 90.0228 14.12ZM94.114 14V7.7H95.362V9.68L95.242 9.2C95.33 8.896 95.478 8.62 95.686 8.372C95.902 8.124 96.146 7.928 96.418 7.784C96.698 7.64 96.986 7.568 97.282 7.568C97.418 7.568 97.546 7.58 97.666 7.604C97.794 7.628 97.894 7.656 97.966 7.688L97.642 9.032C97.546 8.992 97.438 8.96 97.318 8.936C97.206 8.904 97.094 8.888 96.982 8.888C96.766 8.888 96.558 8.932 96.358 9.02C96.166 9.1 95.994 9.216 95.842 9.368C95.698 9.512 95.582 9.684 95.494 9.884C95.406 10.076 95.362 10.288 95.362 10.52V14H94.114ZM102.317 14V7.7H103.553V8.996L103.337 9.14C103.417 8.86 103.573 8.604 103.805 8.372C104.037 8.132 104.313 7.94 104.633 7.796C104.953 7.644 105.281 7.568 105.617 7.568C106.097 7.568 106.497 7.664 106.817 7.856C107.137 8.04 107.377 8.324 107.537 8.708C107.697 9.092 107.777 9.576 107.777 10.16V14H106.541V10.244C106.541 9.884 106.493 9.588 106.397 9.356C106.301 9.116 106.153 8.944 105.953 8.84C105.753 8.728 105.505 8.68 105.209 8.696C104.969 8.696 104.749 8.736 104.549 8.816C104.349 8.888 104.173 8.992 104.021 9.128C103.877 9.264 103.761 9.424 103.673 9.608C103.593 9.784 103.553 9.976 103.553 10.184V14H102.941C102.837 14 102.733 14 102.629 14C102.525 14 102.421 14 102.317 14ZM112.394 14.12C111.746 14.12 111.17 13.984 110.666 13.712C110.17 13.432 109.778 13.052 109.49 12.572C109.21 12.092 109.07 11.54 109.07 10.916C109.07 10.42 109.15 9.968 109.31 9.56C109.47 9.152 109.69 8.8 109.97 8.504C110.258 8.2 110.598 7.968 110.99 7.808C111.39 7.64 111.822 7.556 112.286 7.556C112.694 7.556 113.074 7.636 113.426 7.796C113.778 7.948 114.082 8.16 114.338 8.432C114.602 8.704 114.802 9.028 114.938 9.404C115.082 9.772 115.15 10.176 115.142 10.616L115.13 11.144H109.982L109.706 10.16H114.062L113.882 10.364V10.076C113.858 9.812 113.77 9.576 113.618 9.368C113.466 9.16 113.274 8.996 113.042 8.876C112.81 8.756 112.558 8.696 112.286 8.696C111.854 8.696 111.49 8.78 111.194 8.948C110.898 9.108 110.674 9.348 110.522 9.668C110.37 9.98 110.294 10.368 110.294 10.832C110.294 11.272 110.386 11.656 110.57 11.984C110.754 12.304 111.014 12.552 111.35 12.728C111.686 12.904 112.074 12.992 112.514 12.992C112.826 12.992 113.114 12.94 113.378 12.836C113.65 12.732 113.942 12.544 114.254 12.272L114.878 13.148C114.686 13.34 114.45 13.508 114.17 13.652C113.898 13.796 113.606 13.912 113.294 14C112.99 14.08 112.69 14.12 112.394 14.12ZM117.265 14V6.092H118.501V14H117.265ZM115.957 8.9V7.7H119.965V8.9H115.957ZM122.639 14L120.491 7.7L121.739 7.688L123.275 12.404L122.999 12.38L124.667 8.696H125.411L127.091 12.392L126.767 12.416L128.315 7.7H129.563L127.439 14H126.587L124.835 9.992L125.111 10.028L123.479 14H122.639ZM133.344 14.12C132.728 14.12 132.176 13.98 131.688 13.7C131.208 13.412 130.828 13.024 130.548 12.536C130.268 12.04 130.128 11.476 130.128 10.844C130.128 10.212 130.268 9.652 130.548 9.164C130.828 8.668 131.208 8.28 131.688 8C132.176 7.712 132.728 7.568 133.344 7.568C133.952 7.568 134.496 7.712 134.976 8C135.464 8.28 135.848 8.668 136.128 9.164C136.408 9.652 136.548 10.212 136.548 10.844C136.548 11.476 136.408 12.04 136.128 12.536C135.848 13.024 135.464 13.412 134.976 13.7C134.496 13.98 133.952 14.12 133.344 14.12ZM133.344 12.992C133.72 12.992 134.056 12.9 134.352 12.716C134.648 12.524 134.88 12.268 135.048 11.948C135.216 11.62 135.296 11.252 135.288 10.844C135.296 10.428 135.216 10.06 135.048 9.74C134.88 9.412 134.648 9.156 134.352 8.972C134.056 8.788 133.72 8.696 133.344 8.696C132.968 8.696 132.628 8.792 132.324 8.984C132.028 9.168 131.796 9.424 131.628 9.752C131.46 10.072 131.38 10.436 131.388 10.844C131.38 11.252 131.46 11.62 131.628 11.948C131.796 12.268 132.028 12.524 132.324 12.716C132.628 12.9 132.968 12.992 133.344 12.992ZM137.895 14V7.7H139.143V9.68L139.023 9.2C139.111 8.896 139.259 8.62 139.467 8.372C139.683 8.124 139.927 7.928 140.199 7.784C140.479 7.64 140.767 7.568 141.063 7.568C141.199 7.568 141.327 7.58 141.447 7.604C141.575 7.628 141.675 7.656 141.747 7.688L141.423 9.032C141.327 8.992 141.219 8.96 141.099 8.936C140.987 8.904 140.875 8.888 140.763 8.888C140.547 8.888 140.339 8.932 140.139 9.02C139.947 9.1 139.775 9.216 139.623 9.368C139.479 9.512 139.363 9.684 139.275 9.884C139.187 10.076 139.143 10.288 139.143 10.52V14H137.895ZM143.863 12.032L143.803 10.688L146.815 7.7H148.483L143.863 12.032ZM142.735 14V5.12H143.971V14H142.735ZM146.983 14L144.607 11.228L145.483 10.424L148.567 14H146.983Z" fill="black"/>
<circle cx="44" cy="108" r="19.5" stroke="black"/>
<circle cx="164" cy="122" r="19.5" stroke="black"/>
<circle cx="149" cy="58" r="19.5" stroke="black"/>
<circle cx="76" cy="46" r="19.5" stroke="black"/>
<path d="M66.5325 101.823C66.4346 102.081 66.5645 102.37 66.8227 102.467L71.0302 104.063C71.2884 104.161 71.5771 104.031 71.675 103.773C71.7729 103.515 71.643 103.226 71.3848 103.128L67.6448 101.71L69.0634 97.9698C69.1614 97.7116 69.0315 97.4229 68.7733 97.325C68.5151 97.2271 68.2264 97.357 68.1284 97.6152L66.5325 101.823ZM127.205 75.456C127.457 75.3426 127.569 75.0466 127.456 74.7948C127.343 74.543 127.047 74.4307 126.795 74.544L127 75L127.205 75.456ZM67 102L67.2052 102.456L127.205 75.456L127 75L126.795 74.544L66.7948 101.544L67 102Z" fill="black"/>
<path d="M58.5221 87.147C58.6033 87.411 58.8831 87.5591 59.147 87.4779L63.448 86.1545C63.712 86.0733 63.8601 85.7935 63.7789 85.5296C63.6977 85.2656 63.4179 85.1175 63.154 85.1987L59.3308 86.3751L58.1545 82.552C58.0733 82.288 57.7935 82.1399 57.5296 82.2211C57.2656 82.3023 57.1175 82.5821 57.1987 82.846L58.5221 87.147ZM68.4419 70.2339C68.5711 69.9899 68.478 69.6873 68.2339 69.5581C67.9899 69.4289 67.6873 69.522 67.5581 69.7661L68 70L68.4419 70.2339ZM59 87L59.4419 87.2339L68.4419 70.2339L68 70L67.5581 69.7661L58.5581 86.7661L59 87Z" fill="black"/>
<path d="M150.973 116.675C150.842 116.675 150.723 116.642 150.616 116.577C150.513 116.507 150.432 116.414 150.371 116.297C150.31 116.176 150.28 116.038 150.28 115.884C150.28 115.763 150.306 115.644 150.357 115.527C150.408 115.41 150.478 115.301 150.567 115.198C150.66 115.095 150.768 115.004 150.889 114.925C151.01 114.846 151.141 114.785 151.281 114.743L151.547 115.065C151.365 115.149 151.216 115.245 151.099 115.352C150.982 115.459 150.924 115.553 150.924 115.632C150.924 115.693 150.95 115.746 151.001 115.793C151.052 115.84 151.099 115.882 151.141 115.919C151.244 116.003 151.311 116.073 151.344 116.129C151.381 116.185 151.4 116.243 151.4 116.304C151.4 116.416 151.36 116.507 151.281 116.577C151.202 116.642 151.099 116.675 150.973 116.675ZM152.422 116.675C152.291 116.675 152.172 116.642 152.065 116.577C151.962 116.507 151.881 116.414 151.82 116.297C151.759 116.176 151.729 116.038 151.729 115.884C151.729 115.763 151.755 115.644 151.806 115.527C151.857 115.41 151.927 115.301 152.016 115.198C152.109 115.095 152.217 115.004 152.338 114.925C152.459 114.846 152.59 114.785 152.73 114.743L152.996 115.065C152.814 115.149 152.665 115.245 152.548 115.352C152.431 115.459 152.373 115.553 152.373 115.632C152.373 115.693 152.399 115.746 152.45 115.793C152.501 115.84 152.548 115.882 152.59 115.919C152.693 116.003 152.76 116.073 152.793 116.129C152.83 116.185 152.849 116.243 152.849 116.304C152.849 116.416 152.809 116.507 152.73 116.577C152.651 116.642 152.548 116.675 152.422 116.675ZM155.294 120.07C154.934 120.07 154.612 119.988 154.328 119.825C154.048 119.657 153.826 119.431 153.663 119.146C153.499 118.857 153.418 118.528 153.418 118.159C153.418 117.79 153.499 117.464 153.663 117.179C153.826 116.89 154.048 116.663 154.328 116.5C154.612 116.332 154.934 116.248 155.294 116.248C155.648 116.248 155.966 116.332 156.246 116.5C156.53 116.663 156.754 116.89 156.918 117.179C157.081 117.464 157.163 117.79 157.163 118.159C157.163 118.528 157.081 118.857 156.918 119.146C156.754 119.431 156.53 119.657 156.246 119.825C155.966 119.988 155.648 120.07 155.294 120.07ZM155.294 119.412C155.513 119.412 155.709 119.358 155.882 119.251C156.054 119.139 156.19 118.99 156.288 118.803C156.386 118.612 156.432 118.397 156.428 118.159C156.432 117.916 156.386 117.702 156.288 117.515C156.19 117.324 156.054 117.174 155.882 117.067C155.709 116.96 155.513 116.906 155.294 116.906C155.074 116.906 154.876 116.962 154.699 117.074C154.526 117.181 154.391 117.331 154.293 117.522C154.195 117.709 154.148 117.921 154.153 118.159C154.148 118.397 154.195 118.612 154.293 118.803C154.391 118.99 154.526 119.139 154.699 119.251C154.876 119.358 155.074 119.412 155.294 119.412ZM157.948 120V114.82H158.669V117.081L158.543 117.165C158.59 117.002 158.681 116.852 158.816 116.717C158.952 116.577 159.113 116.465 159.299 116.381C159.486 116.292 159.677 116.248 159.873 116.248C160.153 116.248 160.387 116.304 160.573 116.416C160.76 116.523 160.9 116.689 160.993 116.913C161.087 117.137 161.133 117.419 161.133 117.76V120H160.412V117.809C160.412 117.599 160.384 117.426 160.328 117.291C160.272 117.151 160.186 117.051 160.069 116.99C159.953 116.925 159.808 116.897 159.635 116.906C159.495 116.906 159.367 116.929 159.25 116.976C159.134 117.018 159.031 117.079 158.942 117.158C158.858 117.237 158.791 117.331 158.739 117.438C158.693 117.541 158.669 117.653 158.669 117.774V120H158.312C158.252 120 158.191 120 158.13 120C158.07 120 158.009 120 157.948 120ZM162.216 118.313C162.184 118.019 162.153 117.716 162.125 117.403C162.102 117.086 162.083 116.773 162.069 116.465C162.055 116.157 162.048 115.865 162.048 115.59V115.1H162.804V115.59C162.804 115.879 162.797 116.183 162.783 116.5C162.769 116.817 162.748 117.132 162.72 117.445C162.697 117.753 162.669 118.042 162.636 118.313H162.216ZM162.405 120.077C162.251 120.077 162.132 120.033 162.048 119.944C161.964 119.851 161.922 119.72 161.922 119.552C161.922 119.398 161.967 119.272 162.055 119.174C162.144 119.076 162.261 119.027 162.405 119.027C162.559 119.027 162.678 119.074 162.762 119.167C162.846 119.256 162.888 119.384 162.888 119.552C162.888 119.706 162.844 119.832 162.755 119.93C162.667 120.028 162.55 120.077 162.405 120.077ZM165.728 120V119.3H166.519V115.8H165.728V115.1H168.066V115.8H167.275V119.3H168.066V120H165.728ZM150.504 129V123.82H151.225V126.081L151.099 126.165C151.146 126.002 151.237 125.852 151.372 125.717C151.507 125.577 151.668 125.465 151.855 125.381C152.042 125.292 152.233 125.248 152.429 125.248C152.709 125.248 152.942 125.304 153.129 125.416C153.316 125.523 153.456 125.689 153.549 125.913C153.642 126.137 153.689 126.419 153.689 126.76V129H152.968V126.809C152.968 126.599 152.94 126.426 152.884 126.291C152.828 126.151 152.742 126.051 152.625 125.99C152.508 125.925 152.364 125.897 152.191 125.906C152.051 125.906 151.923 125.929 151.806 125.976C151.689 126.018 151.587 126.079 151.498 126.158C151.414 126.237 151.346 126.331 151.295 126.438C151.248 126.541 151.225 126.653 151.225 126.774V129H150.868C150.807 129 150.747 129 150.686 129C150.625 129 150.565 129 150.504 129ZM156.844 129V126.606C156.844 126.401 156.769 126.235 156.62 126.109C156.475 125.978 156.291 125.913 156.067 125.913C155.862 125.913 155.675 125.955 155.507 126.039C155.344 126.123 155.194 126.251 155.059 126.424L154.59 125.955C154.809 125.717 155.045 125.54 155.297 125.423C155.554 125.306 155.829 125.248 156.123 125.248C156.403 125.248 156.646 125.295 156.851 125.388C157.056 125.481 157.215 125.619 157.327 125.801C157.439 125.978 157.495 126.195 157.495 126.452V129H156.844ZM155.745 129.07C155.507 129.07 155.295 129.023 155.108 128.93C154.921 128.837 154.772 128.708 154.66 128.545C154.553 128.377 154.499 128.181 154.499 127.957C154.499 127.761 154.534 127.588 154.604 127.439C154.674 127.29 154.777 127.166 154.912 127.068C155.052 126.97 155.225 126.895 155.43 126.844C155.64 126.793 155.88 126.767 156.151 126.767H157.173L157.11 127.341H156.06C155.92 127.341 155.794 127.355 155.682 127.383C155.575 127.406 155.481 127.446 155.402 127.502C155.327 127.553 155.271 127.616 155.234 127.691C155.197 127.761 155.178 127.845 155.178 127.943C155.178 128.046 155.204 128.137 155.255 128.216C155.306 128.291 155.376 128.349 155.465 128.391C155.554 128.433 155.656 128.454 155.773 128.454C155.941 128.454 156.1 128.426 156.249 128.37C156.403 128.309 156.538 128.228 156.655 128.125C156.776 128.022 156.87 127.908 156.935 127.782L157.103 128.251C157.005 128.414 156.884 128.557 156.739 128.678C156.594 128.799 156.438 128.895 156.27 128.965C156.102 129.035 155.927 129.07 155.745 129.07ZM159.528 129L157.974 125.325H158.751L159.871 128.076L159.738 128.139L160.935 125.325H161.677L160.046 129H159.528ZM163.949 129.07C163.571 129.07 163.235 128.991 162.941 128.832C162.652 128.669 162.423 128.447 162.255 128.167C162.092 127.887 162.01 127.565 162.01 127.201C162.01 126.912 162.057 126.648 162.15 126.41C162.244 126.172 162.372 125.967 162.535 125.794C162.703 125.617 162.902 125.481 163.13 125.388C163.364 125.29 163.616 125.241 163.886 125.241C164.124 125.241 164.346 125.288 164.551 125.381C164.757 125.47 164.934 125.593 165.083 125.752C165.237 125.911 165.354 126.1 165.433 126.319C165.517 126.534 165.557 126.769 165.552 127.026L165.545 127.334H162.542L162.381 126.76H164.922L164.817 126.879V126.711C164.803 126.557 164.752 126.419 164.663 126.298C164.575 126.177 164.463 126.081 164.327 126.011C164.192 125.941 164.045 125.906 163.886 125.906C163.634 125.906 163.422 125.955 163.249 126.053C163.077 126.146 162.946 126.286 162.857 126.473C162.769 126.655 162.724 126.881 162.724 127.152C162.724 127.409 162.778 127.633 162.885 127.824C162.993 128.011 163.144 128.155 163.34 128.258C163.536 128.361 163.763 128.412 164.019 128.412C164.201 128.412 164.369 128.382 164.523 128.321C164.682 128.26 164.852 128.151 165.034 127.992L165.398 128.503C165.286 128.615 165.149 128.713 164.985 128.797C164.827 128.881 164.656 128.949 164.474 129C164.297 129.047 164.122 129.07 163.949 129.07ZM168.417 129V125.325H169.138V129H168.417ZM168.767 124.513C168.613 124.513 168.494 124.473 168.41 124.394C168.326 124.315 168.284 124.203 168.284 124.058C168.284 123.923 168.326 123.813 168.41 123.729C168.499 123.645 168.618 123.603 168.767 123.603C168.921 123.603 169.04 123.643 169.124 123.722C169.208 123.801 169.25 123.913 169.25 124.058C169.25 124.193 169.206 124.303 169.117 124.387C169.033 124.471 168.916 124.513 168.767 124.513ZM170.701 129V124.387H171.422V129H170.701ZM169.938 126.025V125.325H172.276V126.025H169.938ZM173.038 127.313C173.005 127.019 172.975 126.716 172.947 126.403C172.923 126.086 172.905 125.773 172.891 125.465C172.877 125.157 172.87 124.865 172.87 124.59V124.1H173.626V124.59C173.626 124.879 173.619 125.183 173.605 125.5C173.591 125.817 173.57 126.132 173.542 126.445C173.518 126.753 173.49 127.042 173.458 127.313H173.038ZM173.227 129.077C173.073 129.077 172.954 129.033 172.87 128.944C172.786 128.851 172.744 128.72 172.744 128.552C172.744 128.398 172.788 128.272 172.877 128.174C172.965 128.076 173.082 128.027 173.227 128.027C173.381 128.027 173.5 128.074 173.584 128.167C173.668 128.256 173.71 128.384 173.71 128.552C173.71 128.706 173.665 128.832 173.577 128.93C173.488 129.028 173.371 129.077 173.227 129.077ZM174.489 125.675L174.223 125.353C174.405 125.269 174.554 125.173 174.671 125.066C174.788 124.959 174.846 124.865 174.846 124.786C174.846 124.725 174.82 124.672 174.769 124.625C174.718 124.574 174.671 124.532 174.629 124.499C174.526 124.415 174.456 124.345 174.419 124.289C174.386 124.233 174.37 124.175 174.37 124.114C174.37 124.002 174.41 123.913 174.489 123.848C174.568 123.778 174.671 123.743 174.797 123.743C174.928 123.743 175.044 123.778 175.147 123.848C175.254 123.913 175.338 124.004 175.399 124.121C175.46 124.238 175.49 124.375 175.49 124.534C175.49 124.655 175.464 124.774 175.413 124.891C175.362 125.008 175.289 125.117 175.196 125.22C175.107 125.323 175.002 125.414 174.881 125.493C174.76 125.572 174.629 125.633 174.489 125.675ZM175.917 125.675L175.651 125.353C175.833 125.269 175.982 125.173 176.099 125.066C176.216 124.959 176.274 124.865 176.274 124.786C176.274 124.725 176.248 124.672 176.197 124.625C176.146 124.574 176.099 124.532 176.057 124.499C175.954 124.415 175.884 124.345 175.847 124.289C175.814 124.233 175.798 124.175 175.798 124.114C175.798 124.002 175.838 123.913 175.917 123.848C175.996 123.778 176.099 123.743 176.225 123.743C176.356 123.743 176.472 123.778 176.575 123.848C176.682 123.913 176.766 124.004 176.827 124.121C176.888 124.238 176.918 124.375 176.918 124.534C176.918 124.655 176.892 124.774 176.841 124.891C176.79 125.008 176.717 125.117 176.624 125.22C176.535 125.323 176.43 125.414 176.309 125.493C176.188 125.572 176.057 125.633 175.917 125.675Z" fill="black" fill-opacity="0.5"/>
<path d="M67.973 45.675C67.8423 45.675 67.7233 45.6423 67.616 45.577C67.5133 45.507 67.4317 45.4137 67.371 45.297C67.3103 45.1757 67.28 45.038 67.28 44.884C67.28 44.7627 67.3057 44.6437 67.357 44.527C67.4083 44.4103 67.4783 44.3007 67.567 44.198C67.6603 44.0953 67.7677 44.0043 67.889 43.925C68.0103 43.8457 68.141 43.785 68.281 43.743L68.547 44.065C68.365 44.149 68.2157 44.2447 68.099 44.352C67.9823 44.4593 67.924 44.5527 67.924 44.632C67.924 44.6927 67.9497 44.7463 68.001 44.793C68.0523 44.8397 68.099 44.8817 68.141 44.919C68.2437 45.003 68.3113 45.073 68.344 45.129C68.3813 45.185 68.4 45.2433 68.4 45.304C68.4 45.416 68.3603 45.507 68.281 45.577C68.2017 45.6423 68.099 45.675 67.973 45.675ZM69.422 45.675C69.2913 45.675 69.1723 45.6423 69.065 45.577C68.9623 45.507 68.8807 45.4137 68.82 45.297C68.7593 45.1757 68.729 45.038 68.729 44.884C68.729 44.7627 68.7547 44.6437 68.806 44.527C68.8573 44.4103 68.9273 44.3007 69.016 44.198C69.1093 44.0953 69.2167 44.0043 69.338 43.925C69.4593 43.8457 69.59 43.785 69.73 43.743L69.996 44.065C69.814 44.149 69.6647 44.2447 69.548 44.352C69.4313 44.4593 69.373 44.5527 69.373 44.632C69.373 44.6927 69.3987 44.7463 69.45 44.793C69.5013 44.8397 69.548 44.8817 69.59 44.919C69.6927 45.003 69.7603 45.073 69.793 45.129C69.8303 45.185 69.849 45.2433 69.849 45.304C69.849 45.416 69.8093 45.507 69.73 45.577C69.6507 45.6423 69.548 45.675 69.422 45.675ZM70.6417 49V45.325H71.3627V46.081L71.2367 46.165C71.2834 46.0017 71.3744 45.8523 71.5097 45.717C71.645 45.577 71.806 45.465 71.9927 45.381C72.1794 45.2923 72.3707 45.248 72.5667 45.248C72.8467 45.248 73.08 45.304 73.2667 45.416C73.4534 45.5233 73.5934 45.689 73.6867 45.913C73.78 46.137 73.8267 46.4193 73.8267 46.76V49H73.1057V46.809C73.1057 46.599 73.0777 46.4263 73.0217 46.291C72.9657 46.151 72.8794 46.0507 72.7627 45.99C72.646 45.9247 72.5014 45.8967 72.3287 45.906C72.1887 45.906 72.0604 45.9293 71.9437 45.976C71.827 46.018 71.7244 46.0787 71.6357 46.158C71.5517 46.2373 71.484 46.3307 71.4327 46.438C71.386 46.5407 71.3627 46.6527 71.3627 46.774V49H71.0057C70.945 49 70.8844 49 70.8237 49C70.763 49 70.7024 49 70.6417 49ZM76.9818 49V46.606C76.9818 46.4007 76.9071 46.235 76.7578 46.109C76.6131 45.9783 76.4288 45.913 76.2048 45.913C75.9994 45.913 75.8128 45.955 75.6448 46.039C75.4814 46.123 75.3321 46.2513 75.1968 46.424L74.7278 45.955C74.9471 45.717 75.1828 45.5397 75.4348 45.423C75.6914 45.3063 75.9668 45.248 76.2608 45.248C76.5408 45.248 76.7834 45.2947 76.9888 45.388C77.1941 45.4813 77.3528 45.619 77.4648 45.801C77.5768 45.9783 77.6328 46.1953 77.6328 46.452V49H76.9818ZM75.8828 49.07C75.6448 49.07 75.4324 49.0233 75.2458 48.93C75.0591 48.8367 74.9098 48.7083 74.7978 48.545C74.6904 48.377 74.6368 48.181 74.6368 47.957C74.6368 47.761 74.6718 47.5883 74.7418 47.439C74.8118 47.2897 74.9144 47.166 75.0498 47.068C75.1898 46.97 75.3624 46.8953 75.5678 46.844C75.7778 46.7927 76.0181 46.767 76.2888 46.767H77.3108L77.2478 47.341H76.1978C76.0578 47.341 75.9318 47.355 75.8198 47.383C75.7124 47.4063 75.6191 47.446 75.5398 47.502C75.4651 47.5533 75.4091 47.6163 75.3718 47.691C75.3344 47.761 75.3158 47.845 75.3158 47.943C75.3158 48.0457 75.3414 48.1367 75.3928 48.216C75.4441 48.2907 75.5141 48.349 75.6028 48.391C75.6914 48.433 75.7941 48.454 75.9108 48.454C76.0788 48.454 76.2374 48.426 76.3868 48.37C76.5408 48.3093 76.6761 48.2277 76.7928 48.125C76.9141 48.0223 77.0074 47.908 77.0728 47.782L77.2408 48.251C77.1428 48.4143 77.0214 48.5567 76.8768 48.678C76.7321 48.7993 76.5758 48.895 76.4078 48.965C76.2398 49.035 76.0648 49.07 75.8828 49.07ZM78.544 49V43.82H79.265V46.081L79.139 46.165C79.1857 46.0017 79.2767 45.8523 79.412 45.717C79.5474 45.577 79.7084 45.465 79.895 45.381C80.0817 45.2923 80.273 45.248 80.469 45.248C80.749 45.248 80.9824 45.304 81.169 45.416C81.3557 45.5233 81.4957 45.689 81.589 45.913C81.6824 46.137 81.729 46.4193 81.729 46.76V49H81.008V46.809C81.008 46.599 80.98 46.4263 80.924 46.291C80.868 46.151 80.7817 46.0507 80.665 45.99C80.5484 45.9247 80.4037 45.8967 80.231 45.906C80.091 45.906 79.9627 45.9293 79.846 45.976C79.7294 46.018 79.6267 46.0787 79.538 46.158C79.454 46.2373 79.3864 46.3307 79.335 46.438C79.2884 46.5407 79.265 46.6527 79.265 46.774V49H78.908C78.8474 49 78.7867 49 78.726 49C78.6654 49 78.6047 49 78.544 49ZM82.6091 45.675L82.3431 45.353C82.5251 45.269 82.6745 45.1733 82.7911 45.066C82.9078 44.9587 82.9661 44.8653 82.9661 44.786C82.9661 44.7253 82.9405 44.6717 82.8891 44.625C82.8378 44.5737 82.7911 44.5317 82.7491 44.499C82.6465 44.415 82.5765 44.345 82.5391 44.289C82.5065 44.233 82.4901 44.1747 82.4901 44.114C82.4901 44.002 82.5298 43.9133 82.6091 43.848C82.6885 43.778 82.7911 43.743 82.9171 43.743C83.0478 43.743 83.1645 43.778 83.2671 43.848C83.3745 43.9133 83.4585 44.0043 83.5191 44.121C83.5798 44.2377 83.6101 44.3753 83.6101 44.534C83.6101 44.6553 83.5845 44.7743 83.5331 44.891C83.4818 45.0077 83.4095 45.1173 83.3161 45.22C83.2275 45.3227 83.1225 45.4137 83.0011 45.493C82.8798 45.5723 82.7491 45.633 82.6091 45.675ZM84.0371 45.675L83.7711 45.353C83.9531 45.269 84.1025 45.1733 84.2191 45.066C84.3358 44.9587 84.3941 44.8653 84.3941 44.786C84.3941 44.7253 84.3685 44.6717 84.3171 44.625C84.2658 44.5737 84.2191 44.5317 84.1771 44.499C84.0745 44.415 84.0045 44.345 83.9671 44.289C83.9345 44.233 83.9181 44.1747 83.9181 44.114C83.9181 44.002 83.9578 43.9133 84.0371 43.848C84.1165 43.778 84.2191 43.743 84.3451 43.743C84.4758 43.743 84.5925 43.778 84.6951 43.848C84.8025 43.9133 84.8865 44.0043 84.9471 44.121C85.0078 44.2377 85.0381 44.3753 85.0381 44.534C85.0381 44.6553 85.0125 44.7743 84.9611 44.891C84.9098 45.0077 84.8375 45.1173 84.7441 45.22C84.6555 45.3227 84.5505 45.4137 84.4291 45.493C84.3078 45.5723 84.1771 45.633 84.0371 45.675Z" fill="black" fill-opacity="0.5"/>
<path d="M137.973 57.675C137.842 57.675 137.723 57.6423 137.616 57.577C137.513 57.507 137.432 57.4137 137.371 57.297C137.31 57.1757 137.28 57.038 137.28 56.884C137.28 56.7627 137.306 56.6437 137.357 56.527C137.408 56.4103 137.478 56.3007 137.567 56.198C137.66 56.0953 137.768 56.0043 137.889 55.925C138.01 55.8457 138.141 55.785 138.281 55.743L138.547 56.065C138.365 56.149 138.216 56.2447 138.099 56.352C137.982 56.4593 137.924 56.5527 137.924 56.632C137.924 56.6927 137.95 56.7463 138.001 56.793C138.052 56.8397 138.099 56.8817 138.141 56.919C138.244 57.003 138.311 57.073 138.344 57.129C138.381 57.185 138.4 57.2433 138.4 57.304C138.4 57.416 138.36 57.507 138.281 57.577C138.202 57.6423 138.099 57.675 137.973 57.675ZM139.422 57.675C139.291 57.675 139.172 57.6423 139.065 57.577C138.962 57.507 138.881 57.4137 138.82 57.297C138.759 57.1757 138.729 57.038 138.729 56.884C138.729 56.7627 138.755 56.6437 138.806 56.527C138.857 56.4103 138.927 56.3007 139.016 56.198C139.109 56.0953 139.217 56.0043 139.338 55.925C139.459 55.8457 139.59 55.785 139.73 55.743L139.996 56.065C139.814 56.149 139.665 56.2447 139.548 56.352C139.431 56.4593 139.373 56.5527 139.373 56.632C139.373 56.6927 139.399 56.7463 139.45 56.793C139.501 56.8397 139.548 56.8817 139.59 56.919C139.693 57.003 139.76 57.073 139.793 57.129C139.83 57.185 139.849 57.2433 139.849 57.304C139.849 57.416 139.809 57.507 139.73 57.577C139.651 57.6423 139.548 57.675 139.422 57.675ZM140.642 61V57.325H141.363V58.081L141.237 58.165C141.283 58.0017 141.374 57.8523 141.51 57.717C141.645 57.577 141.806 57.465 141.993 57.381C142.179 57.2923 142.371 57.248 142.567 57.248C142.847 57.248 143.08 57.304 143.267 57.416C143.453 57.5233 143.593 57.689 143.687 57.913C143.78 58.137 143.827 58.4193 143.827 58.76V61H143.106V58.809C143.106 58.599 143.078 58.4263 143.022 58.291C142.966 58.151 142.879 58.0507 142.763 57.99C142.646 57.9247 142.501 57.8967 142.329 57.906C142.189 57.906 142.06 57.9293 141.944 57.976C141.827 58.018 141.724 58.0787 141.636 58.158C141.552 58.2373 141.484 58.3307 141.433 58.438C141.386 58.5407 141.363 58.6527 141.363 58.774V61H141.006C140.945 61 140.884 61 140.824 61C140.763 61 140.702 61 140.642 61ZM146.457 61.07C146.097 61.07 145.775 60.9883 145.491 60.825C145.211 60.657 144.989 60.4307 144.826 60.146C144.662 59.8567 144.581 59.5277 144.581 59.159C144.581 58.7903 144.662 58.4637 144.826 58.179C144.989 57.8897 145.211 57.6633 145.491 57.5C145.775 57.332 146.097 57.248 146.457 57.248C146.811 57.248 147.129 57.332 147.409 57.5C147.693 57.6633 147.917 57.8897 148.081 58.179C148.244 58.4637 148.326 58.7903 148.326 59.159C148.326 59.5277 148.244 59.8567 148.081 60.146C147.917 60.4307 147.693 60.657 147.409 60.825C147.129 60.9883 146.811 61.07 146.457 61.07ZM146.457 60.412C146.676 60.412 146.872 60.3583 147.045 60.251C147.217 60.139 147.353 59.9897 147.451 59.803C147.549 59.6117 147.595 59.397 147.591 59.159C147.595 58.9163 147.549 58.7017 147.451 58.515C147.353 58.3237 147.217 58.1743 147.045 58.067C146.872 57.9597 146.676 57.906 146.457 57.906C146.237 57.906 146.039 57.962 145.862 58.074C145.689 58.1813 145.554 58.3307 145.456 58.522C145.358 58.7087 145.311 58.921 145.316 59.159C145.311 59.397 145.358 59.6117 145.456 59.803C145.554 59.9897 145.689 60.139 145.862 60.251C146.039 60.3583 146.237 60.412 146.457 60.412ZM149.111 62.54V57.325H149.839V58.165L149.727 58.102C149.755 57.962 149.835 57.829 149.965 57.703C150.096 57.5723 150.255 57.4673 150.441 57.388C150.633 57.304 150.829 57.262 151.029 57.262C151.361 57.262 151.655 57.3437 151.911 57.507C152.168 57.6703 152.371 57.8943 152.52 58.179C152.67 58.4637 152.744 58.7903 152.744 59.159C152.744 59.523 152.67 59.8497 152.52 60.139C152.376 60.4237 152.175 60.65 151.918 60.818C151.662 60.9813 151.372 61.063 151.05 61.063C150.836 61.063 150.628 61.021 150.427 60.937C150.227 60.8483 150.056 60.7363 149.916 60.601C149.776 60.4657 149.69 60.3257 149.657 60.181L149.839 60.083V62.54H149.111ZM150.931 60.398C151.146 60.398 151.337 60.3443 151.505 60.237C151.673 60.1297 151.806 59.9827 151.904 59.796C152.002 59.6093 152.051 59.397 152.051 59.159C152.051 58.921 152.002 58.711 151.904 58.529C151.811 58.3423 151.68 58.1953 151.512 58.088C151.344 57.9807 151.151 57.927 150.931 57.927C150.712 57.927 150.518 57.9807 150.35 58.088C150.182 58.1907 150.049 58.3353 149.951 58.522C149.853 58.7087 149.804 58.921 149.804 59.159C149.804 59.397 149.853 59.6093 149.951 59.796C150.049 59.9827 150.182 60.1297 150.35 60.237C150.518 60.3443 150.712 60.398 150.931 60.398ZM155.242 61.07C154.864 61.07 154.528 60.9907 154.234 60.832C153.945 60.6687 153.716 60.447 153.548 60.167C153.385 59.887 153.303 59.565 153.303 59.201C153.303 58.9117 153.35 58.648 153.443 58.41C153.537 58.172 153.665 57.9667 153.828 57.794C153.996 57.6167 154.195 57.4813 154.423 57.388C154.657 57.29 154.909 57.241 155.179 57.241C155.417 57.241 155.639 57.2877 155.844 57.381C156.05 57.4697 156.227 57.5933 156.376 57.752C156.53 57.9107 156.647 58.0997 156.726 58.319C156.81 58.5337 156.85 58.7693 156.845 59.026L156.838 59.334H153.835L153.674 58.76H156.215L156.11 58.879V58.711C156.096 58.557 156.045 58.4193 155.956 58.298C155.868 58.1767 155.756 58.081 155.62 58.011C155.485 57.941 155.338 57.906 155.179 57.906C154.927 57.906 154.715 57.955 154.542 58.053C154.37 58.1463 154.239 58.2863 154.15 58.473C154.062 58.655 154.017 58.8813 154.017 59.152C154.017 59.4087 154.071 59.6327 154.178 59.824C154.286 60.0107 154.437 60.1553 154.633 60.258C154.829 60.3607 155.056 60.412 155.312 60.412C155.494 60.412 155.662 60.3817 155.816 60.321C155.975 60.2603 156.145 60.1507 156.327 59.992L156.691 60.503C156.579 60.615 156.442 60.713 156.278 60.797C156.12 60.881 155.949 60.9487 155.767 61C155.59 61.0467 155.415 61.07 155.242 61.07ZM157.531 57.675L157.265 57.353C157.447 57.269 157.596 57.1733 157.713 57.066C157.83 56.9587 157.888 56.8653 157.888 56.786C157.888 56.7253 157.862 56.6717 157.811 56.625C157.76 56.5737 157.713 56.5317 157.671 56.499C157.568 56.415 157.498 56.345 157.461 56.289C157.428 56.233 157.412 56.1747 157.412 56.114C157.412 56.002 157.452 55.9133 157.531 55.848C157.61 55.778 157.713 55.743 157.839 55.743C157.97 55.743 158.086 55.778 158.189 55.848C158.296 55.9133 158.38 56.0043 158.441 56.121C158.502 56.2377 158.532 56.3753 158.532 56.534C158.532 56.6553 158.506 56.7743 158.455 56.891C158.404 57.0077 158.331 57.1173 158.238 57.22C158.149 57.3227 158.044 57.4137 157.923 57.493C157.802 57.5723 157.671 57.633 157.531 57.675ZM158.959 57.675L158.693 57.353C158.875 57.269 159.024 57.1733 159.141 57.066C159.258 56.9587 159.316 56.8653 159.316 56.786C159.316 56.7253 159.29 56.6717 159.239 56.625C159.188 56.5737 159.141 56.5317 159.099 56.499C158.996 56.415 158.926 56.345 158.889 56.289C158.856 56.233 158.84 56.1747 158.84 56.114C158.84 56.002 158.88 55.9133 158.959 55.848C159.038 55.778 159.141 55.743 159.267 55.743C159.398 55.743 159.514 55.778 159.617 55.848C159.724 55.9133 159.808 56.0043 159.869 56.121C159.93 56.2377 159.96 56.3753 159.96 56.534C159.96 56.6553 159.934 56.7743 159.883 56.891C159.832 57.0077 159.759 57.1173 159.666 57.22C159.577 57.3227 159.472 57.4137 159.351 57.493C159.23 57.5723 159.099 57.633 158.959 57.675Z" fill="black" fill-opacity="0.5"/>
<path d="M50.5581 82.7661C50.4289 83.0101 50.522 83.3127 50.7661 83.4419C51.0101 83.5711 51.3127 83.478 51.4419 83.2339L51 83L50.5581 82.7661ZM60.4779 65.853C60.3967 65.589 60.1169 65.4409 59.853 65.5221L55.552 66.8455C55.288 66.9267 55.1399 67.2065 55.2211 67.4704C55.3023 67.7344 55.5821 67.8825 55.846 67.8013L59.6692 66.6249L60.8455 70.448C60.9267 70.712 61.2065 70.8601 61.4704 70.7789C61.7344 70.6977 61.8825 70.4179 61.8013 70.154L60.4779 65.853ZM51 83L51.4419 83.2339L60.4419 66.2339L60 66L59.5581 65.7661L50.5581 82.7661L51 83Z" fill="black"/>
<path d="M63.7948 93.544C63.543 93.6574 63.4307 93.9534 63.544 94.2052C63.6574 94.457 63.9534 94.5693 64.2052 94.456L64 94L63.7948 93.544ZM124.467 67.1773C124.565 66.9191 124.436 66.6304 124.177 66.5325L119.97 64.9366C119.712 64.8386 119.423 64.9685 119.325 65.2267C119.227 65.4849 119.357 65.7736 119.615 65.8716L123.355 67.2902L121.937 71.0302C121.839 71.2884 121.969 71.5771 122.227 71.675C122.485 71.7729 122.774 71.643 122.872 71.3848L124.467 67.1773ZM64 94L64.2052 94.456L124.205 67.456L124 67L123.795 66.544L63.7948 93.544L64 94Z" fill="black"/>
<path d="M68.0484 110.502C67.7735 110.476 67.5291 110.677 67.5023 110.952C67.4756 111.226 67.6768 111.471 67.9516 111.498L68 111L68.0484 110.502ZM140.318 118.386C140.531 118.211 140.562 117.896 140.386 117.682L137.527 114.207C137.352 113.994 137.036 113.963 136.823 114.139C136.61 114.314 136.579 114.629 136.755 114.843L139.296 117.932L136.207 120.473C135.994 120.648 135.963 120.964 136.139 121.177C136.314 121.39 136.629 121.421 136.843 121.245L140.318 118.386ZM68 111L67.9516 111.498L139.952 118.498L140 118L140.048 117.502L68.0484 110.502L68 111Z" fill="black"/>
<path d="M66.6823 118.614C66.4691 118.789 66.4384 119.104 66.6139 119.318L69.473 122.793C69.6485 123.006 69.9636 123.037 70.1768 122.861C70.3901 122.686 70.4207 122.371 70.2452 122.157L67.7038 119.068L70.7926 116.527C71.0059 116.352 71.0365 116.036 70.8611 115.823C70.6856 115.61 70.3705 115.579 70.1573 115.755L66.6823 118.614ZM138.952 126.498C139.226 126.524 139.471 126.323 139.498 126.048C139.524 125.774 139.323 125.529 139.048 125.502L139 126L138.952 126.498ZM67 119L66.9516 119.498L138.952 126.498L139 126L139.048 125.502L67.0484 118.502L67 119Z" fill="black"/>
<path d="M2.973 66.675C2.84233 66.675 2.72333 66.6423 2.616 66.577C2.51333 66.507 2.43167 66.4137 2.371 66.297C2.31033 66.1757 2.28 66.038 2.28 65.884C2.28 65.7627 2.30567 65.6437 2.357 65.527C2.40833 65.4103 2.47833 65.3007 2.567 65.198C2.66033 65.0953 2.76767 65.0043 2.889 64.925C3.01033 64.8457 3.141 64.785 3.281 64.743L3.547 65.065C3.365 65.149 3.21567 65.2447 3.099 65.352C2.98233 65.4593 2.924 65.5527 2.924 65.632C2.924 65.6927 2.94967 65.7463 3.001 65.793C3.05233 65.8397 3.099 65.8817 3.141 65.919C3.24367 66.003 3.31133 66.073 3.344 66.129C3.38133 66.185 3.4 66.2433 3.4 66.304C3.4 66.416 3.36033 66.507 3.281 66.577C3.20167 66.6423 3.099 66.675 2.973 66.675ZM4.422 66.675C4.29133 66.675 4.17233 66.6423 4.065 66.577C3.96233 66.507 3.88067 66.4137 3.82 66.297C3.75933 66.1757 3.729 66.038 3.729 65.884C3.729 65.7627 3.75467 65.6437 3.806 65.527C3.85733 65.4103 3.92733 65.3007 4.016 65.198C4.10933 65.0953 4.21667 65.0043 4.338 64.925C4.45933 64.8457 4.59 64.785 4.73 64.743L4.996 65.065C4.814 65.149 4.66467 65.2447 4.548 65.352C4.43133 65.4593 4.373 65.5527 4.373 65.632C4.373 65.6927 4.39867 65.7463 4.45 65.793C4.50133 65.8397 4.548 65.8817 4.59 65.919C4.69267 66.003 4.76033 66.073 4.793 66.129C4.83033 66.185 4.849 66.2433 4.849 66.304C4.849 66.416 4.80933 66.507 4.73 66.577C4.65067 66.6423 4.548 66.675 4.422 66.675ZM7.1747 70.07C6.8387 70.07 6.5377 69.9883 6.2717 69.825C6.01036 69.657 5.8027 69.4307 5.6487 69.146C5.4947 68.8567 5.4177 68.5277 5.4177 68.159C5.4177 67.7903 5.49236 67.4637 5.6417 67.179C5.7957 66.8897 6.00336 66.6633 6.2647 66.5C6.52603 66.332 6.82236 66.248 7.1537 66.248C7.3357 66.248 7.5107 66.2783 7.6787 66.339C7.85136 66.395 8.00536 66.4743 8.1407 66.577C8.27603 66.675 8.38103 66.7847 8.4557 66.906C8.53503 67.0227 8.5747 67.1417 8.5747 67.263L8.3647 67.277V64.82H9.0857V70H8.3647V69.125H8.5047C8.5047 69.237 8.46736 69.349 8.3927 69.461C8.31803 69.5683 8.2177 69.6687 8.0917 69.762C7.97036 69.8553 7.82803 69.93 7.6647 69.986C7.50603 70.042 7.3427 70.07 7.1747 70.07ZM7.2727 69.447C7.49203 69.447 7.6857 69.391 7.8537 69.279C8.0217 69.167 8.15236 69.0153 8.2457 68.824C8.3437 68.628 8.3927 68.4063 8.3927 68.159C8.3927 67.9117 8.3437 67.6923 8.2457 67.501C8.15236 67.305 8.0217 67.151 7.8537 67.039C7.6857 66.927 7.49203 66.871 7.2727 66.871C7.05336 66.871 6.8597 66.927 6.6917 67.039C6.5237 67.151 6.3907 67.305 6.2927 67.501C6.19936 67.6923 6.1527 67.9117 6.1527 68.159C6.1527 68.4063 6.19936 68.628 6.2927 68.824C6.3907 69.0153 6.5237 69.167 6.6917 69.279C6.8597 69.391 7.05336 69.447 7.2727 69.447ZM11.7302 70.07C11.3709 70.07 11.0489 69.9883 10.7642 69.825C10.4842 69.657 10.2626 69.4307 10.0992 69.146C9.93589 68.8567 9.85422 68.5277 9.85422 68.159C9.85422 67.7903 9.93589 67.4637 10.0992 67.179C10.2626 66.8897 10.4842 66.6633 10.7642 66.5C11.0489 66.332 11.3709 66.248 11.7302 66.248C12.0849 66.248 12.4022 66.332 12.6822 66.5C12.9669 66.6633 13.1909 66.8897 13.3542 67.179C13.5176 67.4637 13.5992 67.7903 13.5992 68.159C13.5992 68.5277 13.5176 68.8567 13.3542 69.146C13.1909 69.4307 12.9669 69.657 12.6822 69.825C12.4022 69.9883 12.0849 70.07 11.7302 70.07ZM11.7302 69.412C11.9496 69.412 12.1456 69.3583 12.3182 69.251C12.4909 69.139 12.6262 68.9897 12.7242 68.803C12.8222 68.6117 12.8689 68.397 12.8642 68.159C12.8689 67.9163 12.8222 67.7017 12.7242 67.515C12.6262 67.3237 12.4909 67.1743 12.3182 67.067C12.1456 66.9597 11.9496 66.906 11.7302 66.906C11.5109 66.906 11.3126 66.962 11.1352 67.074C10.9626 67.1813 10.8272 67.3307 10.7292 67.522C10.6312 67.7087 10.5846 67.921 10.5892 68.159C10.5846 68.397 10.6312 68.6117 10.7292 68.803C10.8272 68.9897 10.9626 69.139 11.1352 69.251C11.3126 69.3583 11.5109 69.412 11.7302 69.412ZM16.0999 70.07C15.7219 70.07 15.3859 69.9907 15.0919 69.832C14.8025 69.6687 14.5739 69.447 14.4059 69.167C14.2425 68.887 14.1609 68.565 14.1609 68.201C14.1609 67.9117 14.2075 67.648 14.3009 67.41C14.3942 67.172 14.5225 66.9667 14.6859 66.794C14.8539 66.6167 15.0522 66.4813 15.2809 66.388C15.5142 66.29 15.7662 66.241 16.0369 66.241C16.2749 66.241 16.4965 66.2877 16.7019 66.381C16.9072 66.4697 17.0845 66.5933 17.2339 66.752C17.3879 66.9107 17.5045 67.0997 17.5839 67.319C17.6679 67.5337 17.7075 67.7693 17.7029 68.026L17.6959 68.334H14.6929L14.5319 67.76H17.0729L16.9679 67.879V67.711C16.9539 67.557 16.9025 67.4193 16.8139 67.298C16.7252 67.1767 16.6132 67.081 16.4779 67.011C16.3425 66.941 16.1955 66.906 16.0369 66.906C15.7849 66.906 15.5725 66.955 15.3999 67.053C15.2272 67.1463 15.0965 67.2863 15.0079 67.473C14.9192 67.655 14.8749 67.8813 14.8749 68.152C14.8749 68.4087 14.9285 68.6327 15.0359 68.824C15.1432 69.0107 15.2949 69.1553 15.4909 69.258C15.6869 69.3607 15.9132 69.412 16.1699 69.412C16.3519 69.412 16.5199 69.3817 16.6739 69.321C16.8325 69.2603 17.0029 69.1507 17.1849 68.992L17.5489 69.503C17.4369 69.615 17.2992 69.713 17.1359 69.797C16.9772 69.881 16.8069 69.9487 16.6249 70C16.4475 70.0467 16.2725 70.07 16.0999 70.07ZM19.7114 70.07C19.4034 70.07 19.1258 70.0163 18.8784 69.909C18.6311 69.8017 18.4258 69.643 18.2624 69.433L18.7524 69.013C18.8924 69.1763 19.0441 69.2953 19.2074 69.37C19.3754 69.44 19.5644 69.475 19.7744 69.475C19.8584 69.475 19.9354 69.4657 20.0054 69.447C20.0801 69.4237 20.1431 69.391 20.1944 69.349C20.2504 69.307 20.2924 69.258 20.3204 69.202C20.3484 69.1413 20.3624 69.076 20.3624 69.006C20.3624 68.8847 20.3181 68.7867 20.2294 68.712C20.1828 68.6793 20.1081 68.6443 20.0054 68.607C19.9074 68.565 19.7791 68.523 19.6204 68.481C19.3498 68.411 19.1281 68.3317 18.9554 68.243C18.7828 68.1543 18.6498 68.054 18.5564 67.942C18.4864 67.8533 18.4351 67.7577 18.4024 67.655C18.3698 67.5477 18.3534 67.431 18.3534 67.305C18.3534 67.0997 18.4118 66.9177 18.5284 66.759C18.6451 66.6003 18.8014 66.4767 18.9974 66.388C19.1981 66.2947 19.4221 66.248 19.6694 66.248C19.8421 66.248 20.0124 66.2713 20.1804 66.318C20.3531 66.3647 20.5118 66.4323 20.6564 66.521C20.8011 66.6097 20.9224 66.7147 21.0204 66.836L20.6074 67.291C20.5188 67.2023 20.4208 67.1253 20.3134 67.06C20.2108 66.99 20.1058 66.9363 19.9984 66.899C19.8911 66.8617 19.7931 66.843 19.7044 66.843C19.6064 66.843 19.5178 66.8523 19.4384 66.871C19.3591 66.8897 19.2914 66.9177 19.2354 66.955C19.1841 66.9923 19.1444 67.039 19.1164 67.095C19.0884 67.151 19.0744 67.214 19.0744 67.284C19.0791 67.3447 19.0931 67.403 19.1164 67.459C19.1444 67.5103 19.1818 67.5547 19.2284 67.592C19.2798 67.6293 19.3568 67.669 19.4594 67.711C19.5621 67.753 19.6928 67.7927 19.8514 67.83C20.0848 67.8907 20.2761 67.9583 20.4254 68.033C20.5794 68.103 20.7008 68.1847 20.7894 68.278C20.8828 68.3667 20.9481 68.4693 20.9854 68.586C21.0228 68.7027 21.0414 68.8333 21.0414 68.978C21.0414 69.188 20.9808 69.377 20.8594 69.545C20.7428 69.7083 20.5841 69.8367 20.3834 69.93C20.1828 70.0233 19.9588 70.07 19.7114 70.07ZM25.9749 70V67.606C25.9749 67.4007 25.9003 67.235 25.7509 67.109C25.6063 66.9783 25.4219 66.913 25.1979 66.913C24.9926 66.913 24.8059 66.955 24.6379 67.039C24.4746 67.123 24.3253 67.2513 24.1899 67.424L23.7209 66.955C23.9403 66.717 24.1759 66.5397 24.4279 66.423C24.6846 66.3063 24.9599 66.248 25.2539 66.248C25.5339 66.248 25.7766 66.2947 25.9819 66.388C26.1873 66.4813 26.3459 66.619 26.4579 66.801C26.5699 66.9783 26.6259 67.1953 26.6259 67.452V70H25.9749ZM24.8759 70.07C24.6379 70.07 24.4256 70.0233 24.2389 69.93C24.0523 69.8367 23.9029 69.7083 23.7909 69.545C23.6836 69.377 23.6299 69.181 23.6299 68.957C23.6299 68.761 23.6649 68.5883 23.7349 68.439C23.8049 68.2897 23.9076 68.166 24.0429 68.068C24.1829 67.97 24.3556 67.8953 24.5609 67.844C24.7709 67.7927 25.0113 67.767 25.2819 67.767H26.3039L26.2409 68.341H25.1909C25.0509 68.341 24.9249 68.355 24.8129 68.383C24.7056 68.4063 24.6123 68.446 24.5329 68.502C24.4583 68.5533 24.4023 68.6163 24.3649 68.691C24.3276 68.761 24.3089 68.845 24.3089 68.943C24.3089 69.0457 24.3346 69.1367 24.3859 69.216C24.4373 69.2907 24.5073 69.349 24.5959 69.391C24.6846 69.433 24.7873 69.454 24.9039 69.454C25.0719 69.454 25.2306 69.426 25.3799 69.37C25.5339 69.3093 25.6693 69.2277 25.7859 69.125C25.9073 69.0223 26.0006 68.908 26.0659 68.782L26.2339 69.251C26.1359 69.4143 26.0146 69.5567 25.8699 69.678C25.7253 69.7993 25.5689 69.895 25.4009 69.965C25.2329 70.035 25.0579 70.07 24.8759 70.07ZM27.5372 70V66.325H28.2582V67.081L28.1322 67.165C28.1789 67.0017 28.2699 66.8523 28.4052 66.717C28.5405 66.577 28.7015 66.465 28.8882 66.381C29.0749 66.2923 29.2662 66.248 29.4622 66.248C29.7422 66.248 29.9755 66.304 30.1622 66.416C30.3489 66.5233 30.4889 66.689 30.5822 66.913C30.6755 67.137 30.7222 67.4193 30.7222 67.76V70H30.0012V67.809C30.0012 67.599 29.9732 67.4263 29.9172 67.291C29.8612 67.151 29.7749 67.0507 29.6582 66.99C29.5415 66.9247 29.3969 66.8967 29.2242 66.906C29.0842 66.906 28.9559 66.9293 28.8392 66.976C28.7225 67.018 28.6199 67.0787 28.5312 67.158C28.4472 67.2373 28.3795 67.3307 28.3282 67.438C28.2815 67.5407 28.2582 67.6527 28.2582 67.774V70H27.9012C27.8405 70 27.7799 70 27.7192 70C27.6585 70 27.5979 70 27.5372 70ZM32.2821 71.61L33.0241 69.895L33.0311 70.469L31.1971 66.325H32.0371L33.1851 69.027C33.2084 69.0737 33.2364 69.146 33.2691 69.244C33.3018 69.3373 33.3298 69.4307 33.3531 69.524L33.1711 69.566C33.2084 69.468 33.2434 69.37 33.2761 69.272C33.3134 69.174 33.3484 69.076 33.3811 68.978L34.3401 66.325H35.1941L33.6821 70L33.0591 71.61H32.2821ZM37.3171 70.07C36.9578 70.07 36.6358 69.9883 36.3511 69.825C36.0711 69.657 35.8495 69.4307 35.6861 69.146C35.5228 68.8567 35.4411 68.5277 35.4411 68.159C35.4411 67.7903 35.5228 67.4637 35.6861 67.179C35.8495 66.8897 36.0711 66.6633 36.3511 66.5C36.6358 66.332 36.9578 66.248 37.3171 66.248C37.6718 66.248 37.9891 66.332 38.2691 66.5C38.5538 66.6633 38.7778 66.8897 38.9411 67.179C39.1045 67.4637 39.1861 67.7903 39.1861 68.159C39.1861 68.5277 39.1045 68.8567 38.9411 69.146C38.7778 69.4307 38.5538 69.657 38.2691 69.825C37.9891 69.9883 37.6718 70.07 37.3171 70.07ZM37.3171 69.412C37.5365 69.412 37.7325 69.3583 37.9051 69.251C38.0778 69.139 38.2131 68.9897 38.3111 68.803C38.4091 68.6117 38.4558 68.397 38.4511 68.159C38.4558 67.9163 38.4091 67.7017 38.3111 67.515C38.2131 67.3237 38.0778 67.1743 37.9051 67.067C37.7325 66.9597 37.5365 66.906 37.3171 66.906C37.0978 66.906 36.8995 66.962 36.7221 67.074C36.5495 67.1813 36.4141 67.3307 36.3161 67.522C36.2181 67.7087 36.1715 67.921 36.1761 68.159C36.1715 68.397 36.2181 68.6117 36.3161 68.803C36.4141 68.9897 36.5495 69.139 36.7221 69.251C36.8995 69.3583 37.0978 69.412 37.3171 69.412ZM39.9718 70V66.325H40.6928V67.081L40.5668 67.165C40.6134 67.0017 40.7044 66.8523 40.8398 66.717C40.9751 66.577 41.1361 66.465 41.3228 66.381C41.5094 66.2923 41.7008 66.248 41.8968 66.248C42.1768 66.248 42.4101 66.304 42.5968 66.416C42.7834 66.5233 42.9234 66.689 43.0168 66.913C43.1101 67.137 43.1568 67.4193 43.1568 67.76V70H42.4358V67.809C42.4358 67.599 42.4078 67.4263 42.3518 67.291C42.2958 67.151 42.2094 67.0507 42.0928 66.99C41.9761 66.9247 41.8314 66.8967 41.6588 66.906C41.5188 66.906 41.3904 66.9293 41.2738 66.976C41.1571 67.018 41.0544 67.0787 40.9658 67.158C40.8818 67.2373 40.8141 67.3307 40.7628 67.438C40.7161 67.5407 40.6928 67.6527 40.6928 67.774V70H40.3358C40.2751 70 40.2144 70 40.1538 70C40.0931 70 40.0324 70 39.9718 70ZM45.8499 70.07C45.4719 70.07 45.1359 69.9907 44.8419 69.832C44.5525 69.6687 44.3239 69.447 44.1559 69.167C43.9925 68.887 43.9109 68.565 43.9109 68.201C43.9109 67.9117 43.9575 67.648 44.0509 67.41C44.1442 67.172 44.2725 66.9667 44.4359 66.794C44.6039 66.6167 44.8022 66.4813 45.0309 66.388C45.2642 66.29 45.5162 66.241 45.7869 66.241C46.0249 66.241 46.2465 66.2877 46.4519 66.381C46.6572 66.4697 46.8345 66.5933 46.9839 66.752C47.1379 66.9107 47.2545 67.0997 47.3339 67.319C47.4179 67.5337 47.4575 67.7693 47.4529 68.026L47.4459 68.334H44.4429L44.2819 67.76H46.8229L46.7179 67.879V67.711C46.7039 67.557 46.6525 67.4193 46.5639 67.298C46.4752 67.1767 46.3632 67.081 46.2279 67.011C46.0925 66.941 45.9455 66.906 45.7869 66.906C45.5349 66.906 45.3225 66.955 45.1499 67.053C44.9772 67.1463 44.8465 67.2863 44.7579 67.473C44.6692 67.655 44.6249 67.8813 44.6249 68.152C44.6249 68.4087 44.6785 68.6327 44.7859 68.824C44.8932 69.0107 45.0449 69.1553 45.2409 69.258C45.4369 69.3607 45.6632 69.412 45.9199 69.412C46.1019 69.412 46.2699 69.3817 46.4239 69.321C46.5825 69.2603 46.7529 69.1507 46.9349 68.992L47.2989 69.503C47.1869 69.615 47.0492 69.713 46.8859 69.797C46.7272 69.881 46.5569 69.9487 46.3749 70C46.1975 70.0467 46.0225 70.07 45.8499 70.07ZM2.504 79V73.82H3.225V76.081L3.099 76.165C3.14567 76.0017 3.23667 75.8523 3.372 75.717C3.50733 75.577 3.66833 75.465 3.855 75.381C4.04167 75.2923 4.233 75.248 4.429 75.248C4.709 75.248 4.94233 75.304 5.129 75.416C5.31567 75.5233 5.45567 75.689 5.549 75.913C5.64233 76.137 5.689 76.4193 5.689 76.76V79H4.968V76.809C4.968 76.599 4.94 76.4263 4.884 76.291C4.828 76.151 4.74167 76.0507 4.625 75.99C4.50833 75.9247 4.36367 75.8967 4.191 75.906C4.051 75.906 3.92267 75.9293 3.806 75.976C3.68933 76.018 3.58667 76.0787 3.498 76.158C3.414 76.2373 3.34633 76.3307 3.295 76.438C3.24833 76.5407 3.225 76.6527 3.225 76.774V79H2.868C2.80733 79 2.74667 79 2.686 79C2.62533 79 2.56467 79 2.504 79ZM8.84409 79V76.606C8.84409 76.4007 8.76942 76.235 8.62009 76.109C8.47542 75.9783 8.29109 75.913 8.06709 75.913C7.86175 75.913 7.67509 75.955 7.50709 76.039C7.34375 76.123 7.19442 76.2513 7.05909 76.424L6.59009 75.955C6.80942 75.717 7.04509 75.5397 7.29709 75.423C7.55375 75.3063 7.82909 75.248 8.12309 75.248C8.40309 75.248 8.64575 75.2947 8.85109 75.388C9.05642 75.4813 9.21509 75.619 9.32709 75.801C9.43909 75.9783 9.49509 76.1953 9.49509 76.452V79H8.84409ZM7.74509 79.07C7.50709 79.07 7.29475 79.0233 7.10809 78.93C6.92142 78.8367 6.77209 78.7083 6.66009 78.545C6.55275 78.377 6.49909 78.181 6.49909 77.957C6.49909 77.761 6.53409 77.5883 6.60409 77.439C6.67409 77.2897 6.77675 77.166 6.91209 77.068C7.05209 76.97 7.22475 76.8953 7.43009 76.844C7.64009 76.7927 7.88042 76.767 8.15109 76.767H9.17309L9.11009 77.341H8.06009C7.92009 77.341 7.79409 77.355 7.68209 77.383C7.57475 77.4063 7.48142 77.446 7.40209 77.502C7.32742 77.5533 7.27142 77.6163 7.23409 77.691C7.19675 77.761 7.17809 77.845 7.17809 77.943C7.17809 78.0457 7.20375 78.1367 7.25509 78.216C7.30642 78.2907 7.37642 78.349 7.46509 78.391C7.55375 78.433 7.65642 78.454 7.77309 78.454C7.94109 78.454 8.09975 78.426 8.24909 78.37C8.40309 78.3093 8.53842 78.2277 8.65509 78.125C8.77642 78.0223 8.86975 77.908 8.93509 77.782L9.10309 78.251C9.00509 78.4143 8.88375 78.5567 8.73909 78.678C8.59442 78.7993 8.43809 78.895 8.27009 78.965C8.10209 79.035 7.92709 79.07 7.74509 79.07ZM11.5283 79L9.97431 75.325H10.7513L11.8713 78.076L11.7383 78.139L12.9353 75.325H13.6773L12.0463 79H11.5283ZM15.9495 79.07C15.5715 79.07 15.2355 78.9907 14.9415 78.832C14.6521 78.6687 14.4235 78.447 14.2555 78.167C14.0921 77.887 14.0105 77.565 14.0105 77.201C14.0105 76.9117 14.0571 76.648 14.1505 76.41C14.2438 76.172 14.3721 75.9667 14.5355 75.794C14.7035 75.6167 14.9018 75.4813 15.1305 75.388C15.3638 75.29 15.6158 75.241 15.8865 75.241C16.1245 75.241 16.3461 75.2877 16.5515 75.381C16.7568 75.4697 16.9341 75.5933 17.0835 75.752C17.2375 75.9107 17.3541 76.0997 17.4335 76.319C17.5175 76.5337 17.5571 76.7693 17.5525 77.026L17.5455 77.334H14.5425L14.3815 76.76H16.9225L16.8175 76.879V76.711C16.8035 76.557 16.7521 76.4193 16.6635 76.298C16.5748 76.1767 16.4628 76.081 16.3275 76.011C16.1921 75.941 16.0451 75.906 15.8865 75.906C15.6345 75.906 15.4221 75.955 15.2495 76.053C15.0768 76.1463 14.9461 76.2863 14.8575 76.473C14.7688 76.655 14.7245 76.8813 14.7245 77.152C14.7245 77.4087 14.7781 77.6327 14.8855 77.824C14.9928 78.0107 15.1445 78.1553 15.3405 78.258C15.5365 78.3607 15.7628 78.412 16.0195 78.412C16.2015 78.412 16.3695 78.3817 16.5235 78.321C16.6821 78.2603 16.8525 78.1507 17.0345 77.992L17.3985 78.503C17.2865 78.615 17.1488 78.713 16.9855 78.797C16.8268 78.881 16.6565 78.9487 16.4745 79C16.2971 79.0467 16.1221 79.07 15.9495 79.07ZM20.7529 79V74.387H21.4739V79H20.7529ZM19.9899 76.025V75.325H22.3279V76.025H19.9899ZM22.9845 79V73.82H23.7055V76.081L23.5795 76.165C23.6261 76.0017 23.7171 75.8523 23.8525 75.717C23.9878 75.577 24.1488 75.465 24.3355 75.381C24.5221 75.2923 24.7135 75.248 24.9095 75.248C25.1895 75.248 25.4228 75.304 25.6095 75.416C25.7961 75.5233 25.9361 75.689 26.0295 75.913C26.1228 76.137 26.1695 76.4193 26.1695 76.76V79H25.4485V76.809C25.4485 76.599 25.4205 76.4263 25.3645 76.291C25.3085 76.151 25.2221 76.0507 25.1055 75.99C24.9888 75.9247 24.8441 75.8967 24.6715 75.906C24.5315 75.906 24.4031 75.9293 24.2865 75.976C24.1698 76.018 24.0671 76.0787 23.9785 76.158C23.8945 76.2373 23.8268 76.3307 23.7755 76.438C23.7288 76.5407 23.7055 76.6527 23.7055 76.774V79H23.3485C23.2878 79 23.2271 79 23.1665 79C23.1058 79 23.0451 79 22.9845 79ZM28.8626 79.07C28.4846 79.07 28.1486 78.9907 27.8546 78.832C27.5652 78.6687 27.3366 78.447 27.1686 78.167C27.0052 77.887 26.9236 77.565 26.9236 77.201C26.9236 76.9117 26.9702 76.648 27.0636 76.41C27.1569 76.172 27.2852 75.9667 27.4486 75.794C27.6166 75.6167 27.8149 75.4813 28.0436 75.388C28.2769 75.29 28.5289 75.241 28.7996 75.241C29.0376 75.241 29.2592 75.2877 29.4646 75.381C29.6699 75.4697 29.8472 75.5933 29.9966 75.752C30.1506 75.9107 30.2672 76.0997 30.3466 76.319C30.4306 76.5337 30.4702 76.7693 30.4656 77.026L30.4586 77.334H27.4556L27.2946 76.76H29.8356L29.7306 76.879V76.711C29.7166 76.557 29.6652 76.4193 29.5766 76.298C29.4879 76.1767 29.3759 76.081 29.2406 76.011C29.1052 75.941 28.9582 75.906 28.7996 75.906C28.5476 75.906 28.3352 75.955 28.1626 76.053C27.9899 76.1463 27.8592 76.2863 27.7706 76.473C27.6819 76.655 27.6376 76.8813 27.6376 77.152C27.6376 77.4087 27.6912 77.6327 27.7986 77.824C27.9059 78.0107 28.0576 78.1553 28.2536 78.258C28.4496 78.3607 28.6759 78.412 28.9326 78.412C29.1146 78.412 29.2826 78.3817 29.4366 78.321C29.5952 78.2603 29.7656 78.1507 29.9476 77.992L30.3116 78.503C30.1996 78.615 30.0619 78.713 29.8986 78.797C29.7399 78.881 29.5696 78.9487 29.3876 79C29.2102 79.0467 29.0352 79.07 28.8626 79.07ZM2.504 89.54V84.325H3.232V85.165L3.12 85.102C3.148 84.962 3.22733 84.829 3.358 84.703C3.48867 84.5723 3.64733 84.4673 3.834 84.388C4.02533 84.304 4.22133 84.262 4.422 84.262C4.75333 84.262 5.04733 84.3437 5.304 84.507C5.56067 84.6703 5.76367 84.8943 5.913 85.179C6.06233 85.4637 6.137 85.7903 6.137 86.159C6.137 86.523 6.06233 86.8497 5.913 87.139C5.76833 87.4237 5.56767 87.65 5.311 87.818C5.05433 87.9813 4.765 88.063 4.443 88.063C4.22833 88.063 4.02067 88.021 3.82 87.937C3.61933 87.8483 3.449 87.7363 3.309 87.601C3.169 87.4657 3.08267 87.3257 3.05 87.181L3.232 87.083V89.54H2.504ZM4.324 87.398C4.53867 87.398 4.73 87.3443 4.898 87.237C5.066 87.1297 5.199 86.9827 5.297 86.796C5.395 86.6093 5.444 86.397 5.444 86.159C5.444 85.921 5.395 85.711 5.297 85.529C5.20367 85.3423 5.073 85.1953 4.905 85.088C4.737 84.9807 4.54333 84.927 4.324 84.927C4.10467 84.927 3.911 84.9807 3.743 85.088C3.575 85.1907 3.442 85.3353 3.344 85.522C3.246 85.7087 3.197 85.921 3.197 86.159C3.197 86.397 3.246 86.6093 3.344 86.796C3.442 86.9827 3.575 87.1297 3.743 87.237C3.911 87.3443 4.10467 87.398 4.324 87.398ZM6.92002 88V84.325H7.64802V85.48L7.57802 85.2C7.62935 85.0227 7.71568 84.8617 7.83702 84.717C7.96302 84.5723 8.10535 84.458 8.26402 84.374C8.42735 84.29 8.59535 84.248 8.76802 84.248C8.84735 84.248 8.92202 84.255 8.99202 84.269C9.06668 84.283 9.12502 84.2993 9.16702 84.318L8.97802 85.102C8.92202 85.0787 8.85902 85.06 8.78902 85.046C8.72368 85.0273 8.65835 85.018 8.59302 85.018C8.46702 85.018 8.34568 85.0437 8.22902 85.095C8.11702 85.1417 8.01668 85.2093 7.92802 85.298C7.84402 85.382 7.77635 85.4823 7.72502 85.599C7.67368 85.711 7.64802 85.8347 7.64802 85.97V88H6.92002ZM11.238 88.07C10.8787 88.07 10.5567 87.9883 10.272 87.825C9.99203 87.657 9.77036 87.4307 9.60703 87.146C9.4437 86.8567 9.36203 86.5277 9.36203 86.159C9.36203 85.7903 9.4437 85.4637 9.60703 85.179C9.77036 84.8897 9.99203 84.6633 10.272 84.5C10.5567 84.332 10.8787 84.248 11.238 84.248C11.5927 84.248 11.91 84.332 12.19 84.5C12.4747 84.6633 12.6987 84.8897 12.862 85.179C13.0254 85.4637 13.107 85.7903 13.107 86.159C13.107 86.5277 13.0254 86.8567 12.862 87.146C12.6987 87.4307 12.4747 87.657 12.19 87.825C11.91 87.9883 11.5927 88.07 11.238 88.07ZM11.238 87.412C11.4574 87.412 11.6534 87.3583 11.826 87.251C11.9987 87.139 12.134 86.9897 12.232 86.803C12.33 86.6117 12.3767 86.397 12.372 86.159C12.3767 85.9163 12.33 85.7017 12.232 85.515C12.134 85.3237 11.9987 85.1743 11.826 85.067C11.6534 84.9597 11.4574 84.906 11.238 84.906C11.0187 84.906 10.8204 84.962 10.643 85.074C10.4704 85.1813 10.335 85.3307 10.237 85.522C10.139 85.7087 10.0924 85.921 10.097 86.159C10.0924 86.397 10.139 86.6117 10.237 86.803C10.335 86.9897 10.4704 87.139 10.643 87.251C10.8204 87.3583 11.0187 87.412 11.238 87.412ZM15.5377 89.61C15.2763 89.61 15.015 89.568 14.7537 89.484C14.497 89.4047 14.2893 89.2997 14.1307 89.169L14.3967 88.609C14.5367 88.7163 14.7093 88.8027 14.9147 88.868C15.1247 88.9333 15.3323 88.966 15.5377 88.966C15.7943 88.966 16.009 88.924 16.1817 88.84C16.3543 88.756 16.485 88.6323 16.5737 88.469C16.6623 88.3057 16.7067 88.1027 16.7067 87.86V87.153L16.7837 87.202C16.7603 87.3467 16.6833 87.4867 16.5527 87.622C16.4267 87.7527 16.268 87.86 16.0767 87.944C15.8853 88.028 15.6893 88.07 15.4887 88.07C15.1387 88.07 14.826 87.9883 14.5507 87.825C14.28 87.657 14.0653 87.4307 13.9067 87.146C13.748 86.8567 13.6687 86.5277 13.6687 86.159C13.6687 85.7903 13.7457 85.4637 13.8997 85.179C14.0583 84.8897 14.273 84.6633 14.5437 84.5C14.819 84.332 15.127 84.248 15.4677 84.248C15.6077 84.248 15.743 84.2667 15.8737 84.304C16.0043 84.3367 16.1257 84.3857 16.2377 84.451C16.3497 84.5117 16.45 84.5793 16.5387 84.654C16.6273 84.7287 16.6997 84.808 16.7557 84.892C16.8117 84.976 16.8467 85.0553 16.8607 85.13L16.7067 85.186V84.325H17.4277V87.776C17.4277 88.07 17.3833 88.329 17.2947 88.553C17.2107 88.7817 17.087 88.973 16.9237 89.127C16.7603 89.2857 16.562 89.4047 16.3287 89.484C16.0953 89.568 15.8317 89.61 15.5377 89.61ZM15.5657 87.405C15.7943 87.405 15.9973 87.3513 16.1747 87.244C16.352 87.1367 16.4897 86.9897 16.5877 86.803C16.6857 86.6163 16.7347 86.4017 16.7347 86.159C16.7347 85.9163 16.6833 85.7017 16.5807 85.515C16.4827 85.3237 16.345 85.1743 16.1677 85.067C15.995 84.9597 15.7943 84.906 15.5657 84.906C15.3417 84.906 15.141 84.962 14.9637 85.074C14.791 85.1813 14.6533 85.3307 14.5507 85.522C14.4527 85.7087 14.4037 85.921 14.4037 86.159C14.4037 86.397 14.4527 86.6117 14.5507 86.803C14.6533 86.9897 14.791 87.1367 14.9637 87.244C15.141 87.3513 15.3417 87.405 15.5657 87.405ZM18.4386 88V84.325H19.1666V85.48L19.0966 85.2C19.1479 85.0227 19.2342 84.8617 19.3556 84.717C19.4816 84.5723 19.6239 84.458 19.7826 84.374C19.9459 84.29 20.1139 84.248 20.2866 84.248C20.3659 84.248 20.4406 84.255 20.5106 84.269C20.5852 84.283 20.6436 84.2993 20.6856 84.318L20.4966 85.102C20.4406 85.0787 20.3776 85.06 20.3076 85.046C20.2422 85.0273 20.1769 85.018 20.1116 85.018C19.9856 85.018 19.8642 85.0437 19.7476 85.095C19.6356 85.1417 19.5352 85.2093 19.4466 85.298C19.3626 85.382 19.2949 85.4823 19.2436 85.599C19.1922 85.711 19.1666 85.8347 19.1666 85.97V88H18.4386ZM23.2816 88V85.606C23.2816 85.4007 23.2069 85.235 23.0576 85.109C22.9129 84.9783 22.7286 84.913 22.5046 84.913C22.2993 84.913 22.1126 84.955 21.9446 85.039C21.7813 85.123 21.6319 85.2513 21.4966 85.424L21.0276 84.955C21.2469 84.717 21.4826 84.5397 21.7346 84.423C21.9913 84.3063 22.2666 84.248 22.5606 84.248C22.8406 84.248 23.0833 84.2947 23.2886 84.388C23.4939 84.4813 23.6526 84.619 23.7646 84.801C23.8766 84.9783 23.9326 85.1953 23.9326 85.452V88H23.2816ZM22.1826 88.07C21.9446 88.07 21.7323 88.0233 21.5456 87.93C21.3589 87.8367 21.2096 87.7083 21.0976 87.545C20.9903 87.377 20.9366 87.181 20.9366 86.957C20.9366 86.761 20.9716 86.5883 21.0416 86.439C21.1116 86.2897 21.2143 86.166 21.3496 86.068C21.4896 85.97 21.6623 85.8953 21.8676 85.844C22.0776 85.7927 22.3179 85.767 22.5886 85.767H23.6106L23.5476 86.341H22.4976C22.3576 86.341 22.2316 86.355 22.1196 86.383C22.0123 86.4063 21.9189 86.446 21.8396 86.502C21.7649 86.5533 21.7089 86.6163 21.6716 86.691C21.6343 86.761 21.6156 86.845 21.6156 86.943C21.6156 87.0457 21.6413 87.1367 21.6926 87.216C21.7439 87.2907 21.8139 87.349 21.9026 87.391C21.9913 87.433 22.0939 87.454 22.2106 87.454C22.3786 87.454 22.5373 87.426 22.6866 87.37C22.8406 87.3093 22.9759 87.2277 23.0926 87.125C23.2139 87.0223 23.3073 86.908 23.3726 86.782L23.5406 87.251C23.4426 87.4143 23.3213 87.5567 23.1766 87.678C23.0319 87.7993 22.8756 87.895 22.7076 87.965C22.5396 88.035 22.3646 88.07 22.1826 88.07ZM24.8298 88V84.325H25.5578V85.109L25.4248 85.193C25.4622 85.0717 25.5205 84.955 25.5998 84.843C25.6838 84.731 25.7842 84.633 25.9008 84.549C26.0222 84.4603 26.1505 84.3903 26.2858 84.339C26.4258 84.2877 26.5682 84.262 26.7128 84.262C26.9228 84.262 27.1072 84.297 27.2658 84.367C27.4245 84.437 27.5552 84.542 27.6578 84.682C27.7605 84.822 27.8352 84.997 27.8818 85.207L27.7698 85.179L27.8188 85.06C27.8702 84.9527 27.9402 84.8523 28.0288 84.759C28.1222 84.661 28.2272 84.5747 28.3438 84.5C28.4605 84.4253 28.5842 84.367 28.7148 84.325C28.8455 84.283 28.9738 84.262 29.0998 84.262C29.3752 84.262 29.6015 84.318 29.7788 84.43C29.9608 84.542 30.0962 84.7123 30.1848 84.941C30.2782 85.1697 30.3248 85.4543 30.3248 85.795V88H29.5968V85.837C29.5968 85.5243 29.5362 85.2957 29.4148 85.151C29.2982 85.0017 29.1138 84.927 28.8618 84.927C28.7312 84.927 28.6075 84.9503 28.4908 84.997C28.3788 85.039 28.2808 85.0997 28.1968 85.179C28.1128 85.2583 28.0475 85.3517 28.0008 85.459C27.9542 85.5617 27.9308 85.676 27.9308 85.802V88H27.2028V85.823C27.2028 85.5337 27.1398 85.312 27.0138 85.158C26.8925 85.004 26.7152 84.927 26.4818 84.927C26.3512 84.927 26.2298 84.9503 26.1178 84.997C26.0058 85.039 25.9078 85.0997 25.8238 85.179C25.7398 85.2537 25.6745 85.3447 25.6278 85.452C25.5812 85.5547 25.5578 85.6667 25.5578 85.788V88H24.8298ZM32.1371 86.523L31.9551 85.536C32.1885 85.4753 32.3891 85.4077 32.5571 85.333C32.7298 85.2583 32.8721 85.1767 32.9841 85.088C33.0961 84.9947 33.1778 84.8943 33.2291 84.787C33.2851 84.675 33.3131 84.5537 33.3131 84.423C33.3131 84.283 33.2828 84.1617 33.2221 84.059C33.1661 83.9517 33.0821 83.8677 32.9701 83.807C32.8581 83.7463 32.7181 83.716 32.5501 83.716C32.3961 83.716 32.2515 83.744 32.1161 83.8C31.9808 83.856 31.8548 83.9377 31.7381 84.045C31.6261 84.1523 31.5211 84.2807 31.4231 84.43L30.9401 84.01C31.0755 83.8047 31.2271 83.6297 31.3951 83.485C31.5678 83.3403 31.7545 83.2307 31.9551 83.156C32.1605 83.0767 32.3775 83.037 32.6061 83.037C32.9095 83.037 33.1708 83.0953 33.3901 83.212C33.6095 83.324 33.7798 83.4803 33.9011 83.681C34.0225 83.8817 34.0831 84.1103 34.0831 84.367C34.0831 84.591 34.0271 84.8033 33.9151 85.004C33.8031 85.2047 33.6491 85.382 33.4531 85.536C33.2618 85.6853 33.0425 85.8043 32.7951 85.893L32.6761 86.523H32.1371ZM31.8921 87.552C31.8921 87.398 31.9365 87.272 32.0251 87.174C32.1138 87.076 32.2305 87.027 32.3751 87.027C32.5291 87.027 32.6481 87.0737 32.7321 87.167C32.8161 87.2557 32.8581 87.384 32.8581 87.552C32.8581 87.706 32.8138 87.832 32.7251 87.93C32.6365 88.028 32.5198 88.077 32.3751 88.077C32.2211 88.077 32.1021 88.0327 32.0181 87.944C31.9341 87.8507 31.8921 87.72 31.8921 87.552ZM34.7673 84.675L34.5013 84.353C34.6833 84.269 34.8327 84.1733 34.9493 84.066C35.066 83.9587 35.1243 83.8653 35.1243 83.786C35.1243 83.7253 35.0987 83.6717 35.0473 83.625C34.996 83.5737 34.9493 83.5317 34.9073 83.499C34.8047 83.415 34.7347 83.345 34.6973 83.289C34.6647 83.233 34.6483 83.1747 34.6483 83.114C34.6483 83.002 34.688 82.9133 34.7673 82.848C34.8467 82.778 34.9493 82.743 35.0753 82.743C35.206 82.743 35.3227 82.778 35.4253 82.848C35.5327 82.9133 35.6167 83.0043 35.6773 83.121C35.738 83.2377 35.7683 83.3753 35.7683 83.534C35.7683 83.6553 35.7427 83.7743 35.6913 83.891C35.64 84.0077 35.5677 84.1173 35.4743 84.22C35.3857 84.3227 35.2807 84.4137 35.1593 84.493C35.038 84.5723 34.9073 84.633 34.7673 84.675ZM36.1953 84.675L35.9293 84.353C36.1113 84.269 36.2607 84.1733 36.3773 84.066C36.494 83.9587 36.5523 83.8653 36.5523 83.786C36.5523 83.7253 36.5267 83.6717 36.4753 83.625C36.424 83.5737 36.3773 83.5317 36.3353 83.499C36.2327 83.415 36.1627 83.345 36.1253 83.289C36.0927 83.233 36.0763 83.1747 36.0763 83.114C36.0763 83.002 36.116 82.9133 36.1953 82.848C36.2747 82.778 36.3773 82.743 36.5033 82.743C36.634 82.743 36.7507 82.778 36.8533 82.848C36.9607 82.9133 37.0447 83.0043 37.1053 83.121C37.166 83.2377 37.1963 83.3753 37.1963 83.534C37.1963 83.6553 37.1707 83.7743 37.1193 83.891C37.068 84.0077 36.9957 84.1173 36.9023 84.22C36.8137 84.3227 36.7087 84.4137 36.5873 84.493C36.466 84.5723 36.3353 84.633 36.1953 84.675Z" fill="black" fill-opacity="0.5"/>
<path d="M88.175 133L90.072 128.1H90.842L92.725 133H91.92L90.8 130.046C90.786 130.013 90.758 129.934 90.716 129.808C90.6787 129.682 90.6343 129.542 90.583 129.388C90.5317 129.234 90.485 129.094 90.443 128.968C90.401 128.837 90.373 128.753 90.359 128.716L90.52 128.709C90.492 128.788 90.457 128.889 90.415 129.01C90.3777 129.131 90.3357 129.26 90.289 129.395C90.247 129.53 90.205 129.659 90.163 129.78C90.121 129.897 90.086 129.995 90.058 130.074L88.945 133H88.175ZM89.015 131.782L89.295 131.054H91.521L91.843 131.782H89.015ZM93.4054 133V129.325H94.1334V130.48L94.0634 130.2C94.1147 130.023 94.201 129.862 94.3224 129.717C94.4484 129.572 94.5907 129.458 94.7494 129.374C94.9127 129.29 95.0807 129.248 95.2534 129.248C95.3327 129.248 95.4074 129.255 95.4774 129.269C95.552 129.283 95.6104 129.299 95.6524 129.318L95.4634 130.102C95.4074 130.079 95.3444 130.06 95.2744 130.046C95.209 130.027 95.1437 130.018 95.0784 130.018C94.9524 130.018 94.831 130.044 94.7144 130.095C94.6024 130.142 94.502 130.209 94.4134 130.298C94.3294 130.382 94.2617 130.482 94.2104 130.599C94.159 130.711 94.1334 130.835 94.1334 130.97V133H93.4054ZM97.7711 134.61C97.5097 134.61 97.2484 134.568 96.9871 134.484C96.7304 134.405 96.5227 134.3 96.3641 134.169L96.6301 133.609C96.7701 133.716 96.9427 133.803 97.1481 133.868C97.3581 133.933 97.5657 133.966 97.7711 133.966C98.0277 133.966 98.2424 133.924 98.4151 133.84C98.5877 133.756 98.7184 133.632 98.8071 133.469C98.8957 133.306 98.9401 133.103 98.9401 132.86V132.153L99.0171 132.202C98.9937 132.347 98.9167 132.487 98.7861 132.622C98.6601 132.753 98.5014 132.86 98.3101 132.944C98.1187 133.028 97.9227 133.07 97.7221 133.07C97.3721 133.07 97.0594 132.988 96.7841 132.825C96.5134 132.657 96.2987 132.431 96.1401 132.146C95.9814 131.857 95.9021 131.528 95.9021 131.159C95.9021 130.79 95.9791 130.464 96.1331 130.179C96.2917 129.89 96.5064 129.663 96.7771 129.5C97.0524 129.332 97.3604 129.248 97.7011 129.248C97.8411 129.248 97.9764 129.267 98.1071 129.304C98.2377 129.337 98.3591 129.386 98.4711 129.451C98.5831 129.512 98.6834 129.579 98.7721 129.654C98.8607 129.729 98.9331 129.808 98.9891 129.892C99.0451 129.976 99.0801 130.055 99.0941 130.13L98.9401 130.186V129.325H99.6611V132.776C99.6611 133.07 99.6167 133.329 99.5281 133.553C99.4441 133.782 99.3204 133.973 99.1571 134.127C98.9937 134.286 98.7954 134.405 98.5621 134.484C98.3287 134.568 98.0651 134.61 97.7711 134.61ZM97.7991 132.405C98.0277 132.405 98.2307 132.351 98.4081 132.244C98.5854 132.137 98.7231 131.99 98.8211 131.803C98.9191 131.616 98.9681 131.402 98.9681 131.159C98.9681 130.916 98.9167 130.702 98.8141 130.515C98.7161 130.324 98.5784 130.174 98.4011 130.067C98.2284 129.96 98.0277 129.906 97.7991 129.906C97.5751 129.906 97.3744 129.962 97.1971 130.074C97.0244 130.181 96.8867 130.331 96.7841 130.522C96.6861 130.709 96.6371 130.921 96.6371 131.159C96.6371 131.397 96.6861 131.612 96.7841 131.803C96.8867 131.99 97.0244 132.137 97.1971 132.244C97.3744 132.351 97.5751 132.405 97.7991 132.405ZM101.829 133.07C101.521 133.07 101.243 133.016 100.996 132.909C100.748 132.802 100.543 132.643 100.38 132.433L100.87 132.013C101.01 132.176 101.161 132.295 101.325 132.37C101.493 132.44 101.682 132.475 101.892 132.475C101.976 132.475 102.053 132.466 102.123 132.447C102.197 132.424 102.26 132.391 102.312 132.349C102.368 132.307 102.41 132.258 102.438 132.202C102.466 132.141 102.48 132.076 102.48 132.006C102.48 131.885 102.435 131.787 102.347 131.712C102.3 131.679 102.225 131.644 102.123 131.607C102.025 131.565 101.896 131.523 101.738 131.481C101.467 131.411 101.245 131.332 101.073 131.243C100.9 131.154 100.767 131.054 100.674 130.942C100.604 130.853 100.552 130.758 100.52 130.655C100.487 130.548 100.471 130.431 100.471 130.305C100.471 130.1 100.529 129.918 100.646 129.759C100.762 129.6 100.919 129.477 101.115 129.388C101.315 129.295 101.539 129.248 101.787 129.248C101.959 129.248 102.13 129.271 102.298 129.318C102.47 129.365 102.629 129.432 102.774 129.521C102.918 129.61 103.04 129.715 103.138 129.836L102.725 130.291C102.636 130.202 102.538 130.125 102.431 130.06C102.328 129.99 102.223 129.936 102.116 129.899C102.008 129.862 101.91 129.843 101.822 129.843C101.724 129.843 101.635 129.852 101.556 129.871C101.476 129.89 101.409 129.918 101.353 129.955C101.301 129.992 101.262 130.039 101.234 130.095C101.206 130.151 101.192 130.214 101.192 130.284C101.196 130.345 101.21 130.403 101.234 130.459C101.262 130.51 101.299 130.555 101.346 130.592C101.397 130.629 101.474 130.669 101.577 130.711C101.679 130.753 101.81 130.793 101.969 130.83C102.202 130.891 102.393 130.958 102.543 131.033C102.697 131.103 102.818 131.185 102.907 131.278C103 131.367 103.065 131.469 103.103 131.586C103.14 131.703 103.159 131.833 103.159 131.978C103.159 132.188 103.098 132.377 102.977 132.545C102.86 132.708 102.701 132.837 102.501 132.93C102.3 133.023 102.076 133.07 101.829 133.07ZM104.247 133.07C104.093 133.07 103.974 133.026 103.89 132.937C103.806 132.844 103.764 132.713 103.764 132.545C103.764 132.391 103.809 132.265 103.897 132.167C103.986 132.069 104.103 132.02 104.247 132.02C104.401 132.02 104.52 132.067 104.604 132.16C104.688 132.249 104.73 132.377 104.73 132.545C104.73 132.699 104.686 132.825 104.597 132.923C104.509 133.021 104.392 133.07 104.247 133.07ZM104.247 130.305C104.093 130.305 103.974 130.261 103.89 130.172C103.806 130.079 103.764 129.948 103.764 129.78C103.764 129.626 103.809 129.5 103.897 129.402C103.986 129.304 104.103 129.255 104.247 129.255C104.401 129.255 104.52 129.302 104.604 129.395C104.688 129.484 104.73 129.612 104.73 129.78C104.73 129.934 104.686 130.06 104.597 130.158C104.509 130.256 104.392 130.305 104.247 130.305ZM107.802 133.077C107.648 133.077 107.529 133.033 107.445 132.944C107.361 132.851 107.319 132.72 107.319 132.552C107.319 132.398 107.363 132.272 107.452 132.174C107.541 132.076 107.657 132.027 107.802 132.027C107.956 132.027 108.075 132.074 108.159 132.167C108.243 132.256 108.285 132.384 108.285 132.552C108.285 132.706 108.241 132.832 108.152 132.93C108.063 133.028 107.947 133.077 107.802 133.077ZM109.395 133.077C109.241 133.077 109.122 133.033 109.038 132.944C108.954 132.851 108.912 132.72 108.912 132.552C108.912 132.398 108.956 132.272 109.045 132.174C109.133 132.076 109.25 132.027 109.395 132.027C109.549 132.027 109.668 132.074 109.752 132.167C109.836 132.256 109.878 132.384 109.878 132.552C109.878 132.706 109.833 132.832 109.745 132.93C109.656 133.028 109.539 133.077 109.395 133.077ZM110.987 133.077C110.833 133.077 110.714 133.033 110.63 132.944C110.546 132.851 110.504 132.72 110.504 132.552C110.504 132.398 110.549 132.272 110.637 132.174C110.726 132.076 110.843 132.027 110.987 132.027C111.141 132.027 111.26 132.074 111.344 132.167C111.428 132.256 111.47 132.384 111.47 132.552C111.47 132.706 111.426 132.832 111.337 132.93C111.249 133.028 111.132 133.077 110.987 133.077ZM88.686 142V137.1H90.772C91.052 137.1 91.3087 137.17 91.542 137.31C91.78 137.445 91.969 137.632 92.109 137.87C92.249 138.103 92.319 138.367 92.319 138.661C92.319 138.927 92.249 139.174 92.109 139.403C91.969 139.632 91.7823 139.816 91.549 139.956C91.3157 140.091 91.0567 140.159 90.772 140.159H89.442V142H88.686ZM91.598 142L90.352 139.788L91.129 139.613L92.515 142.007L91.598 142ZM89.442 139.431H90.842C90.9773 139.431 91.0987 139.398 91.206 139.333C91.3133 139.263 91.3973 139.17 91.458 139.053C91.5187 138.932 91.549 138.799 91.549 138.654C91.549 138.491 91.5093 138.348 91.43 138.227C91.3553 138.101 91.248 138.003 91.108 137.933C90.9727 137.863 90.8187 137.828 90.646 137.828H89.442V139.431ZM94.9495 142.07C94.5715 142.07 94.2355 141.991 93.9415 141.832C93.6521 141.669 93.4235 141.447 93.2555 141.167C93.0921 140.887 93.0105 140.565 93.0105 140.201C93.0105 139.912 93.0571 139.648 93.1505 139.41C93.2438 139.172 93.3721 138.967 93.5355 138.794C93.7035 138.617 93.9018 138.481 94.1305 138.388C94.3638 138.29 94.6158 138.241 94.8865 138.241C95.1245 138.241 95.3461 138.288 95.5515 138.381C95.7568 138.47 95.9341 138.593 96.0835 138.752C96.2375 138.911 96.3541 139.1 96.4335 139.319C96.5175 139.534 96.5571 139.769 96.5525 140.026L96.5455 140.334H93.5425L93.3815 139.76H95.9225L95.8175 139.879V139.711C95.8035 139.557 95.7521 139.419 95.6635 139.298C95.5748 139.177 95.4628 139.081 95.3275 139.011C95.1921 138.941 95.0451 138.906 94.8865 138.906C94.6345 138.906 94.4221 138.955 94.2495 139.053C94.0768 139.146 93.9461 139.286 93.8575 139.473C93.7688 139.655 93.7245 139.881 93.7245 140.152C93.7245 140.409 93.7781 140.633 93.8855 140.824C93.9928 141.011 94.1445 141.155 94.3405 141.258C94.5365 141.361 94.7628 141.412 95.0195 141.412C95.2015 141.412 95.3695 141.382 95.5235 141.321C95.6821 141.26 95.8525 141.151 96.0345 140.992L96.3985 141.503C96.2865 141.615 96.1488 141.713 95.9855 141.797C95.8268 141.881 95.6565 141.949 95.4745 142C95.2971 142.047 95.1221 142.07 94.9495 142.07ZM98.561 142.07C98.253 142.07 97.9754 142.016 97.728 141.909C97.4807 141.802 97.2754 141.643 97.112 141.433L97.602 141.013C97.742 141.176 97.8937 141.295 98.057 141.37C98.225 141.44 98.414 141.475 98.624 141.475C98.708 141.475 98.785 141.466 98.855 141.447C98.9297 141.424 98.9927 141.391 99.044 141.349C99.1 141.307 99.142 141.258 99.17 141.202C99.198 141.141 99.212 141.076 99.212 141.006C99.212 140.885 99.1677 140.787 99.079 140.712C99.0324 140.679 98.9577 140.644 98.855 140.607C98.757 140.565 98.6287 140.523 98.47 140.481C98.1994 140.411 97.9777 140.332 97.805 140.243C97.6324 140.154 97.4994 140.054 97.406 139.942C97.336 139.853 97.2847 139.758 97.252 139.655C97.2194 139.548 97.203 139.431 97.203 139.305C97.203 139.1 97.2614 138.918 97.378 138.759C97.4947 138.6 97.651 138.477 97.847 138.388C98.0477 138.295 98.2717 138.248 98.519 138.248C98.6917 138.248 98.862 138.271 99.03 138.318C99.2027 138.365 99.3614 138.432 99.506 138.521C99.6507 138.61 99.772 138.715 99.87 138.836L99.457 139.291C99.3684 139.202 99.2704 139.125 99.163 139.06C99.0604 138.99 98.9554 138.936 98.848 138.899C98.7407 138.862 98.6427 138.843 98.554 138.843C98.456 138.843 98.3674 138.852 98.288 138.871C98.2087 138.89 98.141 138.918 98.085 138.955C98.0337 138.992 97.994 139.039 97.966 139.095C97.938 139.151 97.924 139.214 97.924 139.284C97.9287 139.345 97.9427 139.403 97.966 139.459C97.994 139.51 98.0314 139.555 98.078 139.592C98.1294 139.629 98.2064 139.669 98.309 139.711C98.4117 139.753 98.5424 139.793 98.701 139.83C98.9344 139.891 99.1257 139.958 99.275 140.033C99.429 140.103 99.5504 140.185 99.639 140.278C99.7324 140.367 99.7977 140.469 99.835 140.586C99.8724 140.703 99.891 140.833 99.891 140.978C99.891 141.188 99.8304 141.377 99.709 141.545C99.5924 141.708 99.4337 141.837 99.233 141.93C99.0324 142.023 98.8084 142.07 98.561 142.07ZM101.974 142.07C101.712 142.07 101.484 142.009 101.288 141.888C101.096 141.767 100.947 141.596 100.84 141.377C100.737 141.158 100.686 140.896 100.686 140.593V138.325H101.407V140.397C101.407 140.719 101.481 140.973 101.631 141.16C101.785 141.347 101.997 141.44 102.268 141.44C102.403 141.44 102.527 141.419 102.639 141.377C102.751 141.33 102.846 141.267 102.926 141.188C103.01 141.109 103.075 141.013 103.122 140.901C103.168 140.789 103.192 140.668 103.192 140.537V138.325H103.913V142H103.192V141.23L103.318 141.146C103.262 141.319 103.166 141.475 103.031 141.615C102.9 141.755 102.744 141.867 102.562 141.951C102.38 142.03 102.184 142.07 101.974 142.07ZM104.938 142V136.82H105.659V142H104.938ZM107.115 142V137.387H107.836V142H107.115ZM106.352 139.025V138.325H108.69V139.025H106.352ZM109.641 142.07C109.487 142.07 109.368 142.026 109.284 141.937C109.2 141.844 109.158 141.713 109.158 141.545C109.158 141.391 109.202 141.265 109.291 141.167C109.379 141.069 109.496 141.02 109.641 141.02C109.795 141.02 109.914 141.067 109.998 141.16C110.082 141.249 110.124 141.377 110.124 141.545C110.124 141.699 110.079 141.825 109.991 141.923C109.902 142.021 109.785 142.07 109.641 142.07ZM109.641 139.305C109.487 139.305 109.368 139.261 109.284 139.172C109.2 139.079 109.158 138.948 109.158 138.78C109.158 138.626 109.202 138.5 109.291 138.402C109.379 138.304 109.496 138.255 109.641 138.255C109.795 138.255 109.914 138.302 109.998 138.395C110.082 138.484 110.124 138.612 110.124 138.78C110.124 138.934 110.079 139.06 109.991 139.158C109.902 139.256 109.785 139.305 109.641 139.305ZM113.195 142.077C113.041 142.077 112.922 142.033 112.838 141.944C112.754 141.851 112.712 141.72 112.712 141.552C112.712 141.398 112.757 141.272 112.845 141.174C112.934 141.076 113.051 141.027 113.195 141.027C113.349 141.027 113.468 141.074 113.552 141.167C113.636 141.256 113.678 141.384 113.678 141.552C113.678 141.706 113.634 141.832 113.545 141.93C113.457 142.028 113.34 142.077 113.195 142.077ZM114.788 142.077C114.634 142.077 114.515 142.033 114.431 141.944C114.347 141.851 114.305 141.72 114.305 141.552C114.305 141.398 114.35 141.272 114.438 141.174C114.527 141.076 114.644 141.027 114.788 141.027C114.942 141.027 115.061 141.074 115.145 141.167C115.229 141.256 115.271 141.384 115.271 141.552C115.271 141.706 115.227 141.832 115.138 141.93C115.05 142.028 114.933 142.077 114.788 142.077ZM116.381 142.077C116.227 142.077 116.108 142.033 116.024 141.944C115.94 141.851 115.898 141.72 115.898 141.552C115.898 141.398 115.942 141.272 116.031 141.174C116.12 141.076 116.236 141.027 116.381 141.027C116.535 141.027 116.654 141.074 116.738 141.167C116.822 141.256 116.864 141.384 116.864 141.552C116.864 141.706 116.82 141.832 116.731 141.93C116.642 142.028 116.526 142.077 116.381 142.077Z" fill="black" fill-opacity="0.5"/>
</svg>
