<svg width="200" height="150" viewBox="0 0 200 150" fill="none" xmlns="http://www.w3.org/2000/svg">
<rect width="200" height="150" fill="#EEEEEE"/>
<path d="M72.2112 115V106.6H77.5032V107.848H73.5072V113.752H77.5032V115H72.2112ZM72.7992 111.316V110.068H76.8432V111.316H72.7992ZM83.4583 115L81.4183 112.348L81.2383 112.12L78.5863 108.7H80.1463L82.1503 111.316L82.3543 111.58L84.9703 115H83.4583ZM78.5983 115L81.0823 111.76L81.8143 112.636L80.0623 115H78.5983ZM82.4263 111.952L81.7423 111.088L83.2903 108.7H84.7543L82.4263 111.952ZM88.5853 115.12C87.9373 115.12 87.3613 114.984 86.8573 114.712C86.3613 114.432 85.9693 114.052 85.6813 113.572C85.4013 113.092 85.2613 112.54 85.2613 111.916C85.2613 111.42 85.3413 110.968 85.5013 110.56C85.6613 110.152 85.8813 109.8 86.1613 109.504C86.4493 109.2 86.7893 108.968 87.1813 108.808C87.5813 108.64 88.0133 108.556 88.4773 108.556C88.8853 108.556 89.2653 108.636 89.6173 108.796C89.9693 108.948 90.2733 109.16 90.5293 109.432C90.7933 109.704 90.9933 110.028 91.1293 110.404C91.2733 110.772 91.3413 111.176 91.3333 111.616L91.3213 112.144H86.1733L85.8973 111.16H90.2533L90.0733 111.364V111.076C90.0493 110.812 89.9613 110.576 89.8093 110.368C89.6573 110.16 89.4653 109.996 89.2333 109.876C89.0013 109.756 88.7493 109.696 88.4773 109.696C88.0453 109.696 87.6813 109.78 87.3853 109.948C87.0893 110.108 86.8653 110.348 86.7133 110.668C86.5613 110.98 86.4853 111.368 86.4853 111.832C86.4853 112.272 86.5773 112.656 86.7613 112.984C86.9453 113.304 87.2053 113.552 87.5413 113.728C87.8773 113.904 88.2653 113.992 88.7053 113.992C89.0173 113.992 89.3053 113.94 89.5693 113.836C89.8413 113.732 90.1333 113.544 90.4453 113.272L91.0693 114.148C90.8773 114.34 90.6413 114.508 90.3613 114.652C90.0893 114.796 89.7973 114.912 89.4853 115C89.1813 115.08 88.8813 115.12 88.5853 115.12ZM95.3525 115.12C94.7685 115.12 94.2445 114.976 93.7805 114.688C93.3245 114.4 92.9605 114.008 92.6885 113.512C92.4245 113.016 92.2925 112.46 92.2925 111.844C92.2925 111.228 92.4245 110.672 92.6885 110.176C92.9605 109.68 93.3245 109.288 93.7805 109C94.2445 108.712 94.7685 108.568 95.3525 108.568C95.9125 108.568 96.4205 108.684 96.8765 108.916C97.3405 109.14 97.6925 109.448 97.9325 109.84L97.2485 110.68C97.1205 110.496 96.9565 110.328 96.7565 110.176C96.5565 110.024 96.3445 109.904 96.1205 109.816C95.8965 109.728 95.6805 109.684 95.4725 109.684C95.0885 109.684 94.7445 109.78 94.4405 109.972C94.1445 110.156 93.9085 110.412 93.7325 110.74C93.5565 111.068 93.4685 111.436 93.4685 111.844C93.4685 112.252 93.5605 112.62 93.7445 112.948C93.9285 113.268 94.1725 113.524 94.4765 113.716C94.7805 113.908 95.1165 114.004 95.4845 114.004C95.7005 114.004 95.9085 113.968 96.1085 113.896C96.3165 113.824 96.5165 113.716 96.7085 113.572C96.9005 113.428 97.0805 113.252 97.2485 113.044L97.9325 113.884C97.6765 114.244 97.3085 114.54 96.8285 114.772C96.3565 115.004 95.8645 115.12 95.3525 115.12ZM101.306 115.12C100.858 115.12 100.466 115.016 100.13 114.808C99.8024 114.6 99.5464 114.308 99.3624 113.932C99.1864 113.556 99.0984 113.108 99.0984 112.588V108.7H100.334V112.252C100.334 112.804 100.462 113.24 100.718 113.56C100.982 113.88 101.346 114.04 101.81 114.04C102.042 114.04 102.254 114.004 102.446 113.932C102.638 113.852 102.802 113.744 102.938 113.608C103.082 113.472 103.194 113.308 103.274 113.116C103.354 112.924 103.394 112.716 103.394 112.492V108.7H104.63V115H103.394V113.68L103.61 113.536C103.514 113.832 103.35 114.1 103.118 114.34C102.894 114.58 102.626 114.772 102.314 114.916C102.002 115.052 101.666 115.12 101.306 115.12ZM107.144 115V107.092H108.38V115H107.144ZM105.836 109.9V108.7H109.844V109.9H105.836ZM111.173 115V108.7H112.409V115H111.173ZM111.773 107.308C111.509 107.308 111.305 107.24 111.161 107.104C111.017 106.968 110.945 106.776 110.945 106.528C110.945 106.296 111.017 106.108 111.161 105.964C111.313 105.82 111.517 105.748 111.773 105.748C112.037 105.748 112.241 105.816 112.385 105.952C112.529 106.088 112.601 106.28 112.601 106.528C112.601 106.76 112.525 106.948 112.373 107.092C112.229 107.236 112.029 107.308 111.773 107.308ZM117.141 115.12C116.525 115.12 115.973 114.98 115.485 114.7C115.005 114.412 114.625 114.024 114.345 113.536C114.065 113.04 113.925 112.476 113.925 111.844C113.925 111.212 114.065 110.652 114.345 110.164C114.625 109.668 115.005 109.28 115.485 109C115.973 108.712 116.525 108.568 117.141 108.568C117.749 108.568 118.293 108.712 118.773 109C119.261 109.28 119.645 109.668 119.925 110.164C120.205 110.652 120.345 111.212 120.345 111.844C120.345 112.476 120.205 113.04 119.925 113.536C119.645 114.024 119.261 114.412 118.773 114.7C118.293 114.98 117.749 115.12 117.141 115.12ZM117.141 113.992C117.517 113.992 117.853 113.9 118.149 113.716C118.445 113.524 118.677 113.268 118.845 112.948C119.013 112.62 119.093 112.252 119.085 111.844C119.093 111.428 119.013 111.06 118.845 110.74C118.677 110.412 118.445 110.156 118.149 109.972C117.853 109.788 117.517 109.696 117.141 109.696C116.765 109.696 116.425 109.792 116.121 109.984C115.825 110.168 115.593 110.424 115.425 110.752C115.257 111.072 115.177 111.436 115.185 111.844C115.177 112.252 115.257 112.62 115.425 112.948C115.593 113.268 115.825 113.524 116.121 113.716C116.425 113.9 116.765 113.992 117.141 113.992ZM121.692 115V108.7H122.928V109.996L122.712 110.14C122.792 109.86 122.948 109.604 123.18 109.372C123.412 109.132 123.688 108.94 124.008 108.796C124.328 108.644 124.656 108.568 124.992 108.568C125.472 108.568 125.872 108.664 126.192 108.856C126.512 109.04 126.752 109.324 126.912 109.708C127.072 110.092 127.152 110.576 127.152 111.16V115H125.916V111.244C125.916 110.884 125.868 110.588 125.772 110.356C125.676 110.116 125.528 109.944 125.328 109.84C125.128 109.728 124.88 109.68 124.584 109.696C124.344 109.696 124.124 109.736 123.924 109.816C123.724 109.888 123.548 109.992 123.396 110.128C123.252 110.264 123.136 110.424 123.048 110.608C122.968 110.784 122.928 110.976 122.928 111.184V115H122.316C122.212 115 122.108 115 122.004 115C121.9 115 121.796 115 121.692 115ZM81.9106 130.12C81.2226 130.12 80.6146 129.984 80.0866 129.712C79.5666 129.44 79.1186 129.032 78.7426 128.488L79.6306 127.468C80.0226 128.028 80.3986 128.416 80.7586 128.632C81.1186 128.848 81.5466 128.956 82.0426 128.956C82.3466 128.956 82.6226 128.908 82.8706 128.812C83.1186 128.716 83.3146 128.584 83.4586 128.416C83.6026 128.248 83.6746 128.056 83.6746 127.84C83.6746 127.696 83.6506 127.56 83.6026 127.432C83.5546 127.304 83.4786 127.188 83.3746 127.084C83.2786 126.98 83.1506 126.884 82.9906 126.796C82.8386 126.708 82.6586 126.632 82.4506 126.568C82.2426 126.496 82.0026 126.436 81.7306 126.388C81.2986 126.3 80.9226 126.184 80.6026 126.04C80.2826 125.896 80.0146 125.716 79.7986 125.5C79.5826 125.284 79.4226 125.04 79.3186 124.768C79.2146 124.488 79.1626 124.176 79.1626 123.832C79.1626 123.376 79.2906 122.972 79.5466 122.62C79.8026 122.268 80.1466 121.992 80.5786 121.792C81.0186 121.584 81.5106 121.48 82.0546 121.48C82.7026 121.48 83.2666 121.608 83.7466 121.864C84.2346 122.112 84.6186 122.476 84.8986 122.956L83.9866 123.856C83.7466 123.464 83.4586 123.164 83.1226 122.956C82.7946 122.748 82.4266 122.644 82.0186 122.644C81.7066 122.644 81.4346 122.692 81.2026 122.788C80.9706 122.884 80.7866 123.02 80.6506 123.196C80.5226 123.364 80.4586 123.564 80.4586 123.796C80.4586 123.964 80.4906 124.12 80.5546 124.264C80.6186 124.4 80.7146 124.524 80.8426 124.636C80.9786 124.74 81.1586 124.836 81.3826 124.924C81.6066 125.004 81.8746 125.076 82.1866 125.14C82.6266 125.236 83.0186 125.36 83.3626 125.512C83.7066 125.656 83.9986 125.828 84.2386 126.028C84.4786 126.228 84.6586 126.452 84.7786 126.7C84.9066 126.948 84.9706 127.216 84.9706 127.504C84.9706 128.04 84.8466 128.504 84.5986 128.896C84.3506 129.288 83.9986 129.592 83.5426 129.808C83.0866 130.016 82.5426 130.12 81.9106 130.12ZM87.5509 132.76L88.8229 129.82L88.8349 130.804L85.6909 123.7H87.1309L89.0989 128.332C89.1389 128.412 89.1869 128.536 89.2429 128.704C89.2989 128.864 89.3469 129.024 89.3869 129.184L89.0749 129.256C89.1389 129.088 89.1989 128.92 89.2549 128.752C89.3189 128.584 89.3789 128.416 89.4349 128.248L91.0789 123.7H92.5429L89.9509 130L88.8829 132.76H87.5509ZM95.4503 130.12C94.9223 130.12 94.4463 130.028 94.0223 129.844C93.5983 129.66 93.2463 129.388 92.9663 129.028L93.8063 128.308C94.0463 128.588 94.3063 128.792 94.5863 128.92C94.8743 129.04 95.1983 129.1 95.5583 129.1C95.7023 129.1 95.8343 129.084 95.9543 129.052C96.0823 129.012 96.1903 128.956 96.2783 128.884C96.3743 128.812 96.4463 128.728 96.4943 128.632C96.5423 128.528 96.5663 128.416 96.5663 128.296C96.5663 128.088 96.4903 127.92 96.3383 127.792C96.2583 127.736 96.1303 127.676 95.9543 127.612C95.7863 127.54 95.5663 127.468 95.2943 127.396C94.8303 127.276 94.4503 127.14 94.1543 126.988C93.8583 126.836 93.6303 126.664 93.4703 126.472C93.3503 126.32 93.2623 126.156 93.2063 125.98C93.1503 125.796 93.1223 125.596 93.1223 125.38C93.1223 125.028 93.2223 124.716 93.4223 124.444C93.6223 124.172 93.8903 123.96 94.2263 123.808C94.5703 123.648 94.9543 123.568 95.3783 123.568C95.6743 123.568 95.9663 123.608 96.2543 123.688C96.5503 123.768 96.8223 123.884 97.0703 124.036C97.3183 124.188 97.5263 124.368 97.6943 124.576L96.9863 125.356C96.8343 125.204 96.6663 125.072 96.4823 124.96C96.3063 124.84 96.1263 124.748 95.9423 124.684C95.7583 124.62 95.5903 124.588 95.4383 124.588C95.2703 124.588 95.1183 124.604 94.9823 124.636C94.8463 124.668 94.7303 124.716 94.6343 124.78C94.5463 124.844 94.4783 124.924 94.4303 125.02C94.3823 125.116 94.3583 125.224 94.3583 125.344C94.3663 125.448 94.3903 125.548 94.4303 125.644C94.4783 125.732 94.5423 125.808 94.6223 125.872C94.7103 125.936 94.8423 126.004 95.0183 126.076C95.1943 126.148 95.4183 126.216 95.6903 126.28C96.0903 126.384 96.4183 126.5 96.6743 126.628C96.9383 126.748 97.1463 126.888 97.2983 127.048C97.4583 127.2 97.5703 127.376 97.6343 127.576C97.6983 127.776 97.7303 128 97.7303 128.248C97.7303 128.608 97.6263 128.932 97.4183 129.22C97.2183 129.5 96.9463 129.72 96.6023 129.88C96.2583 130.04 95.8743 130.12 95.4503 130.12ZM99.8725 130V122.092H101.109V130H99.8725ZM98.5645 124.9V123.7H102.573V124.9H98.5645ZM106.579 130.12C105.931 130.12 105.355 129.984 104.851 129.712C104.355 129.432 103.963 129.052 103.675 128.572C103.395 128.092 103.255 127.54 103.255 126.916C103.255 126.42 103.335 125.968 103.495 125.56C103.655 125.152 103.875 124.8 104.155 124.504C104.443 124.2 104.783 123.968 105.175 123.808C105.575 123.64 106.007 123.556 106.471 123.556C106.879 123.556 107.259 123.636 107.611 123.796C107.963 123.948 108.267 124.16 108.523 124.432C108.787 124.704 108.987 125.028 109.123 125.404C109.267 125.772 109.335 126.176 109.327 126.616L109.315 127.144H104.167L103.891 126.16H108.247L108.067 126.364V126.076C108.043 125.812 107.955 125.576 107.803 125.368C107.651 125.16 107.459 124.996 107.227 124.876C106.995 124.756 106.743 124.696 106.471 124.696C106.039 124.696 105.675 124.78 105.379 124.948C105.083 125.108 104.859 125.348 104.707 125.668C104.555 125.98 104.479 126.368 104.479 126.832C104.479 127.272 104.571 127.656 104.755 127.984C104.939 128.304 105.199 128.552 105.535 128.728C105.871 128.904 106.259 128.992 106.699 128.992C107.011 128.992 107.299 128.94 107.563 128.836C107.835 128.732 108.127 128.544 108.439 128.272L109.063 129.148C108.871 129.34 108.635 129.508 108.355 129.652C108.083 129.796 107.791 129.912 107.479 130C107.175 130.08 106.875 130.12 106.579 130.12ZM110.647 130V123.7H111.895V125.044L111.667 125.188C111.731 124.98 111.831 124.78 111.967 124.588C112.111 124.396 112.283 124.228 112.483 124.084C112.691 123.932 112.911 123.812 113.143 123.724C113.383 123.636 113.627 123.592 113.875 123.592C114.235 123.592 114.551 123.652 114.823 123.772C115.095 123.892 115.319 124.072 115.495 124.312C115.671 124.552 115.799 124.852 115.879 125.212L115.687 125.164L115.771 124.96C115.859 124.776 115.979 124.604 116.131 124.444C116.291 124.276 116.471 124.128 116.671 124C116.871 123.872 117.083 123.772 117.307 123.7C117.531 123.628 117.751 123.592 117.967 123.592C118.439 123.592 118.827 123.688 119.131 123.88C119.443 124.072 119.675 124.364 119.827 124.756C119.987 125.148 120.067 125.636 120.067 126.22V130H118.819V126.292C118.819 125.756 118.715 125.364 118.507 125.116C118.307 124.86 117.991 124.732 117.559 124.732C117.335 124.732 117.123 124.772 116.923 124.852C116.731 124.924 116.563 125.028 116.419 125.164C116.275 125.3 116.163 125.46 116.083 125.644C116.003 125.82 115.963 126.016 115.963 126.232V130H114.715V126.268C114.715 125.772 114.607 125.392 114.391 125.128C114.183 124.864 113.879 124.732 113.479 124.732C113.255 124.732 113.047 124.772 112.855 124.852C112.663 124.924 112.495 125.028 112.351 125.164C112.207 125.292 112.095 125.448 112.015 125.632C111.935 125.808 111.895 126 111.895 126.208V130H110.647Z" fill="black"/>
<rect x="50.5" y="101.5" width="98" height="34" stroke="black"/>
<path d="M89.3213 16.07C88.9807 16.07 88.675 15.986 88.4043 15.818C88.1383 15.65 87.926 15.4213 87.7673 15.132C87.6133 14.8427 87.5363 14.5183 87.5363 14.159C87.5363 13.7997 87.6133 13.4753 87.7673 13.186C87.926 12.8967 88.1383 12.668 88.4043 12.5C88.675 12.332 88.9807 12.248 89.3213 12.248C89.648 12.248 89.9443 12.3157 90.2103 12.451C90.481 12.5817 90.6863 12.7613 90.8263 12.99L90.4273 13.48C90.3527 13.3727 90.257 13.2747 90.1403 13.186C90.0237 13.0973 89.9 13.0273 89.7693 12.976C89.6387 12.9247 89.5127 12.899 89.3913 12.899C89.1673 12.899 88.9667 12.955 88.7893 13.067C88.6167 13.1743 88.479 13.3237 88.3763 13.515C88.2737 13.7063 88.2223 13.921 88.2223 14.159C88.2223 14.397 88.276 14.6117 88.3833 14.803C88.4907 14.9897 88.633 15.139 88.8103 15.251C88.9877 15.363 89.1837 15.419 89.3983 15.419C89.5243 15.419 89.6457 15.398 89.7623 15.356C89.8837 15.314 90.0003 15.251 90.1123 15.167C90.2243 15.083 90.3293 14.9803 90.4273 14.859L90.8263 15.349C90.677 15.559 90.4623 15.7317 90.1823 15.867C89.907 16.0023 89.62 16.07 89.3213 16.07ZM93.1584 16.07C92.7991 16.07 92.4771 15.9883 92.1924 15.825C91.9124 15.657 91.6908 15.4307 91.5274 15.146C91.3641 14.8567 91.2824 14.5277 91.2824 14.159C91.2824 13.7903 91.3641 13.4637 91.5274 13.179C91.6908 12.8897 91.9124 12.6633 92.1924 12.5C92.4771 12.332 92.7991 12.248 93.1584 12.248C93.5131 12.248 93.8304 12.332 94.1104 12.5C94.3951 12.6633 94.6191 12.8897 94.7824 13.179C94.9458 13.4637 95.0274 13.7903 95.0274 14.159C95.0274 14.5277 94.9458 14.8567 94.7824 15.146C94.6191 15.4307 94.3951 15.657 94.1104 15.825C93.8304 15.9883 93.5131 16.07 93.1584 16.07ZM93.1584 15.412C93.3778 15.412 93.5738 15.3583 93.7464 15.251C93.9191 15.139 94.0544 14.9897 94.1524 14.803C94.2504 14.6117 94.2971 14.397 94.2924 14.159C94.2971 13.9163 94.2504 13.7017 94.1524 13.515C94.0544 13.3237 93.9191 13.1743 93.7464 13.067C93.5738 12.9597 93.3778 12.906 93.1584 12.906C92.9391 12.906 92.7408 12.962 92.5634 13.074C92.3908 13.1813 92.2554 13.3307 92.1574 13.522C92.0594 13.7087 92.0128 13.921 92.0174 14.159C92.0128 14.397 92.0594 14.6117 92.1574 14.803C92.2554 14.9897 92.3908 15.139 92.5634 15.251C92.7408 15.3583 92.9391 15.412 93.1584 15.412ZM95.8131 17.54V12.325H96.5411V13.165L96.4291 13.102C96.4571 12.962 96.5364 12.829 96.6671 12.703C96.7977 12.5723 96.9564 12.4673 97.1431 12.388C97.3344 12.304 97.5304 12.262 97.7311 12.262C98.0624 12.262 98.3564 12.3437 98.6131 12.507C98.8697 12.6703 99.0727 12.8943 99.2221 13.179C99.3714 13.4637 99.4461 13.7903 99.4461 14.159C99.4461 14.523 99.3714 14.8497 99.2221 15.139C99.0774 15.4237 98.8767 15.65 98.6201 15.818C98.3634 15.9813 98.0741 16.063 97.7521 16.063C97.5374 16.063 97.3297 16.021 97.1291 15.937C96.9284 15.8483 96.7581 15.7363 96.6181 15.601C96.4781 15.4657 96.3917 15.3257 96.3591 15.181L96.5411 15.083V17.54H95.8131ZM97.6331 15.398C97.8477 15.398 98.0391 15.3443 98.2071 15.237C98.3751 15.1297 98.5081 14.9827 98.6061 14.796C98.7041 14.6093 98.7531 14.397 98.7531 14.159C98.7531 13.921 98.7041 13.711 98.6061 13.529C98.5127 13.3423 98.3821 13.1953 98.2141 13.088C98.0461 12.9807 97.8524 12.927 97.6331 12.927C97.4137 12.927 97.2201 12.9807 97.0521 13.088C96.8841 13.1907 96.7511 13.3353 96.6531 13.522C96.5551 13.7087 96.5061 13.921 96.5061 14.159C96.5061 14.397 96.5551 14.6093 96.6531 14.796C96.7511 14.9827 96.8841 15.1297 97.0521 15.237C97.2201 15.3443 97.4137 15.398 97.6331 15.398ZM101.517 16.07C101.256 16.07 101.027 16.0093 100.831 15.888C100.64 15.7667 100.49 15.5963 100.383 15.377C100.28 15.1577 100.229 14.8963 100.229 14.593V12.325H100.95V14.397C100.95 14.719 101.025 14.9733 101.174 15.16C101.328 15.3467 101.54 15.44 101.811 15.44C101.946 15.44 102.07 15.419 102.182 15.377C102.294 15.3303 102.39 15.2673 102.469 15.188C102.553 15.1087 102.618 15.013 102.665 14.901C102.712 14.789 102.735 14.6677 102.735 14.537V12.325H103.456V16H102.735V15.23L102.861 15.146C102.805 15.3187 102.709 15.475 102.574 15.615C102.443 15.755 102.287 15.867 102.105 15.951C101.923 16.0303 101.727 16.07 101.517 16.07ZM106.399 16.07C106.241 16.07 106.082 16.0443 105.923 15.993C105.769 15.9417 105.627 15.874 105.496 15.79C105.37 15.7013 105.263 15.6057 105.174 15.503C105.09 15.3957 105.034 15.2883 105.006 15.181L105.188 15.083V15.979H104.467V10.82H105.188V13.165L105.076 13.102C105.1 12.9947 105.151 12.892 105.23 12.794C105.31 12.6913 105.41 12.6003 105.531 12.521C105.657 12.437 105.793 12.3717 105.937 12.325C106.082 12.2737 106.229 12.248 106.378 12.248C106.71 12.248 107.004 12.3297 107.26 12.493C107.517 12.6563 107.72 12.8827 107.869 13.172C108.019 13.4567 108.093 13.7833 108.093 14.152C108.093 14.5207 108.019 14.8497 107.869 15.139C107.725 15.4283 107.524 15.657 107.267 15.825C107.011 15.9883 106.721 16.07 106.399 16.07ZM106.28 15.412C106.495 15.412 106.686 15.3583 106.854 15.251C107.022 15.139 107.155 14.9897 107.253 14.803C107.351 14.6117 107.4 14.3947 107.4 14.152C107.4 13.914 107.351 13.7017 107.253 13.515C107.16 13.3237 107.029 13.1743 106.861 13.067C106.693 12.9597 106.5 12.906 106.28 12.906C106.061 12.906 105.867 12.9597 105.699 13.067C105.531 13.1743 105.398 13.3237 105.3 13.515C105.202 13.7017 105.153 13.914 105.153 14.152C105.153 14.3947 105.202 14.6117 105.3 14.803C105.398 14.9897 105.531 15.139 105.699 15.251C105.867 15.3583 106.061 15.412 106.28 15.412ZM109.171 16.07C109.017 16.07 108.898 16.0257 108.814 15.937C108.73 15.8437 108.688 15.713 108.688 15.545C108.688 15.391 108.732 15.265 108.821 15.167C108.909 15.069 109.026 15.02 109.171 15.02C109.325 15.02 109.444 15.0667 109.528 15.16C109.612 15.2487 109.654 15.377 109.654 15.545C109.654 15.699 109.609 15.825 109.521 15.923C109.432 16.021 109.315 16.07 109.171 16.07ZM109.171 13.305C109.017 13.305 108.898 13.2607 108.814 13.172C108.73 13.0787 108.688 12.948 108.688 12.78C108.688 12.626 108.732 12.5 108.821 12.402C108.909 12.304 109.026 12.255 109.171 12.255C109.325 12.255 109.444 12.3017 109.528 12.395C109.612 12.4837 109.654 12.612 109.654 12.78C109.654 12.934 109.609 13.06 109.521 13.158C109.432 13.256 109.315 13.305 109.171 13.305ZM110.763 16.077C110.609 16.077 110.49 16.0327 110.406 15.944C110.322 15.8507 110.28 15.72 110.28 15.552C110.28 15.398 110.325 15.272 110.413 15.174C110.502 15.076 110.619 15.027 110.763 15.027C110.917 15.027 111.036 15.0737 111.12 15.167C111.204 15.2557 111.246 15.384 111.246 15.552C111.246 15.706 111.202 15.832 111.113 15.93C111.025 16.028 110.908 16.077 110.763 16.077ZM112.356 16.077C112.202 16.077 112.083 16.0327 111.999 15.944C111.915 15.8507 111.873 15.72 111.873 15.552C111.873 15.398 111.917 15.272 112.006 15.174C112.095 15.076 112.211 15.027 112.356 15.027C112.51 15.027 112.629 15.0737 112.713 15.167C112.797 15.2557 112.839 15.384 112.839 15.552C112.839 15.706 112.795 15.832 112.706 15.93C112.617 16.028 112.501 16.077 112.356 16.077ZM113.949 16.077C113.795 16.077 113.676 16.0327 113.592 15.944C113.508 15.8507 113.466 15.72 113.466 15.552C113.466 15.398 113.51 15.272 113.599 15.174C113.688 15.076 113.804 15.027 113.949 15.027C114.103 15.027 114.222 15.0737 114.306 15.167C114.39 15.2557 114.432 15.384 114.432 15.552C114.432 15.706 114.388 15.832 114.299 15.93C114.21 16.028 114.094 16.077 113.949 16.077Z" fill="black" fill-opacity="0.5"/>
<path d="M58.75 34.12C58.166 34.12 57.63 34.016 57.142 33.808C56.654 33.6 56.23 33.304 55.87 32.92C55.51 32.528 55.23 32.068 55.03 31.54C54.838 31.012 54.742 30.432 54.742 29.8C54.742 29.2 54.846 28.644 55.054 28.132C55.27 27.612 55.566 27.156 55.942 26.764C56.318 26.372 56.754 26.068 57.25 25.852C57.746 25.636 58.282 25.528 58.858 25.528C59.266 25.528 59.662 25.592 60.046 25.72C60.438 25.84 60.79 26.012 61.102 26.236C61.422 26.452 61.682 26.7 61.882 26.98L61.018 27.88C60.674 27.528 60.322 27.264 59.962 27.088C59.602 26.912 59.234 26.824 58.858 26.824C58.466 26.824 58.098 26.9 57.754 27.052C57.418 27.196 57.122 27.4 56.866 27.664C56.618 27.928 56.422 28.244 56.278 28.612C56.134 28.972 56.062 29.368 56.062 29.8C56.062 30.256 56.13 30.672 56.266 31.048C56.41 31.416 56.61 31.732 56.866 31.996C57.122 32.26 57.426 32.464 57.778 32.608C58.138 32.744 58.534 32.812 58.966 32.812C59.23 32.812 59.49 32.776 59.746 32.704C60.002 32.632 60.242 32.528 60.466 32.392C60.69 32.256 60.894 32.096 61.078 31.912L61.726 32.968C61.542 33.184 61.29 33.38 60.97 33.556C60.658 33.732 60.306 33.872 59.914 33.976C59.53 34.072 59.142 34.12 58.75 34.12ZM66.0065 34.12C65.3905 34.12 64.8385 33.98 64.3505 33.7C63.8705 33.412 63.4905 33.024 63.2105 32.536C62.9305 32.04 62.7905 31.476 62.7905 30.844C62.7905 30.212 62.9305 29.652 63.2105 29.164C63.4905 28.668 63.8705 28.28 64.3505 28C64.8385 27.712 65.3905 27.568 66.0065 27.568C66.6145 27.568 67.1585 27.712 67.6385 28C68.1265 28.28 68.5105 28.668 68.7905 29.164C69.0705 29.652 69.2105 30.212 69.2105 30.844C69.2105 31.476 69.0705 32.04 68.7905 32.536C68.5105 33.024 68.1265 33.412 67.6385 33.7C67.1585 33.98 66.6145 34.12 66.0065 34.12ZM66.0065 32.992C66.3825 32.992 66.7185 32.9 67.0145 32.716C67.3105 32.524 67.5425 32.268 67.7105 31.948C67.8785 31.62 67.9585 31.252 67.9505 30.844C67.9585 30.428 67.8785 30.06 67.7105 29.74C67.5425 29.412 67.3105 29.156 67.0145 28.972C66.7185 28.788 66.3825 28.696 66.0065 28.696C65.6305 28.696 65.2905 28.792 64.9865 28.984C64.6905 29.168 64.4585 29.424 64.2905 29.752C64.1225 30.072 64.0425 30.436 64.0505 30.844C64.0425 31.252 64.1225 31.62 64.2905 31.948C64.4585 32.268 64.6905 32.524 64.9865 32.716C65.2905 32.9 65.6305 32.992 66.0065 32.992ZM70.5334 34V27.7H71.7814V29.044L71.5534 29.188C71.6174 28.98 71.7174 28.78 71.8534 28.588C71.9974 28.396 72.1694 28.228 72.3694 28.084C72.5774 27.932 72.7974 27.812 73.0294 27.724C73.2694 27.636 73.5134 27.592 73.7614 27.592C74.1214 27.592 74.4374 27.652 74.7094 27.772C74.9814 27.892 75.2054 28.072 75.3814 28.312C75.5574 28.552 75.6854 28.852 75.7654 29.212L75.5734 29.164L75.6574 28.96C75.7454 28.776 75.8654 28.604 76.0174 28.444C76.1774 28.276 76.3574 28.128 76.5574 28C76.7574 27.872 76.9694 27.772 77.1934 27.7C77.4174 27.628 77.6374 27.592 77.8534 27.592C78.3254 27.592 78.7134 27.688 79.0174 27.88C79.3294 28.072 79.5614 28.364 79.7134 28.756C79.8734 29.148 79.9534 29.636 79.9534 30.22V34H78.7054V30.292C78.7054 29.756 78.6014 29.364 78.3934 29.116C78.1934 28.86 77.8774 28.732 77.4454 28.732C77.2214 28.732 77.0094 28.772 76.8094 28.852C76.6174 28.924 76.4494 29.028 76.3054 29.164C76.1614 29.3 76.0494 29.46 75.9694 29.644C75.8894 29.82 75.8494 30.016 75.8494 30.232V34H74.6014V30.268C74.6014 29.772 74.4934 29.392 74.2774 29.128C74.0694 28.864 73.7654 28.732 73.3654 28.732C73.1414 28.732 72.9334 28.772 72.7414 28.852C72.5494 28.924 72.3814 29.028 72.2374 29.164C72.0934 29.292 71.9814 29.448 71.9014 29.632C71.8214 29.808 71.7814 30 71.7814 30.208V34H70.5334ZM81.5841 34V27.7H82.8321V29.044L82.6041 29.188C82.6681 28.98 82.7681 28.78 82.9041 28.588C83.0481 28.396 83.2201 28.228 83.4201 28.084C83.6281 27.932 83.8481 27.812 84.0801 27.724C84.3201 27.636 84.5641 27.592 84.8121 27.592C85.1721 27.592 85.4881 27.652 85.7601 27.772C86.0321 27.892 86.2561 28.072 86.4321 28.312C86.6081 28.552 86.7361 28.852 86.8161 29.212L86.6241 29.164L86.7081 28.96C86.7961 28.776 86.9161 28.604 87.0681 28.444C87.2281 28.276 87.4081 28.128 87.6081 28C87.8081 27.872 88.0201 27.772 88.2441 27.7C88.4681 27.628 88.6881 27.592 88.9041 27.592C89.3761 27.592 89.7641 27.688 90.0681 27.88C90.3801 28.072 90.6121 28.364 90.7641 28.756C90.9241 29.148 91.0041 29.636 91.0041 30.22V34H89.7561V30.292C89.7561 29.756 89.6521 29.364 89.4441 29.116C89.2441 28.86 88.9281 28.732 88.4961 28.732C88.2721 28.732 88.0601 28.772 87.8601 28.852C87.6681 28.924 87.5001 29.028 87.3561 29.164C87.2121 29.3 87.1001 29.46 87.0201 29.644C86.9401 29.82 86.9001 30.016 86.9001 30.232V34H85.6521V30.268C85.6521 29.772 85.5441 29.392 85.3281 29.128C85.1201 28.864 84.8161 28.732 84.4161 28.732C84.1921 28.732 83.9841 28.772 83.7921 28.852C83.6001 28.924 83.4321 29.028 83.2881 29.164C83.1441 29.292 83.0321 29.448 82.9521 29.632C82.8721 29.808 82.8321 30 82.8321 30.208V34H81.5841ZM94.8669 34.12C94.4189 34.12 94.0269 34.016 93.6909 33.808C93.3629 33.6 93.1069 33.308 92.9229 32.932C92.7469 32.556 92.6589 32.108 92.6589 31.588V27.7H93.8949V31.252C93.8949 31.804 94.0229 32.24 94.2789 32.56C94.5429 32.88 94.9069 33.04 95.3709 33.04C95.6029 33.04 95.8149 33.004 96.0069 32.932C96.1989 32.852 96.3629 32.744 96.4989 32.608C96.6429 32.472 96.7549 32.308 96.8349 32.116C96.9149 31.924 96.9549 31.716 96.9549 31.492V27.7H98.1909V34H96.9549V32.68L97.1709 32.536C97.0749 32.832 96.9109 33.1 96.6789 33.34C96.4549 33.58 96.1869 33.772 95.8749 33.916C95.5629 34.052 95.2269 34.12 94.8669 34.12ZM99.9245 34V27.7H101.161V28.996L100.945 29.14C101.025 28.86 101.181 28.604 101.413 28.372C101.645 28.132 101.921 27.94 102.241 27.796C102.561 27.644 102.889 27.568 103.225 27.568C103.705 27.568 104.105 27.664 104.425 27.856C104.745 28.04 104.985 28.324 105.145 28.708C105.305 29.092 105.385 29.576 105.385 30.16V34H104.149V30.244C104.149 29.884 104.101 29.588 104.005 29.356C103.909 29.116 103.761 28.944 103.561 28.84C103.361 28.728 103.113 28.68 102.817 28.696C102.577 28.696 102.357 28.736 102.157 28.816C101.957 28.888 101.781 28.992 101.629 29.128C101.485 29.264 101.369 29.424 101.281 29.608C101.201 29.784 101.161 29.976 101.161 30.184V34H100.549C100.445 34 100.341 34 100.237 34C100.133 34 100.029 34 99.9245 34ZM107.265 34V27.7H108.501V34H107.265ZM107.865 26.308C107.601 26.308 107.397 26.24 107.253 26.104C107.109 25.968 107.037 25.776 107.037 25.528C107.037 25.296 107.109 25.108 107.253 24.964C107.405 24.82 107.609 24.748 107.865 24.748C108.129 24.748 108.333 24.816 108.477 24.952C108.621 25.088 108.693 25.28 108.693 25.528C108.693 25.76 108.617 25.948 108.465 26.092C108.321 26.236 108.121 26.308 107.865 26.308ZM113.077 34.12C112.493 34.12 111.969 33.976 111.505 33.688C111.049 33.4 110.685 33.008 110.413 32.512C110.149 32.016 110.017 31.46 110.017 30.844C110.017 30.228 110.149 29.672 110.413 29.176C110.685 28.68 111.049 28.288 111.505 28C111.969 27.712 112.493 27.568 113.077 27.568C113.637 27.568 114.145 27.684 114.601 27.916C115.065 28.14 115.417 28.448 115.657 28.84L114.973 29.68C114.845 29.496 114.681 29.328 114.481 29.176C114.281 29.024 114.069 28.904 113.845 28.816C113.621 28.728 113.405 28.684 113.197 28.684C112.813 28.684 112.469 28.78 112.165 28.972C111.869 29.156 111.633 29.412 111.457 29.74C111.281 30.068 111.193 30.436 111.193 30.844C111.193 31.252 111.285 31.62 111.469 31.948C111.653 32.268 111.897 32.524 112.201 32.716C112.505 32.908 112.841 33.004 113.209 33.004C113.425 33.004 113.633 32.968 113.833 32.896C114.041 32.824 114.241 32.716 114.433 32.572C114.625 32.428 114.805 32.252 114.973 32.044L115.657 32.884C115.401 33.244 115.033 33.54 114.553 33.772C114.081 34.004 113.589 34.12 113.077 34.12ZM120.555 34V29.896C120.555 29.544 120.427 29.26 120.171 29.044C119.923 28.82 119.607 28.708 119.223 28.708C118.871 28.708 118.551 28.78 118.263 28.924C117.983 29.068 117.727 29.288 117.495 29.584L116.691 28.78C117.067 28.372 117.471 28.068 117.903 27.868C118.343 27.668 118.815 27.568 119.319 27.568C119.799 27.568 120.215 27.648 120.567 27.808C120.919 27.968 121.191 28.204 121.383 28.516C121.575 28.82 121.671 29.192 121.671 29.632V34H120.555ZM118.671 34.12C118.263 34.12 117.899 34.04 117.579 33.88C117.259 33.72 117.003 33.5 116.811 33.22C116.627 32.932 116.535 32.596 116.535 32.212C116.535 31.876 116.595 31.58 116.715 31.324C116.835 31.068 117.011 30.856 117.243 30.688C117.483 30.52 117.779 30.392 118.131 30.304C118.491 30.216 118.903 30.172 119.367 30.172H121.119L121.011 31.156H119.211C118.971 31.156 118.755 31.18 118.563 31.228C118.379 31.268 118.219 31.336 118.083 31.432C117.955 31.52 117.859 31.628 117.795 31.756C117.731 31.876 117.699 32.02 117.699 32.188C117.699 32.364 117.743 32.52 117.831 32.656C117.919 32.784 118.039 32.884 118.191 32.956C118.343 33.028 118.519 33.064 118.719 33.064C119.007 33.064 119.279 33.016 119.535 32.92C119.799 32.816 120.031 32.676 120.231 32.5C120.439 32.324 120.599 32.128 120.711 31.912L120.999 32.716C120.831 32.996 120.623 33.24 120.375 33.448C120.127 33.656 119.859 33.82 119.571 33.94C119.283 34.06 118.983 34.12 118.671 34.12ZM124.013 34V26.092H125.249V34H124.013ZM122.705 28.9V27.7H126.713V28.9H122.705ZM128.043 34V27.7H129.279V34H128.043ZM128.643 26.308C128.379 26.308 128.175 26.24 128.031 26.104C127.887 25.968 127.815 25.776 127.815 25.528C127.815 25.296 127.887 25.108 128.031 24.964C128.183 24.82 128.387 24.748 128.643 24.748C128.907 24.748 129.111 24.816 129.255 24.952C129.399 25.088 129.471 25.28 129.471 25.528C129.471 25.76 129.395 25.948 129.243 26.092C129.099 26.236 128.899 26.308 128.643 26.308ZM134.01 34.12C133.394 34.12 132.842 33.98 132.354 33.7C131.874 33.412 131.494 33.024 131.214 32.536C130.934 32.04 130.794 31.476 130.794 30.844C130.794 30.212 130.934 29.652 131.214 29.164C131.494 28.668 131.874 28.28 132.354 28C132.842 27.712 133.394 27.568 134.01 27.568C134.618 27.568 135.162 27.712 135.642 28C136.13 28.28 136.514 28.668 136.794 29.164C137.074 29.652 137.214 30.212 137.214 30.844C137.214 31.476 137.074 32.04 136.794 32.536C136.514 33.024 136.13 33.412 135.642 33.7C135.162 33.98 134.618 34.12 134.01 34.12ZM134.01 32.992C134.386 32.992 134.722 32.9 135.018 32.716C135.314 32.524 135.546 32.268 135.714 31.948C135.882 31.62 135.962 31.252 135.954 30.844C135.962 30.428 135.882 30.06 135.714 29.74C135.546 29.412 135.314 29.156 135.018 28.972C134.722 28.788 134.386 28.696 134.01 28.696C133.634 28.696 133.294 28.792 132.99 28.984C132.694 29.168 132.462 29.424 132.294 29.752C132.126 30.072 132.046 30.436 132.054 30.844C132.046 31.252 132.126 31.62 132.294 31.948C132.462 32.268 132.694 32.524 132.99 32.716C133.294 32.9 133.634 32.992 134.01 32.992ZM138.561 34V27.7H139.797V28.996L139.581 29.14C139.661 28.86 139.817 28.604 140.049 28.372C140.281 28.132 140.557 27.94 140.877 27.796C141.197 27.644 141.525 27.568 141.861 27.568C142.341 27.568 142.741 27.664 143.061 27.856C143.381 28.04 143.621 28.324 143.781 28.708C143.941 29.092 144.021 29.576 144.021 30.16V34H142.785V30.244C142.785 29.884 142.737 29.588 142.641 29.356C142.545 29.116 142.397 28.944 142.197 28.84C141.997 28.728 141.749 28.68 141.453 28.696C141.213 28.696 140.993 28.736 140.793 28.816C140.593 28.888 140.417 28.992 140.265 29.128C140.121 29.264 140.005 29.424 139.917 29.608C139.837 29.784 139.797 29.976 139.797 30.184V34H139.185C139.081 34 138.977 34 138.873 34C138.769 34 138.665 34 138.561 34ZM81.9106 49.12C81.2226 49.12 80.6146 48.984 80.0866 48.712C79.5666 48.44 79.1186 48.032 78.7426 47.488L79.6306 46.468C80.0226 47.028 80.3986 47.416 80.7586 47.632C81.1186 47.848 81.5466 47.956 82.0426 47.956C82.3466 47.956 82.6226 47.908 82.8706 47.812C83.1186 47.716 83.3146 47.584 83.4586 47.416C83.6026 47.248 83.6746 47.056 83.6746 46.84C83.6746 46.696 83.6506 46.56 83.6026 46.432C83.5546 46.304 83.4786 46.188 83.3746 46.084C83.2786 45.98 83.1506 45.884 82.9906 45.796C82.8386 45.708 82.6586 45.632 82.4506 45.568C82.2426 45.496 82.0026 45.436 81.7306 45.388C81.2986 45.3 80.9226 45.184 80.6026 45.04C80.2826 44.896 80.0146 44.716 79.7986 44.5C79.5826 44.284 79.4226 44.04 79.3186 43.768C79.2146 43.488 79.1626 43.176 79.1626 42.832C79.1626 42.376 79.2906 41.972 79.5466 41.62C79.8026 41.268 80.1466 40.992 80.5786 40.792C81.0186 40.584 81.5106 40.48 82.0546 40.48C82.7026 40.48 83.2666 40.608 83.7466 40.864C84.2346 41.112 84.6186 41.476 84.8986 41.956L83.9866 42.856C83.7466 42.464 83.4586 42.164 83.1226 41.956C82.7946 41.748 82.4266 41.644 82.0186 41.644C81.7066 41.644 81.4346 41.692 81.2026 41.788C80.9706 41.884 80.7866 42.02 80.6506 42.196C80.5226 42.364 80.4586 42.564 80.4586 42.796C80.4586 42.964 80.4906 43.12 80.5546 43.264C80.6186 43.4 80.7146 43.524 80.8426 43.636C80.9786 43.74 81.1586 43.836 81.3826 43.924C81.6066 44.004 81.8746 44.076 82.1866 44.14C82.6266 44.236 83.0186 44.36 83.3626 44.512C83.7066 44.656 83.9986 44.828 84.2386 45.028C84.4786 45.228 84.6586 45.452 84.7786 45.7C84.9066 45.948 84.9706 46.216 84.9706 46.504C84.9706 47.04 84.8466 47.504 84.5986 47.896C84.3506 48.288 83.9986 48.592 83.5426 48.808C83.0866 49.016 82.5426 49.12 81.9106 49.12ZM87.5509 51.76L88.8229 48.82L88.8349 49.804L85.6909 42.7H87.1309L89.0989 47.332C89.1389 47.412 89.1869 47.536 89.2429 47.704C89.2989 47.864 89.3469 48.024 89.3869 48.184L89.0749 48.256C89.1389 48.088 89.1989 47.92 89.2549 47.752C89.3189 47.584 89.3789 47.416 89.4349 47.248L91.0789 42.7H92.5429L89.9509 49L88.8829 51.76H87.5509ZM95.4503 49.12C94.9223 49.12 94.4463 49.028 94.0223 48.844C93.5983 48.66 93.2463 48.388 92.9663 48.028L93.8063 47.308C94.0463 47.588 94.3063 47.792 94.5863 47.92C94.8743 48.04 95.1983 48.1 95.5583 48.1C95.7023 48.1 95.8343 48.084 95.9543 48.052C96.0823 48.012 96.1903 47.956 96.2783 47.884C96.3743 47.812 96.4463 47.728 96.4943 47.632C96.5423 47.528 96.5663 47.416 96.5663 47.296C96.5663 47.088 96.4903 46.92 96.3383 46.792C96.2583 46.736 96.1303 46.676 95.9543 46.612C95.7863 46.54 95.5663 46.468 95.2943 46.396C94.8303 46.276 94.4503 46.14 94.1543 45.988C93.8583 45.836 93.6303 45.664 93.4703 45.472C93.3503 45.32 93.2623 45.156 93.2063 44.98C93.1503 44.796 93.1223 44.596 93.1223 44.38C93.1223 44.028 93.2223 43.716 93.4223 43.444C93.6223 43.172 93.8903 42.96 94.2263 42.808C94.5703 42.648 94.9543 42.568 95.3783 42.568C95.6743 42.568 95.9663 42.608 96.2543 42.688C96.5503 42.768 96.8223 42.884 97.0703 43.036C97.3183 43.188 97.5263 43.368 97.6943 43.576L96.9863 44.356C96.8343 44.204 96.6663 44.072 96.4823 43.96C96.3063 43.84 96.1263 43.748 95.9423 43.684C95.7583 43.62 95.5903 43.588 95.4383 43.588C95.2703 43.588 95.1183 43.604 94.9823 43.636C94.8463 43.668 94.7303 43.716 94.6343 43.78C94.5463 43.844 94.4783 43.924 94.4303 44.02C94.3823 44.116 94.3583 44.224 94.3583 44.344C94.3663 44.448 94.3903 44.548 94.4303 44.644C94.4783 44.732 94.5423 44.808 94.6223 44.872C94.7103 44.936 94.8423 45.004 95.0183 45.076C95.1943 45.148 95.4183 45.216 95.6903 45.28C96.0903 45.384 96.4183 45.5 96.6743 45.628C96.9383 45.748 97.1463 45.888 97.2983 46.048C97.4583 46.2 97.5703 46.376 97.6343 46.576C97.6983 46.776 97.7303 47 97.7303 47.248C97.7303 47.608 97.6263 47.932 97.4183 48.22C97.2183 48.5 96.9463 48.72 96.6023 48.88C96.2583 49.04 95.8743 49.12 95.4503 49.12ZM99.8725 49V41.092H101.109V49H99.8725ZM98.5645 43.9V42.7H102.573V43.9H98.5645ZM106.579 49.12C105.931 49.12 105.355 48.984 104.851 48.712C104.355 48.432 103.963 48.052 103.675 47.572C103.395 47.092 103.255 46.54 103.255 45.916C103.255 45.42 103.335 44.968 103.495 44.56C103.655 44.152 103.875 43.8 104.155 43.504C104.443 43.2 104.783 42.968 105.175 42.808C105.575 42.64 106.007 42.556 106.471 42.556C106.879 42.556 107.259 42.636 107.611 42.796C107.963 42.948 108.267 43.16 108.523 43.432C108.787 43.704 108.987 44.028 109.123 44.404C109.267 44.772 109.335 45.176 109.327 45.616L109.315 46.144H104.167L103.891 45.16H108.247L108.067 45.364V45.076C108.043 44.812 107.955 44.576 107.803 44.368C107.651 44.16 107.459 43.996 107.227 43.876C106.995 43.756 106.743 43.696 106.471 43.696C106.039 43.696 105.675 43.78 105.379 43.948C105.083 44.108 104.859 44.348 104.707 44.668C104.555 44.98 104.479 45.368 104.479 45.832C104.479 46.272 104.571 46.656 104.755 46.984C104.939 47.304 105.199 47.552 105.535 47.728C105.871 47.904 106.259 47.992 106.699 47.992C107.011 47.992 107.299 47.94 107.563 47.836C107.835 47.732 108.127 47.544 108.439 47.272L109.063 48.148C108.871 48.34 108.635 48.508 108.355 48.652C108.083 48.796 107.791 48.912 107.479 49C107.175 49.08 106.875 49.12 106.579 49.12ZM110.647 49V42.7H111.895V44.044L111.667 44.188C111.731 43.98 111.831 43.78 111.967 43.588C112.111 43.396 112.283 43.228 112.483 43.084C112.691 42.932 112.911 42.812 113.143 42.724C113.383 42.636 113.627 42.592 113.875 42.592C114.235 42.592 114.551 42.652 114.823 42.772C115.095 42.892 115.319 43.072 115.495 43.312C115.671 43.552 115.799 43.852 115.879 44.212L115.687 44.164L115.771 43.96C115.859 43.776 115.979 43.604 116.131 43.444C116.291 43.276 116.471 43.128 116.671 43C116.871 42.872 117.083 42.772 117.307 42.7C117.531 42.628 117.751 42.592 117.967 42.592C118.439 42.592 118.827 42.688 119.131 42.88C119.443 43.072 119.675 43.364 119.827 43.756C119.987 44.148 120.067 44.636 120.067 45.22V49H118.819V45.292C118.819 44.756 118.715 44.364 118.507 44.116C118.307 43.86 117.991 43.732 117.559 43.732C117.335 43.732 117.123 43.772 116.923 43.852C116.731 43.924 116.563 44.028 116.419 44.164C116.275 44.3 116.163 44.46 116.083 44.644C116.003 44.82 115.963 45.016 115.963 45.232V49H114.715V45.268C114.715 44.772 114.607 44.392 114.391 44.128C114.183 43.864 113.879 43.732 113.479 43.732C113.255 43.732 113.047 43.772 112.855 43.852C112.663 43.924 112.495 44.028 112.351 44.164C112.207 44.292 112.095 44.448 112.015 44.632C111.935 44.808 111.895 45 111.895 45.208V49H110.647Z" fill="black"/>
<path d="M100 7.5C115.127 7.5 128.797 10.567 138.667 15.502C148.567 20.4519 154.5 27.1975 154.5 34.5C154.5 41.8025 148.567 48.5481 138.667 53.498C128.797 58.433 115.127 61.5 100 61.5C84.873 61.5 71.203 58.433 61.333 53.498C51.4331 48.5481 45.5 41.8025 45.5 34.5C45.5 27.1975 51.4331 20.4519 61.333 15.502C71.203 10.567 84.873 7.5 100 7.5Z" stroke="black"/>
<path d="M107.5 97C107.5 97.2761 107.724 97.5 108 97.5C108.276 97.5 108.5 97.2761 108.5 97L108 97L107.5 97ZM108.354 65.6464C108.158 65.4512 107.842 65.4512 107.646 65.6464L104.464 68.8284C104.269 69.0237 104.269 69.3403 104.464 69.5355C104.66 69.7308 104.976 69.7308 105.172 69.5355L108 66.7071L110.828 69.5355C111.024 69.7308 111.34 69.7308 111.536 69.5355C111.731 69.3403 111.731 69.0237 111.536 68.8284L108.354 65.6464ZM108 97L108.5 97L108.5 66L108 66L107.5 66L107.5 97L108 97Z" fill="black"/>
<path d="M92.6464 97.3536C92.8417 97.5488 93.1583 97.5488 93.3536 97.3536L96.5355 94.1716C96.7308 93.9763 96.7308 93.6597 96.5355 93.4645C96.3403 93.2692 96.0237 93.2692 95.8284 93.4645L93 96.2929L90.1716 93.4645C89.9763 93.2692 89.6597 93.2692 89.4645 93.4645C89.2692 93.6597 89.2692 93.9763 89.4645 94.1716L92.6464 97.3536ZM93.5 66C93.5 65.7239 93.2761 65.5 93 65.5C92.7239 65.5 92.5 65.7239 92.5 66L93 66L93.5 66ZM93 97L93.5 97L93.5 66L93 66L92.5 66L92.5 97L93 97Z" fill="black"/>
<path d="M49.686 78V73.1H51.681C51.947 73.1 52.1873 73.1677 52.402 73.303C52.6213 73.4337 52.7963 73.6133 52.927 73.842C53.0577 74.0707 53.123 74.325 53.123 74.605C53.123 74.885 53.0577 75.1393 52.927 75.368C52.7963 75.5967 52.6213 75.781 52.402 75.921C52.1873 76.0563 51.947 76.124 51.681 76.124H50.442V78H49.686ZM50.442 75.396H51.667C51.793 75.396 51.9073 75.361 52.01 75.291C52.1127 75.2163 52.1943 75.1207 52.255 75.004C52.3203 74.8827 52.353 74.7497 52.353 74.605C52.353 74.4603 52.3203 74.3297 52.255 74.213C52.1943 74.0963 52.1127 74.003 52.01 73.933C51.9073 73.863 51.793 73.828 51.667 73.828H50.442V75.396ZM53.9405 78V74.325H54.6685V75.48L54.5985 75.2C54.6499 75.0227 54.7362 74.8617 54.8575 74.717C54.9835 74.5723 55.1259 74.458 55.2845 74.374C55.4479 74.29 55.6159 74.248 55.7885 74.248C55.8679 74.248 55.9425 74.255 56.0125 74.269C56.0872 74.283 56.1455 74.2993 56.1875 74.318L55.9985 75.102C55.9425 75.0787 55.8795 75.06 55.8095 75.046C55.7442 75.0273 55.6789 75.018 55.6135 75.018C55.4875 75.018 55.3662 75.0437 55.2495 75.095C55.1375 75.1417 55.0372 75.2093 54.9485 75.298C54.8645 75.382 54.7969 75.4823 54.7455 75.599C54.6942 75.711 54.6685 75.8347 54.6685 75.97V78H53.9405ZM58.2585 78.07C57.8992 78.07 57.5772 77.9883 57.2925 77.825C57.0125 77.657 56.7909 77.4307 56.6275 77.146C56.4642 76.8567 56.3825 76.5277 56.3825 76.159C56.3825 75.7903 56.4642 75.4637 56.6275 75.179C56.7909 74.8897 57.0125 74.6633 57.2925 74.5C57.5772 74.332 57.8992 74.248 58.2585 74.248C58.6132 74.248 58.9305 74.332 59.2105 74.5C59.4952 74.6633 59.7192 74.8897 59.8825 75.179C60.0459 75.4637 60.1275 75.7903 60.1275 76.159C60.1275 76.5277 60.0459 76.8567 59.8825 77.146C59.7192 77.4307 59.4952 77.657 59.2105 77.825C58.9305 77.9883 58.6132 78.07 58.2585 78.07ZM58.2585 77.412C58.4779 77.412 58.6739 77.3583 58.8465 77.251C59.0192 77.139 59.1545 76.9897 59.2525 76.803C59.3505 76.6117 59.3972 76.397 59.3925 76.159C59.3972 75.9163 59.3505 75.7017 59.2525 75.515C59.1545 75.3237 59.0192 75.1743 58.8465 75.067C58.6739 74.9597 58.4779 74.906 58.2585 74.906C58.0392 74.906 57.8409 74.962 57.6635 75.074C57.4909 75.1813 57.3555 75.3307 57.2575 75.522C57.1595 75.7087 57.1129 75.921 57.1175 76.159C57.1129 76.397 57.1595 76.6117 57.2575 76.803C57.3555 76.9897 57.4909 77.139 57.6635 77.251C57.8409 77.3583 58.0392 77.412 58.2585 77.412ZM62.5582 79.61C62.2968 79.61 62.0355 79.568 61.7742 79.484C61.5175 79.4047 61.3098 79.2997 61.1512 79.169L61.4172 78.609C61.5572 78.7163 61.7298 78.8027 61.9352 78.868C62.1452 78.9333 62.3528 78.966 62.5582 78.966C62.8148 78.966 63.0295 78.924 63.2022 78.84C63.3748 78.756 63.5055 78.6323 63.5942 78.469C63.6828 78.3057 63.7272 78.1027 63.7272 77.86V77.153L63.8042 77.202C63.7808 77.3467 63.7038 77.4867 63.5732 77.622C63.4472 77.7527 63.2885 77.86 63.0972 77.944C62.9058 78.028 62.7098 78.07 62.5092 78.07C62.1592 78.07 61.8465 77.9883 61.5712 77.825C61.3005 77.657 61.0858 77.4307 60.9272 77.146C60.7685 76.8567 60.6892 76.5277 60.6892 76.159C60.6892 75.7903 60.7662 75.4637 60.9202 75.179C61.0788 74.8897 61.2935 74.6633 61.5642 74.5C61.8395 74.332 62.1475 74.248 62.4882 74.248C62.6282 74.248 62.7635 74.2667 62.8942 74.304C63.0248 74.3367 63.1462 74.3857 63.2582 74.451C63.3702 74.5117 63.4705 74.5793 63.5592 74.654C63.6478 74.7287 63.7202 74.808 63.7762 74.892C63.8322 74.976 63.8672 75.0553 63.8812 75.13L63.7272 75.186V74.325H64.4482V77.776C64.4482 78.07 64.4038 78.329 64.3152 78.553C64.2312 78.7817 64.1075 78.973 63.9442 79.127C63.7808 79.2857 63.5825 79.4047 63.3492 79.484C63.1158 79.568 62.8522 79.61 62.5582 79.61ZM62.5862 77.405C62.8148 77.405 63.0178 77.3513 63.1952 77.244C63.3725 77.1367 63.5102 76.9897 63.6082 76.803C63.7062 76.6163 63.7552 76.4017 63.7552 76.159C63.7552 75.9163 63.7038 75.7017 63.6012 75.515C63.5032 75.3237 63.3655 75.1743 63.1882 75.067C63.0155 74.9597 62.8148 74.906 62.5862 74.906C62.3622 74.906 62.1615 74.962 61.9842 75.074C61.8115 75.1813 61.6738 75.3307 61.5712 75.522C61.4732 75.7087 61.4242 75.921 61.4242 76.159C61.4242 76.397 61.4732 76.6117 61.5712 76.803C61.6738 76.9897 61.8115 77.1367 61.9842 77.244C62.1615 77.3513 62.3622 77.405 62.5862 77.405ZM65.4591 78V74.325H66.1871V75.48L66.1171 75.2C66.1684 75.0227 66.2547 74.8617 66.3761 74.717C66.5021 74.5723 66.6444 74.458 66.8031 74.374C66.9664 74.29 67.1344 74.248 67.3071 74.248C67.3864 74.248 67.4611 74.255 67.5311 74.269C67.6057 74.283 67.6641 74.2993 67.7061 74.318L67.5171 75.102C67.4611 75.0787 67.3981 75.06 67.3281 75.046C67.2627 75.0273 67.1974 75.018 67.1321 75.018C67.0061 75.018 66.8847 75.0437 66.7681 75.095C66.6561 75.1417 66.5557 75.2093 66.4671 75.298C66.3831 75.382 66.3154 75.4823 66.2641 75.599C66.2127 75.711 66.1871 75.8347 66.1871 75.97V78H65.4591ZM70.3021 78V75.606C70.3021 75.4007 70.2274 75.235 70.0781 75.109C69.9334 74.9783 69.7491 74.913 69.5251 74.913C69.3198 74.913 69.1331 74.955 68.9651 75.039C68.8018 75.123 68.6524 75.2513 68.5171 75.424L68.0481 74.955C68.2674 74.717 68.5031 74.5397 68.7551 74.423C69.0118 74.3063 69.2871 74.248 69.5811 74.248C69.8611 74.248 70.1038 74.2947 70.3091 74.388C70.5144 74.4813 70.6731 74.619 70.7851 74.801C70.8971 74.9783 70.9531 75.1953 70.9531 75.452V78H70.3021ZM69.2031 78.07C68.9651 78.07 68.7528 78.0233 68.5661 77.93C68.3794 77.8367 68.2301 77.7083 68.1181 77.545C68.0108 77.377 67.9571 77.181 67.9571 76.957C67.9571 76.761 67.9921 76.5883 68.0621 76.439C68.1321 76.2897 68.2348 76.166 68.3701 76.068C68.5101 75.97 68.6828 75.8953 68.8881 75.844C69.0981 75.7927 69.3384 75.767 69.6091 75.767H70.6311L70.5681 76.341H69.5181C69.3781 76.341 69.2521 76.355 69.1401 76.383C69.0328 76.4063 68.9394 76.446 68.8601 76.502C68.7854 76.5533 68.7294 76.6163 68.6921 76.691C68.6548 76.761 68.6361 76.845 68.6361 76.943C68.6361 77.0457 68.6618 77.1367 68.7131 77.216C68.7644 77.2907 68.8344 77.349 68.9231 77.391C69.0118 77.433 69.1144 77.454 69.2311 77.454C69.3991 77.454 69.5578 77.426 69.7071 77.37C69.8611 77.3093 69.9964 77.2277 70.1131 77.125C70.2344 77.0223 70.3278 76.908 70.3931 76.782L70.5611 77.251C70.4631 77.4143 70.3418 77.5567 70.1971 77.678C70.0524 77.7993 69.8961 77.895 69.7281 77.965C69.5601 78.035 69.3851 78.07 69.2031 78.07ZM71.8504 78V74.325H72.5784V75.109L72.4454 75.193C72.4827 75.0717 72.541 74.955 72.6204 74.843C72.7044 74.731 72.8047 74.633 72.9214 74.549C73.0427 74.4603 73.171 74.3903 73.3064 74.339C73.4464 74.2877 73.5887 74.262 73.7334 74.262C73.9434 74.262 74.1277 74.297 74.2864 74.367C74.445 74.437 74.5757 74.542 74.6784 74.682C74.781 74.822 74.8557 74.997 74.9024 75.207L74.7904 75.179L74.8394 75.06C74.8907 74.9527 74.9607 74.8523 75.0494 74.759C75.1427 74.661 75.2477 74.5747 75.3644 74.5C75.481 74.4253 75.6047 74.367 75.7354 74.325C75.866 74.283 75.9944 74.262 76.1204 74.262C76.3957 74.262 76.622 74.318 76.7994 74.43C76.9814 74.542 77.1167 74.7123 77.2054 74.941C77.2987 75.1697 77.3454 75.4543 77.3454 75.795V78H76.6174V75.837C76.6174 75.5243 76.5567 75.2957 76.4354 75.151C76.3187 75.0017 76.1344 74.927 75.8824 74.927C75.7517 74.927 75.628 74.9503 75.5114 74.997C75.3994 75.039 75.3014 75.0997 75.2174 75.179C75.1334 75.2583 75.068 75.3517 75.0214 75.459C74.9747 75.5617 74.9514 75.676 74.9514 75.802V78H74.2234V75.823C74.2234 75.5337 74.1604 75.312 74.0344 75.158C73.913 75.004 73.7357 74.927 73.5024 74.927C73.3717 74.927 73.2504 74.9503 73.1384 74.997C73.0264 75.039 72.9284 75.0997 72.8444 75.179C72.7604 75.2537 72.695 75.3447 72.6484 75.452C72.6017 75.5547 72.5784 75.6667 72.5784 75.788V78H71.8504ZM78.6046 78.07C78.4506 78.07 78.3316 78.0257 78.2476 77.937C78.1636 77.8437 78.1216 77.713 78.1216 77.545C78.1216 77.391 78.166 77.265 78.2546 77.167C78.3433 77.069 78.46 77.02 78.6046 77.02C78.7586 77.02 78.8776 77.0667 78.9616 77.16C79.0456 77.2487 79.0876 77.377 79.0876 77.545C79.0876 77.699 79.0433 77.825 78.9546 77.923C78.866 78.021 78.7493 78.07 78.6046 78.07ZM78.6046 75.305C78.4506 75.305 78.3316 75.2607 78.2476 75.172C78.1636 75.0787 78.1216 74.948 78.1216 74.78C78.1216 74.626 78.166 74.5 78.2546 74.402C78.3433 74.304 78.46 74.255 78.6046 74.255C78.7586 74.255 78.8776 74.3017 78.9616 74.395C79.0456 74.4837 79.0876 74.612 79.0876 74.78C79.0876 74.934 79.0433 75.06 78.9546 75.158C78.866 75.256 78.7493 75.305 78.6046 75.305ZM82.1593 78.077C82.0053 78.077 81.8863 78.0327 81.8023 77.944C81.7183 77.8507 81.6763 77.72 81.6763 77.552C81.6763 77.398 81.7207 77.272 81.8093 77.174C81.898 77.076 82.0147 77.027 82.1593 77.027C82.3133 77.027 82.4323 77.0737 82.5163 77.167C82.6003 77.2557 82.6423 77.384 82.6423 77.552C82.6423 77.706 82.598 77.832 82.5093 77.93C82.4207 78.028 82.304 78.077 82.1593 78.077ZM83.7521 78.077C83.5981 78.077 83.4791 78.0327 83.3951 77.944C83.3111 77.8507 83.2691 77.72 83.2691 77.552C83.2691 77.398 83.3134 77.272 83.4021 77.174C83.4908 77.076 83.6074 77.027 83.7521 77.027C83.9061 77.027 84.0251 77.0737 84.1091 77.167C84.1931 77.2557 84.2351 77.384 84.2351 77.552C84.2351 77.706 84.1908 77.832 84.1021 77.93C84.0134 78.028 83.8968 78.077 83.7521 78.077ZM85.3449 78.077C85.1909 78.077 85.0719 78.0327 84.9879 77.944C84.9039 77.8507 84.8619 77.72 84.8619 77.552C84.8619 77.398 84.9062 77.272 84.9949 77.174C85.0835 77.076 85.2002 77.027 85.3449 77.027C85.4989 77.027 85.6179 77.0737 85.7019 77.167C85.7859 77.2557 85.8279 77.384 85.8279 77.552C85.8279 77.706 85.7835 77.832 85.6949 77.93C85.6062 78.028 85.4895 78.077 85.3449 78.077ZM49.175 87L51.072 82.1H51.842L53.725 87H52.92L51.8 84.046C51.786 84.0133 51.758 83.934 51.716 83.808C51.6787 83.682 51.6343 83.542 51.583 83.388C51.5317 83.234 51.485 83.094 51.443 82.968C51.401 82.8373 51.373 82.7533 51.359 82.716L51.52 82.709C51.492 82.7883 51.457 82.8887 51.415 83.01C51.3777 83.1313 51.3357 83.2597 51.289 83.395C51.247 83.5303 51.205 83.6587 51.163 83.78C51.121 83.8967 51.086 83.9947 51.058 84.074L49.945 87H49.175ZM50.015 85.782L50.295 85.054H52.521L52.843 85.782H50.015ZM54.4054 87V83.325H55.1334V84.48L55.0634 84.2C55.1147 84.0227 55.201 83.8617 55.3224 83.717C55.4484 83.5723 55.5907 83.458 55.7494 83.374C55.9127 83.29 56.0807 83.248 56.2534 83.248C56.3327 83.248 56.4074 83.255 56.4774 83.269C56.552 83.283 56.6104 83.2993 56.6524 83.318L56.4634 84.102C56.4074 84.0787 56.3444 84.06 56.2744 84.046C56.209 84.0273 56.1437 84.018 56.0784 84.018C55.9524 84.018 55.831 84.0437 55.7144 84.095C55.6024 84.1417 55.502 84.2093 55.4134 84.298C55.3294 84.382 55.2617 84.4823 55.2104 84.599C55.159 84.711 55.1334 84.8347 55.1334 84.97V87H54.4054ZM58.7711 88.61C58.5097 88.61 58.2484 88.568 57.9871 88.484C57.7304 88.4047 57.5227 88.2997 57.3641 88.169L57.6301 87.609C57.7701 87.7163 57.9427 87.8027 58.1481 87.868C58.3581 87.9333 58.5657 87.966 58.7711 87.966C59.0277 87.966 59.2424 87.924 59.4151 87.84C59.5877 87.756 59.7184 87.6323 59.8071 87.469C59.8957 87.3057 59.9401 87.1027 59.9401 86.86V86.153L60.0171 86.202C59.9937 86.3467 59.9167 86.4867 59.7861 86.622C59.6601 86.7527 59.5014 86.86 59.3101 86.944C59.1187 87.028 58.9227 87.07 58.7221 87.07C58.3721 87.07 58.0594 86.9883 57.7841 86.825C57.5134 86.657 57.2987 86.4307 57.1401 86.146C56.9814 85.8567 56.9021 85.5277 56.9021 85.159C56.9021 84.7903 56.9791 84.4637 57.1331 84.179C57.2917 83.8897 57.5064 83.6633 57.7771 83.5C58.0524 83.332 58.3604 83.248 58.7011 83.248C58.8411 83.248 58.9764 83.2667 59.1071 83.304C59.2377 83.3367 59.3591 83.3857 59.4711 83.451C59.5831 83.5117 59.6834 83.5793 59.7721 83.654C59.8607 83.7287 59.9331 83.808 59.9891 83.892C60.0451 83.976 60.0801 84.0553 60.0941 84.13L59.9401 84.186V83.325H60.6611V86.776C60.6611 87.07 60.6167 87.329 60.5281 87.553C60.4441 87.7817 60.3204 87.973 60.1571 88.127C59.9937 88.2857 59.7954 88.4047 59.5621 88.484C59.3287 88.568 59.0651 88.61 58.7711 88.61ZM58.7991 86.405C59.0277 86.405 59.2307 86.3513 59.4081 86.244C59.5854 86.1367 59.7231 85.9897 59.8211 85.803C59.9191 85.6163 59.9681 85.4017 59.9681 85.159C59.9681 84.9163 59.9167 84.7017 59.8141 84.515C59.7161 84.3237 59.5784 84.1743 59.4011 84.067C59.2284 83.9597 59.0277 83.906 58.7991 83.906C58.5751 83.906 58.3744 83.962 58.1971 84.074C58.0244 84.1813 57.8867 84.3307 57.7841 84.522C57.6861 84.7087 57.6371 84.921 57.6371 85.159C57.6371 85.397 57.6861 85.6117 57.7841 85.803C57.8867 85.9897 58.0244 86.1367 58.1971 86.244C58.3744 86.3513 58.5751 86.405 58.7991 86.405ZM62.8286 87.07C62.5206 87.07 62.2429 87.0163 61.9956 86.909C61.7483 86.8017 61.5429 86.643 61.3796 86.433L61.8696 86.013C62.0096 86.1763 62.1613 86.2953 62.3246 86.37C62.4926 86.44 62.6816 86.475 62.8916 86.475C62.9756 86.475 63.0526 86.4657 63.1226 86.447C63.1973 86.4237 63.2603 86.391 63.3116 86.349C63.3676 86.307 63.4096 86.258 63.4376 86.202C63.4656 86.1413 63.4796 86.076 63.4796 86.006C63.4796 85.8847 63.4353 85.7867 63.3466 85.712C63.2999 85.6793 63.2253 85.6443 63.1226 85.607C63.0246 85.565 62.8963 85.523 62.7376 85.481C62.4669 85.411 62.2453 85.3317 62.0726 85.243C61.8999 85.1543 61.7669 85.054 61.6736 84.942C61.6036 84.8533 61.5523 84.7577 61.5196 84.655C61.4869 84.5477 61.4706 84.431 61.4706 84.305C61.4706 84.0997 61.5289 83.9177 61.6456 83.759C61.7623 83.6003 61.9186 83.4767 62.1146 83.388C62.3153 83.2947 62.5393 83.248 62.7866 83.248C62.9593 83.248 63.1296 83.2713 63.2976 83.318C63.4703 83.3647 63.6289 83.4323 63.7736 83.521C63.9183 83.6097 64.0396 83.7147 64.1376 83.836L63.7246 84.291C63.6359 84.2023 63.5379 84.1253 63.4306 84.06C63.3279 83.99 63.2229 83.9363 63.1156 83.899C63.0083 83.8617 62.9103 83.843 62.8216 83.843C62.7236 83.843 62.6349 83.8523 62.5556 83.871C62.4763 83.8897 62.4086 83.9177 62.3526 83.955C62.3013 83.9923 62.2616 84.039 62.2336 84.095C62.2056 84.151 62.1916 84.214 62.1916 84.284C62.1963 84.3447 62.2103 84.403 62.2336 84.459C62.2616 84.5103 62.2989 84.5547 62.3456 84.592C62.3969 84.6293 62.4739 84.669 62.5766 84.711C62.6793 84.753 62.8099 84.7927 62.9686 84.83C63.2019 84.8907 63.3933 84.9583 63.5426 85.033C63.6966 85.103 63.8179 85.1847 63.9066 85.278C63.9999 85.3667 64.0653 85.4693 64.1026 85.586C64.1399 85.7027 64.1586 85.8333 64.1586 85.978C64.1586 86.188 64.0979 86.377 63.9766 86.545C63.8599 86.7083 63.7013 86.8367 63.5006 86.93C63.2999 87.0233 63.0759 87.07 62.8286 87.07ZM65.2472 87.07C65.0932 87.07 64.9742 87.0257 64.8902 86.937C64.8062 86.8437 64.7642 86.713 64.7642 86.545C64.7642 86.391 64.8086 86.265 64.8972 86.167C64.9859 86.069 65.1026 86.02 65.2472 86.02C65.4012 86.02 65.5202 86.0667 65.6042 86.16C65.6882 86.2487 65.7302 86.377 65.7302 86.545C65.7302 86.699 65.6859 86.825 65.5972 86.923C65.5086 87.021 65.3919 87.07 65.2472 87.07ZM65.2472 84.305C65.0932 84.305 64.9742 84.2607 64.8902 84.172C64.8062 84.0787 64.7642 83.948 64.7642 83.78C64.7642 83.626 64.8086 83.5 64.8972 83.402C64.9859 83.304 65.1026 83.255 65.2472 83.255C65.4012 83.255 65.5202 83.3017 65.6042 83.395C65.6882 83.4837 65.7302 83.612 65.7302 83.78C65.7302 83.934 65.6859 84.06 65.5972 84.158C65.5086 84.256 65.3919 84.305 65.2472 84.305ZM68.8019 87.077C68.6479 87.077 68.5289 87.0327 68.4449 86.944C68.3609 86.8507 68.3189 86.72 68.3189 86.552C68.3189 86.398 68.3632 86.272 68.4519 86.174C68.5406 86.076 68.6572 86.027 68.8019 86.027C68.9559 86.027 69.0749 86.0737 69.1589 86.167C69.2429 86.2557 69.2849 86.384 69.2849 86.552C69.2849 86.706 69.2406 86.832 69.1519 86.93C69.0632 87.028 68.9466 87.077 68.8019 87.077ZM70.3947 87.077C70.2407 87.077 70.1217 87.0327 70.0377 86.944C69.9537 86.8507 69.9117 86.72 69.9117 86.552C69.9117 86.398 69.956 86.272 70.0447 86.174C70.1333 86.076 70.25 86.027 70.3947 86.027C70.5487 86.027 70.6677 86.0737 70.7517 86.167C70.8357 86.2557 70.8777 86.384 70.8777 86.552C70.8777 86.706 70.8333 86.832 70.7447 86.93C70.656 87.028 70.5393 87.077 70.3947 87.077ZM71.9875 87.077C71.8335 87.077 71.7145 87.0327 71.6305 86.944C71.5465 86.8507 71.5045 86.72 71.5045 86.552C71.5045 86.398 71.5488 86.272 71.6375 86.174C71.7261 86.076 71.8428 86.027 71.9875 86.027C72.1415 86.027 72.2605 86.0737 72.3445 86.167C72.4285 86.2557 72.4705 86.384 72.4705 86.552C72.4705 86.706 72.4261 86.832 72.3375 86.93C72.2488 87.028 72.1321 87.077 71.9875 87.077Z" fill="black" fill-opacity="0.5"/>
<path d="M70.3179 144.07C69.9773 144.07 69.6716 143.986 69.4009 143.818C69.1349 143.65 68.9226 143.421 68.7639 143.132C68.6099 142.843 68.5329 142.518 68.5329 142.159C68.5329 141.8 68.6099 141.475 68.7639 141.186C68.9226 140.897 69.1349 140.668 69.4009 140.5C69.6716 140.332 69.9773 140.248 70.3179 140.248C70.6446 140.248 70.9409 140.316 71.2069 140.451C71.4776 140.582 71.6829 140.761 71.8229 140.99L71.4239 141.48C71.3493 141.373 71.2536 141.275 71.1369 141.186C71.0203 141.097 70.8966 141.027 70.7659 140.976C70.6353 140.925 70.5093 140.899 70.3879 140.899C70.1639 140.899 69.9633 140.955 69.7859 141.067C69.6133 141.174 69.4756 141.324 69.3729 141.515C69.2703 141.706 69.2189 141.921 69.2189 142.159C69.2189 142.397 69.2726 142.612 69.3799 142.803C69.4873 142.99 69.6296 143.139 69.8069 143.251C69.9843 143.363 70.1803 143.419 70.3949 143.419C70.5209 143.419 70.6423 143.398 70.7589 143.356C70.8803 143.314 70.9969 143.251 71.1089 143.167C71.2209 143.083 71.3259 142.98 71.4239 142.859L71.8229 143.349C71.6736 143.559 71.4589 143.732 71.1789 143.867C70.9036 144.002 70.6166 144.07 70.3179 144.07ZM72.503 144V138.82H73.224V141.081L73.098 141.165C73.1447 141.002 73.2357 140.852 73.371 140.717C73.5064 140.577 73.6674 140.465 73.854 140.381C74.0407 140.292 74.232 140.248 74.428 140.248C74.708 140.248 74.9414 140.304 75.128 140.416C75.3147 140.523 75.4547 140.689 75.548 140.913C75.6414 141.137 75.688 141.419 75.688 141.76V144H74.967V141.809C74.967 141.599 74.939 141.426 74.883 141.291C74.827 141.151 74.7407 141.051 74.624 140.99C74.5074 140.925 74.3627 140.897 74.19 140.906C74.05 140.906 73.9217 140.929 73.805 140.976C73.6884 141.018 73.5857 141.079 73.497 141.158C73.413 141.237 73.3454 141.331 73.294 141.438C73.2474 141.541 73.224 141.653 73.224 141.774V144H72.867C72.8064 144 72.7457 144 72.685 144C72.6244 144 72.5637 144 72.503 144ZM78.3811 144.07C78.0031 144.07 77.6671 143.991 77.3731 143.832C77.0838 143.669 76.8551 143.447 76.6871 143.167C76.5238 142.887 76.4421 142.565 76.4421 142.201C76.4421 141.912 76.4888 141.648 76.5821 141.41C76.6754 141.172 76.8038 140.967 76.9671 140.794C77.1351 140.617 77.3334 140.481 77.5621 140.388C77.7954 140.29 78.0474 140.241 78.3181 140.241C78.5561 140.241 78.7778 140.288 78.9831 140.381C79.1884 140.47 79.3658 140.593 79.5151 140.752C79.6691 140.911 79.7858 141.1 79.8651 141.319C79.9491 141.534 79.9888 141.769 79.9841 142.026L79.9771 142.334H76.9741L76.8131 141.76H79.3541L79.2491 141.879V141.711C79.2351 141.557 79.1838 141.419 79.0951 141.298C79.0064 141.177 78.8944 141.081 78.7591 141.011C78.6238 140.941 78.4768 140.906 78.3181 140.906C78.0661 140.906 77.8538 140.955 77.6811 141.053C77.5084 141.146 77.3778 141.286 77.2891 141.473C77.2004 141.655 77.1561 141.881 77.1561 142.152C77.1561 142.409 77.2098 142.633 77.3171 142.824C77.4244 143.011 77.5761 143.155 77.7721 143.258C77.9681 143.361 78.1944 143.412 78.4511 143.412C78.6331 143.412 78.8011 143.382 78.9551 143.321C79.1138 143.26 79.2841 143.151 79.4661 142.992L79.8301 143.503C79.7181 143.615 79.5804 143.713 79.4171 143.797C79.2584 143.881 79.0881 143.949 78.9061 144C78.7288 144.047 78.5538 144.07 78.3811 144.07ZM82.3287 144.07C81.988 144.07 81.6823 143.986 81.4117 143.818C81.1457 143.65 80.9333 143.421 80.7747 143.132C80.6207 142.843 80.5437 142.518 80.5437 142.159C80.5437 141.8 80.6207 141.475 80.7747 141.186C80.9333 140.897 81.1457 140.668 81.4117 140.5C81.6823 140.332 81.988 140.248 82.3287 140.248C82.6553 140.248 82.9517 140.316 83.2177 140.451C83.4883 140.582 83.6937 140.761 83.8337 140.99L83.4347 141.48C83.36 141.373 83.2643 141.275 83.1477 141.186C83.031 141.097 82.9073 141.027 82.7767 140.976C82.646 140.925 82.52 140.899 82.3987 140.899C82.1747 140.899 81.974 140.955 81.7967 141.067C81.624 141.174 81.4863 141.324 81.3837 141.515C81.281 141.706 81.2297 141.921 81.2297 142.159C81.2297 142.397 81.2833 142.612 81.3907 142.803C81.498 142.99 81.6403 143.139 81.8177 143.251C81.995 143.363 82.191 143.419 82.4057 143.419C82.5317 143.419 82.653 143.398 82.7697 143.356C82.891 143.314 83.0077 143.251 83.1197 143.167C83.2317 143.083 83.3367 142.98 83.4347 142.859L83.8337 143.349C83.6843 143.559 83.4697 143.732 83.1897 143.867C82.9143 144.002 82.6273 144.07 82.3287 144.07ZM85.1718 142.852L85.1368 142.068L86.8938 140.325H87.8668L85.1718 142.852ZM84.5138 144V138.82H85.2348V144H84.5138ZM86.9918 144L85.6058 142.383L86.1168 141.914L87.9158 144H86.9918ZM88.6113 144V140.325H89.3323V144H88.6113ZM88.9613 139.513C88.8073 139.513 88.6883 139.473 88.6043 139.394C88.5203 139.315 88.4783 139.203 88.4783 139.058C88.4783 138.923 88.5203 138.813 88.6043 138.729C88.6929 138.645 88.8119 138.603 88.9613 138.603C89.1153 138.603 89.2343 138.643 89.3183 138.722C89.4023 138.801 89.4443 138.913 89.4443 139.058C89.4443 139.193 89.3999 139.303 89.3113 139.387C89.2273 139.471 89.1106 139.513 88.9613 139.513ZM90.4405 144V140.325H91.1615V141.081L91.0355 141.165C91.0822 141.002 91.1732 140.852 91.3085 140.717C91.4439 140.577 91.6049 140.465 91.7915 140.381C91.9782 140.292 92.1695 140.248 92.3655 140.248C92.6455 140.248 92.8789 140.304 93.0655 140.416C93.2522 140.523 93.3922 140.689 93.4855 140.913C93.5789 141.137 93.6255 141.419 93.6255 141.76V144H92.9045V141.809C92.9045 141.599 92.8765 141.426 92.8205 141.291C92.7645 141.151 92.6782 141.051 92.5615 140.99C92.4449 140.925 92.3002 140.897 92.1275 140.906C91.9875 140.906 91.8592 140.929 91.7425 140.976C91.6259 141.018 91.5232 141.079 91.4345 141.158C91.3505 141.237 91.2829 141.331 91.2315 141.438C91.1849 141.541 91.1615 141.653 91.1615 141.774V144H90.8045C90.7439 144 90.6832 144 90.6225 144C90.5619 144 90.5012 144 90.4405 144ZM96.2486 145.61C95.9873 145.61 95.7259 145.568 95.4646 145.484C95.2079 145.405 95.0003 145.3 94.8416 145.169L95.1076 144.609C95.2476 144.716 95.4203 144.803 95.6256 144.868C95.8356 144.933 96.0433 144.966 96.2486 144.966C96.5053 144.966 96.7199 144.924 96.8926 144.84C97.0653 144.756 97.1959 144.632 97.2846 144.469C97.3733 144.306 97.4176 144.103 97.4176 143.86V143.153L97.4946 143.202C97.4713 143.347 97.3943 143.487 97.2636 143.622C97.1376 143.753 96.9789 143.86 96.7876 143.944C96.5963 144.028 96.4003 144.07 96.1996 144.07C95.8496 144.07 95.5369 143.988 95.2616 143.825C94.9909 143.657 94.7763 143.431 94.6176 143.146C94.4589 142.857 94.3796 142.528 94.3796 142.159C94.3796 141.79 94.4566 141.464 94.6106 141.179C94.7693 140.89 94.9839 140.663 95.2546 140.5C95.5299 140.332 95.8379 140.248 96.1786 140.248C96.3186 140.248 96.4539 140.267 96.5846 140.304C96.7153 140.337 96.8366 140.386 96.9486 140.451C97.0606 140.512 97.1609 140.579 97.2496 140.654C97.3383 140.729 97.4106 140.808 97.4666 140.892C97.5226 140.976 97.5576 141.055 97.5716 141.13L97.4176 141.186V140.325H98.1386V143.776C98.1386 144.07 98.0943 144.329 98.0056 144.553C97.9216 144.782 97.7979 144.973 97.6346 145.127C97.4713 145.286 97.2729 145.405 97.0396 145.484C96.8063 145.568 96.5426 145.61 96.2486 145.61ZM96.2766 143.405C96.5053 143.405 96.7083 143.351 96.8856 143.244C97.0629 143.137 97.2006 142.99 97.2986 142.803C97.3966 142.616 97.4456 142.402 97.4456 142.159C97.4456 141.916 97.3943 141.702 97.2916 141.515C97.1936 141.324 97.0559 141.174 96.8786 141.067C96.7059 140.96 96.5053 140.906 96.2766 140.906C96.0526 140.906 95.8519 140.962 95.6746 141.074C95.5019 141.181 95.3643 141.331 95.2616 141.522C95.1636 141.709 95.1146 141.921 95.1146 142.159C95.1146 142.397 95.1636 142.612 95.2616 142.803C95.3643 142.99 95.5019 143.137 95.6746 143.244C95.8519 143.351 96.0526 143.405 96.2766 143.405ZM102.336 144.07C102.028 144.07 101.751 144.016 101.503 143.909C101.256 143.802 101.051 143.643 100.887 143.433L101.377 143.013C101.517 143.176 101.669 143.295 101.832 143.37C102 143.44 102.189 143.475 102.399 143.475C102.483 143.475 102.56 143.466 102.63 143.447C102.705 143.424 102.768 143.391 102.819 143.349C102.875 143.307 102.917 143.258 102.945 143.202C102.973 143.141 102.987 143.076 102.987 143.006C102.987 142.885 102.943 142.787 102.854 142.712C102.808 142.679 102.733 142.644 102.63 142.607C102.532 142.565 102.404 142.523 102.245 142.481C101.975 142.411 101.753 142.332 101.58 142.243C101.408 142.154 101.275 142.054 101.181 141.942C101.111 141.853 101.06 141.758 101.027 141.655C100.995 141.548 100.978 141.431 100.978 141.305C100.978 141.1 101.037 140.918 101.153 140.759C101.27 140.6 101.426 140.477 101.622 140.388C101.823 140.295 102.047 140.248 102.294 140.248C102.467 140.248 102.637 140.271 102.805 140.318C102.978 140.365 103.137 140.432 103.281 140.521C103.426 140.61 103.547 140.715 103.645 140.836L103.232 141.291C103.144 141.202 103.046 141.125 102.938 141.06C102.836 140.99 102.731 140.936 102.623 140.899C102.516 140.862 102.418 140.843 102.329 140.843C102.231 140.843 102.143 140.852 102.063 140.871C101.984 140.89 101.916 140.918 101.86 140.955C101.809 140.992 101.769 141.039 101.741 141.095C101.713 141.151 101.699 141.214 101.699 141.284C101.704 141.345 101.718 141.403 101.741 141.459C101.769 141.51 101.807 141.555 101.853 141.592C101.905 141.629 101.982 141.669 102.084 141.711C102.187 141.753 102.318 141.793 102.476 141.83C102.71 141.891 102.901 141.958 103.05 142.033C103.204 142.103 103.326 142.185 103.414 142.278C103.508 142.367 103.573 142.469 103.61 142.586C103.648 142.703 103.666 142.833 103.666 142.978C103.666 143.188 103.606 143.377 103.484 143.545C103.368 143.708 103.209 143.837 103.008 143.93C102.808 144.023 102.584 144.07 102.336 144.07ZM104.916 144V139.387H105.637V144H104.916ZM104.153 141.025V140.325H106.491V141.025H104.153ZM108.765 144.07C108.406 144.07 108.084 143.988 107.799 143.825C107.519 143.657 107.298 143.431 107.134 143.146C106.971 142.857 106.889 142.528 106.889 142.159C106.889 141.79 106.971 141.464 107.134 141.179C107.298 140.89 107.519 140.663 107.799 140.5C108.084 140.332 108.406 140.248 108.765 140.248C109.12 140.248 109.437 140.332 109.717 140.5C110.002 140.663 110.226 140.89 110.389 141.179C110.553 141.464 110.634 141.79 110.634 142.159C110.634 142.528 110.553 142.857 110.389 143.146C110.226 143.431 110.002 143.657 109.717 143.825C109.437 143.988 109.12 144.07 108.765 144.07ZM108.765 143.412C108.985 143.412 109.181 143.358 109.353 143.251C109.526 143.139 109.661 142.99 109.759 142.803C109.857 142.612 109.904 142.397 109.899 142.159C109.904 141.916 109.857 141.702 109.759 141.515C109.661 141.324 109.526 141.174 109.353 141.067C109.181 140.96 108.985 140.906 108.765 140.906C108.546 140.906 108.348 140.962 108.17 141.074C107.998 141.181 107.862 141.331 107.764 141.522C107.666 141.709 107.62 141.921 107.624 142.159C107.62 142.397 107.666 142.612 107.764 142.803C107.862 142.99 107.998 143.139 108.17 143.251C108.348 143.358 108.546 143.412 108.765 143.412ZM111.42 144V140.325H112.148V141.48L112.078 141.2C112.129 141.023 112.216 140.862 112.337 140.717C112.463 140.572 112.605 140.458 112.764 140.374C112.927 140.29 113.095 140.248 113.268 140.248C113.347 140.248 113.422 140.255 113.492 140.269C113.567 140.283 113.625 140.299 113.667 140.318L113.478 141.102C113.422 141.079 113.359 141.06 113.289 141.046C113.224 141.027 113.158 141.018 113.093 141.018C112.967 141.018 112.846 141.044 112.729 141.095C112.617 141.142 112.517 141.209 112.428 141.298C112.344 141.382 112.276 141.482 112.225 141.599C112.174 141.711 112.148 141.835 112.148 141.97V144H111.42ZM116.263 144V141.606C116.263 141.401 116.188 141.235 116.039 141.109C115.894 140.978 115.71 140.913 115.486 140.913C115.281 140.913 115.094 140.955 114.926 141.039C114.763 141.123 114.613 141.251 114.478 141.424L114.009 140.955C114.228 140.717 114.464 140.54 114.716 140.423C114.973 140.306 115.248 140.248 115.542 140.248C115.822 140.248 116.065 140.295 116.27 140.388C116.475 140.481 116.634 140.619 116.746 140.801C116.858 140.978 116.914 141.195 116.914 141.452V144H116.263ZM115.164 144.07C114.926 144.07 114.714 144.023 114.527 143.93C114.34 143.837 114.191 143.708 114.079 143.545C113.972 143.377 113.918 143.181 113.918 142.957C113.918 142.761 113.953 142.588 114.023 142.439C114.093 142.29 114.196 142.166 114.331 142.068C114.471 141.97 114.644 141.895 114.849 141.844C115.059 141.793 115.299 141.767 115.57 141.767H116.592L116.529 142.341H115.479C115.339 142.341 115.213 142.355 115.101 142.383C114.994 142.406 114.9 142.446 114.821 142.502C114.746 142.553 114.69 142.616 114.653 142.691C114.616 142.761 114.597 142.845 114.597 142.943C114.597 143.046 114.623 143.137 114.674 143.216C114.725 143.291 114.795 143.349 114.884 143.391C114.973 143.433 115.075 143.454 115.192 143.454C115.36 143.454 115.519 143.426 115.668 143.37C115.822 143.309 115.957 143.228 116.074 143.125C116.195 143.022 116.289 142.908 116.354 142.782L116.522 143.251C116.424 143.414 116.303 143.557 116.158 143.678C116.013 143.799 115.857 143.895 115.689 143.965C115.521 144.035 115.346 144.07 115.164 144.07ZM119.47 145.61C119.209 145.61 118.948 145.568 118.686 145.484C118.43 145.405 118.222 145.3 118.063 145.169L118.329 144.609C118.469 144.716 118.642 144.803 118.847 144.868C119.057 144.933 119.265 144.966 119.47 144.966C119.727 144.966 119.942 144.924 120.114 144.84C120.287 144.756 120.418 144.632 120.506 144.469C120.595 144.306 120.639 144.103 120.639 143.86V143.153L120.716 143.202C120.693 143.347 120.616 143.487 120.485 143.622C120.359 143.753 120.201 143.86 120.009 143.944C119.818 144.028 119.622 144.07 119.421 144.07C119.071 144.07 118.759 143.988 118.483 143.825C118.213 143.657 117.998 143.431 117.839 143.146C117.681 142.857 117.601 142.528 117.601 142.159C117.601 141.79 117.678 141.464 117.832 141.179C117.991 140.89 118.206 140.663 118.476 140.5C118.752 140.332 119.06 140.248 119.4 140.248C119.54 140.248 119.676 140.267 119.806 140.304C119.937 140.337 120.058 140.386 120.17 140.451C120.282 140.512 120.383 140.579 120.471 140.654C120.56 140.729 120.632 140.808 120.688 140.892C120.744 140.976 120.779 141.055 120.793 141.13L120.639 141.186V140.325H121.36V143.776C121.36 144.07 121.316 144.329 121.227 144.553C121.143 144.782 121.02 144.973 120.856 145.127C120.693 145.286 120.495 145.405 120.261 145.484C120.028 145.568 119.764 145.61 119.47 145.61ZM119.498 143.405C119.727 143.405 119.93 143.351 120.107 143.244C120.285 143.137 120.422 142.99 120.52 142.803C120.618 142.616 120.667 142.402 120.667 142.159C120.667 141.916 120.616 141.702 120.513 141.515C120.415 141.324 120.278 141.174 120.1 141.067C119.928 140.96 119.727 140.906 119.498 140.906C119.274 140.906 119.074 140.962 118.896 141.074C118.724 141.181 118.586 141.331 118.483 141.522C118.385 141.709 118.336 141.921 118.336 142.159C118.336 142.397 118.385 142.612 118.483 142.803C118.586 142.99 118.724 143.137 118.896 143.244C119.074 143.351 119.274 143.405 119.498 143.405ZM124.086 144.07C123.708 144.07 123.372 143.991 123.078 143.832C122.789 143.669 122.56 143.447 122.392 143.167C122.229 142.887 122.147 142.565 122.147 142.201C122.147 141.912 122.194 141.648 122.287 141.41C122.381 141.172 122.509 140.967 122.672 140.794C122.84 140.617 123.039 140.481 123.267 140.388C123.501 140.29 123.753 140.241 124.023 140.241C124.261 140.241 124.483 140.288 124.688 140.381C124.894 140.47 125.071 140.593 125.22 140.752C125.374 140.911 125.491 141.1 125.57 141.319C125.654 141.534 125.694 141.769 125.689 142.026L125.682 142.334H122.679L122.518 141.76H125.059L124.954 141.879V141.711C124.94 141.557 124.889 141.419 124.8 141.298C124.712 141.177 124.6 141.081 124.464 141.011C124.329 140.941 124.182 140.906 124.023 140.906C123.771 140.906 123.559 140.955 123.386 141.053C123.214 141.146 123.083 141.286 122.994 141.473C122.906 141.655 122.861 141.881 122.861 142.152C122.861 142.409 122.915 142.633 123.022 142.824C123.13 143.011 123.281 143.155 123.477 143.258C123.673 143.361 123.9 143.412 124.156 143.412C124.338 143.412 124.506 143.382 124.66 143.321C124.819 143.26 124.989 143.151 125.171 142.992L125.535 143.503C125.423 143.615 125.286 143.713 125.122 143.797C124.964 143.881 124.793 143.949 124.611 144C124.434 144.047 124.259 144.07 124.086 144.07ZM126.767 144.077C126.613 144.077 126.494 144.033 126.41 143.944C126.326 143.851 126.284 143.72 126.284 143.552C126.284 143.398 126.328 143.272 126.417 143.174C126.505 143.076 126.622 143.027 126.767 143.027C126.921 143.027 127.04 143.074 127.124 143.167C127.208 143.256 127.25 143.384 127.25 143.552C127.25 143.706 127.205 143.832 127.117 143.93C127.028 144.028 126.911 144.077 126.767 144.077ZM128.36 144.077C128.206 144.077 128.087 144.033 128.003 143.944C127.919 143.851 127.877 143.72 127.877 143.552C127.877 143.398 127.921 143.272 128.01 143.174C128.098 143.076 128.215 143.027 128.36 143.027C128.514 143.027 128.633 143.074 128.717 143.167C128.801 143.256 128.843 143.384 128.843 143.552C128.843 143.706 128.798 143.832 128.71 143.93C128.621 144.028 128.504 144.077 128.36 144.077ZM129.952 144.077C129.798 144.077 129.679 144.033 129.595 143.944C129.511 143.851 129.469 143.72 129.469 143.552C129.469 143.398 129.514 143.272 129.602 143.174C129.691 143.076 129.808 143.027 129.952 143.027C130.106 143.027 130.225 143.074 130.309 143.167C130.393 143.256 130.435 143.384 130.435 143.552C130.435 143.706 130.391 143.832 130.302 143.93C130.214 144.028 130.097 144.077 129.952 144.077Z" fill="black" fill-opacity="0.5"/>
<path d="M58.6813 105.537H58.702L59.1571 105.937C59.1295 106.07 59.1157 106.21 59.1157 106.356C59.1157 106.503 59.1295 106.643 59.1571 106.776L58.702 107.175C58.5365 107.308 58.4882 107.475 58.5572 107.675C58.6123 107.781 58.6675 107.881 58.7227 107.974L58.7847 108.094C58.8537 108.187 58.9226 108.281 58.9916 108.374C59.1295 108.534 59.3019 108.58 59.5087 108.514L60.0879 108.334C60.3085 108.507 60.5568 108.647 60.8326 108.754L60.9567 109.333C61.0118 109.533 61.1428 109.653 61.3497 109.692C61.4876 109.706 61.6255 109.712 61.7634 109.712C61.9013 109.712 62.0392 109.706 62.1771 109.692C62.3839 109.653 62.5149 109.533 62.5701 109.333L62.6942 108.754C62.97 108.647 63.2182 108.507 63.4389 108.334L64.0181 108.514C64.2249 108.58 64.3973 108.534 64.5352 108.374C64.6179 108.281 64.6869 108.187 64.742 108.094L64.8041 107.974C64.8593 107.881 64.9144 107.781 64.9696 107.675C65.0385 107.475 64.9903 107.308 64.8248 107.175L64.3697 106.776C64.3973 106.643 64.4111 106.503 64.4111 106.356C64.4111 106.21 64.3973 106.07 64.3697 105.937L64.8248 105.537C64.9903 105.404 65.0385 105.237 64.9696 105.038C64.9144 104.931 64.8593 104.831 64.8041 104.738L64.742 104.638C64.6731 104.532 64.6041 104.432 64.5352 104.338C64.3973 104.179 64.2249 104.132 64.0181 104.199L63.4389 104.378C63.2182 104.205 62.97 104.065 62.6942 103.959L62.5701 103.38C62.5149 103.18 62.3839 103.06 62.1771 103.02C62.0392 103.007 61.9013 103 61.7634 103C61.6117 103 61.4669 103.007 61.329 103.02C61.1359 103.06 61.0118 103.18 60.9567 103.38L60.8326 103.959C60.5568 104.065 60.3085 104.205 60.0879 104.378L59.488 104.199C59.295 104.132 59.1295 104.179 58.9916 104.338C58.9226 104.432 58.8537 104.525 58.7847 104.618L58.7227 104.738C58.6675 104.831 58.6123 104.931 58.5572 105.038C58.4882 105.237 58.5296 105.404 58.6813 105.537ZM62.7563 106.356C62.7425 106.716 62.577 106.996 62.2598 107.195C61.9289 107.355 61.5979 107.355 61.2669 107.195C60.9498 106.996 60.7843 106.716 60.7705 106.356C60.7843 105.997 60.9498 105.717 61.2669 105.517C61.5979 105.357 61.9289 105.357 62.2598 105.517C62.577 105.717 62.7425 105.997 62.7563 106.356ZM54.627 112.849V112.829L55.0407 112.389C55.1786 112.416 55.3234 112.429 55.4751 112.429C55.6268 112.429 55.7716 112.416 55.9095 112.389L56.3232 112.829C56.4611 112.989 56.6335 113.035 56.8403 112.969C56.9506 112.916 57.0541 112.862 57.1506 112.809L57.254 112.749C57.3643 112.682 57.4678 112.616 57.5643 112.549C57.7298 112.416 57.778 112.25 57.7091 112.05L57.5229 111.49C57.7022 111.277 57.847 111.038 57.9573 110.771L58.5572 110.651C58.764 110.598 58.8882 110.472 58.9295 110.272C58.9433 110.139 58.9502 110.005 58.9502 109.872C58.9502 109.739 58.9433 109.606 58.9295 109.473C58.8882 109.273 58.764 109.146 58.5572 109.093L57.9573 108.973C57.847 108.707 57.7022 108.467 57.5229 108.254L57.7091 107.695C57.778 107.495 57.7298 107.328 57.5643 107.195C57.4678 107.129 57.3643 107.062 57.254 106.996L57.1506 106.936C57.0541 106.882 56.9506 106.829 56.8403 106.776C56.6335 106.709 56.4611 106.756 56.3232 106.916L55.9095 107.355C55.7716 107.328 55.6268 107.315 55.4751 107.315C55.3234 107.315 55.1786 107.328 55.0407 107.355L54.627 106.916C54.4891 106.756 54.3167 106.709 54.1099 106.776C53.9996 106.829 53.8961 106.882 53.7996 106.936L53.6755 106.996C53.579 107.062 53.4824 107.129 53.3859 107.195C53.2204 107.328 53.1722 107.495 53.2411 107.695L53.4273 108.254C53.248 108.467 53.1032 108.707 52.9929 108.973L52.393 109.093C52.1862 109.146 52.0621 109.273 52.0207 109.473C52.0069 109.606 52 109.739 52 109.872C52 110.005 52.0069 110.139 52.0207 110.272C52.0621 110.472 52.1862 110.598 52.393 110.651L52.9929 110.771C53.1032 111.038 53.248 111.277 53.4273 111.49L53.2411 112.07C53.1722 112.256 53.2204 112.416 53.3859 112.549C53.4824 112.616 53.579 112.682 53.6755 112.749L53.7996 112.809C53.8961 112.862 53.9996 112.916 54.1099 112.969C54.3167 113.035 54.4891 112.995 54.627 112.849ZM55.4751 108.913C55.8474 108.927 56.137 109.086 56.3439 109.393C56.5094 109.712 56.5094 110.032 56.3439 110.352C56.137 110.658 55.8474 110.818 55.4751 110.831C55.1028 110.818 54.8132 110.658 54.6063 110.352C54.4408 110.032 54.4408 109.712 54.6063 109.393C54.8132 109.086 55.1028 108.927 55.4751 108.913Z" fill="black" fill-opacity="0.5"/>
<path d="M116.175 80L118.072 75.1H118.842L120.725 80H119.92L118.8 77.046C118.786 77.0133 118.758 76.934 118.716 76.808C118.679 76.682 118.634 76.542 118.583 76.388C118.532 76.234 118.485 76.094 118.443 75.968C118.401 75.8373 118.373 75.7533 118.359 75.716L118.52 75.709C118.492 75.7883 118.457 75.8887 118.415 76.01C118.378 76.1313 118.336 76.2597 118.289 76.395C118.247 76.5303 118.205 76.6587 118.163 76.78C118.121 76.8967 118.086 76.9947 118.058 77.074L116.945 80H116.175ZM117.015 78.782L117.295 78.054H119.521L119.843 78.782H117.015ZM121.405 80V76.325H122.133V77.48L122.063 77.2C122.115 77.0227 122.201 76.8617 122.322 76.717C122.448 76.5723 122.591 76.458 122.749 76.374C122.913 76.29 123.081 76.248 123.253 76.248C123.333 76.248 123.407 76.255 123.477 76.269C123.552 76.283 123.61 76.2993 123.652 76.318L123.463 77.102C123.407 77.0787 123.344 77.06 123.274 77.046C123.209 77.0273 123.144 77.018 123.078 77.018C122.952 77.018 122.831 77.0437 122.714 77.095C122.602 77.1417 122.502 77.2093 122.413 77.298C122.329 77.382 122.262 77.4823 122.21 77.599C122.159 77.711 122.133 77.8347 122.133 77.97V80H121.405ZM125.771 81.61C125.51 81.61 125.248 81.568 124.987 81.484C124.73 81.4047 124.523 81.2997 124.364 81.169L124.63 80.609C124.77 80.7163 124.943 80.8027 125.148 80.868C125.358 80.9333 125.566 80.966 125.771 80.966C126.028 80.966 126.242 80.924 126.415 80.84C126.588 80.756 126.718 80.6323 126.807 80.469C126.896 80.3057 126.94 80.1027 126.94 79.86V79.153L127.017 79.202C126.994 79.3467 126.917 79.4867 126.786 79.622C126.66 79.7527 126.501 79.86 126.31 79.944C126.119 80.028 125.923 80.07 125.722 80.07C125.372 80.07 125.059 79.9883 124.784 79.825C124.513 79.657 124.299 79.4307 124.14 79.146C123.981 78.8567 123.902 78.5277 123.902 78.159C123.902 77.7903 123.979 77.4637 124.133 77.179C124.292 76.8897 124.506 76.6633 124.777 76.5C125.052 76.332 125.36 76.248 125.701 76.248C125.841 76.248 125.976 76.2667 126.107 76.304C126.238 76.3367 126.359 76.3857 126.471 76.451C126.583 76.5117 126.683 76.5793 126.772 76.654C126.861 76.7287 126.933 76.808 126.989 76.892C127.045 76.976 127.08 77.0553 127.094 77.13L126.94 77.186V76.325H127.661V79.776C127.661 80.07 127.617 80.329 127.528 80.553C127.444 80.7817 127.32 80.973 127.157 81.127C126.994 81.2857 126.795 81.4047 126.562 81.484C126.329 81.568 126.065 81.61 125.771 81.61ZM125.799 79.405C126.028 79.405 126.231 79.3513 126.408 79.244C126.585 79.1367 126.723 78.9897 126.821 78.803C126.919 78.6163 126.968 78.4017 126.968 78.159C126.968 77.9163 126.917 77.7017 126.814 77.515C126.716 77.3237 126.578 77.1743 126.401 77.067C126.228 76.9597 126.028 76.906 125.799 76.906C125.575 76.906 125.374 76.962 125.197 77.074C125.024 77.1813 124.887 77.3307 124.784 77.522C124.686 77.7087 124.637 77.921 124.637 78.159C124.637 78.397 124.686 78.6117 124.784 78.803C124.887 78.9897 125.024 79.1367 125.197 79.244C125.374 79.3513 125.575 79.405 125.799 79.405ZM129.829 80.07C129.521 80.07 129.243 80.0163 128.996 79.909C128.748 79.8017 128.543 79.643 128.38 79.433L128.87 79.013C129.01 79.1763 129.161 79.2953 129.325 79.37C129.493 79.44 129.682 79.475 129.892 79.475C129.976 79.475 130.053 79.4657 130.123 79.447C130.197 79.4237 130.26 79.391 130.312 79.349C130.368 79.307 130.41 79.258 130.438 79.202C130.466 79.1413 130.48 79.076 130.48 79.006C130.48 78.8847 130.435 78.7867 130.347 78.712C130.3 78.6793 130.225 78.6443 130.123 78.607C130.025 78.565 129.896 78.523 129.738 78.481C129.467 78.411 129.245 78.3317 129.073 78.243C128.9 78.1543 128.767 78.054 128.674 77.942C128.604 77.8533 128.552 77.7577 128.52 77.655C128.487 77.5477 128.471 77.431 128.471 77.305C128.471 77.0997 128.529 76.9177 128.646 76.759C128.762 76.6003 128.919 76.4767 129.115 76.388C129.315 76.2947 129.539 76.248 129.787 76.248C129.959 76.248 130.13 76.2713 130.298 76.318C130.47 76.3647 130.629 76.4323 130.774 76.521C130.918 76.6097 131.04 76.7147 131.138 76.836L130.725 77.291C130.636 77.2023 130.538 77.1253 130.431 77.06C130.328 76.99 130.223 76.9363 130.116 76.899C130.008 76.8617 129.91 76.843 129.822 76.843C129.724 76.843 129.635 76.8523 129.556 76.871C129.476 76.8897 129.409 76.9177 129.353 76.955C129.301 76.9923 129.262 77.039 129.234 77.095C129.206 77.151 129.192 77.214 129.192 77.284C129.196 77.3447 129.21 77.403 129.234 77.459C129.262 77.5103 129.299 77.5547 129.346 77.592C129.397 77.6293 129.474 77.669 129.577 77.711C129.679 77.753 129.81 77.7927 129.969 77.83C130.202 77.8907 130.393 77.9583 130.543 78.033C130.697 78.103 130.818 78.1847 130.907 78.278C131 78.3667 131.065 78.4693 131.103 78.586C131.14 78.7027 131.159 78.8333 131.159 78.978C131.159 79.188 131.098 79.377 130.977 79.545C130.86 79.7083 130.701 79.8367 130.501 79.93C130.3 80.0233 130.076 80.07 129.829 80.07ZM132.247 80.07C132.093 80.07 131.974 80.0257 131.89 79.937C131.806 79.8437 131.764 79.713 131.764 79.545C131.764 79.391 131.809 79.265 131.897 79.167C131.986 79.069 132.103 79.02 132.247 79.02C132.401 79.02 132.52 79.0667 132.604 79.16C132.688 79.2487 132.73 79.377 132.73 79.545C132.73 79.699 132.686 79.825 132.597 79.923C132.509 80.021 132.392 80.07 132.247 80.07ZM132.247 77.305C132.093 77.305 131.974 77.2607 131.89 77.172C131.806 77.0787 131.764 76.948 131.764 76.78C131.764 76.626 131.809 76.5 131.897 76.402C131.986 76.304 132.103 76.255 132.247 76.255C132.401 76.255 132.52 76.3017 132.604 76.395C132.688 76.4837 132.73 76.612 132.73 76.78C132.73 76.934 132.686 77.06 132.597 77.158C132.509 77.256 132.392 77.305 132.247 77.305ZM135.802 80.077C135.648 80.077 135.529 80.0327 135.445 79.944C135.361 79.8507 135.319 79.72 135.319 79.552C135.319 79.398 135.363 79.272 135.452 79.174C135.541 79.076 135.657 79.027 135.802 79.027C135.956 79.027 136.075 79.0737 136.159 79.167C136.243 79.2557 136.285 79.384 136.285 79.552C136.285 79.706 136.241 79.832 136.152 79.93C136.063 80.028 135.947 80.077 135.802 80.077ZM137.395 80.077C137.241 80.077 137.122 80.0327 137.038 79.944C136.954 79.8507 136.912 79.72 136.912 79.552C136.912 79.398 136.956 79.272 137.045 79.174C137.133 79.076 137.25 79.027 137.395 79.027C137.549 79.027 137.668 79.0737 137.752 79.167C137.836 79.2557 137.878 79.384 137.878 79.552C137.878 79.706 137.833 79.832 137.745 79.93C137.656 80.028 137.539 80.077 137.395 80.077ZM138.987 80.077C138.833 80.077 138.714 80.0327 138.63 79.944C138.546 79.8507 138.504 79.72 138.504 79.552C138.504 79.398 138.549 79.272 138.637 79.174C138.726 79.076 138.843 79.027 138.987 79.027C139.141 79.027 139.26 79.0737 139.344 79.167C139.428 79.2557 139.47 79.384 139.47 79.552C139.47 79.706 139.426 79.832 139.337 79.93C139.249 80.028 139.132 80.077 138.987 80.077ZM116.686 89V84.1H118.772C119.052 84.1 119.309 84.17 119.542 84.31C119.78 84.4453 119.969 84.632 120.109 84.87C120.249 85.1033 120.319 85.367 120.319 85.661C120.319 85.927 120.249 86.1743 120.109 86.403C119.969 86.6317 119.782 86.816 119.549 86.956C119.316 87.0913 119.057 87.159 118.772 87.159H117.442V89H116.686ZM119.598 89L118.352 86.788L119.129 86.613L120.515 89.007L119.598 89ZM117.442 86.431H118.842C118.977 86.431 119.099 86.3983 119.206 86.333C119.313 86.263 119.397 86.1697 119.458 86.053C119.519 85.9317 119.549 85.7987 119.549 85.654C119.549 85.4907 119.509 85.3483 119.43 85.227C119.355 85.101 119.248 85.003 119.108 84.933C118.973 84.863 118.819 84.828 118.646 84.828H117.442V86.431ZM122.949 89.07C122.571 89.07 122.235 88.9907 121.941 88.832C121.652 88.6687 121.423 88.447 121.255 88.167C121.092 87.887 121.01 87.565 121.01 87.201C121.01 86.9117 121.057 86.648 121.15 86.41C121.244 86.172 121.372 85.9667 121.535 85.794C121.703 85.6167 121.902 85.4813 122.13 85.388C122.364 85.29 122.616 85.241 122.886 85.241C123.124 85.241 123.346 85.2877 123.551 85.381C123.757 85.4697 123.934 85.5933 124.083 85.752C124.237 85.9107 124.354 86.0997 124.433 86.319C124.517 86.5337 124.557 86.7693 124.552 87.026L124.545 87.334H121.542L121.381 86.76H123.922L123.817 86.879V86.711C123.803 86.557 123.752 86.4193 123.663 86.298C123.575 86.1767 123.463 86.081 123.327 86.011C123.192 85.941 123.045 85.906 122.886 85.906C122.634 85.906 122.422 85.955 122.249 86.053C122.077 86.1463 121.946 86.2863 121.857 86.473C121.769 86.655 121.724 86.8813 121.724 87.152C121.724 87.4087 121.778 87.6327 121.885 87.824C121.993 88.0107 122.144 88.1553 122.34 88.258C122.536 88.3607 122.763 88.412 123.019 88.412C123.201 88.412 123.369 88.3817 123.523 88.321C123.682 88.2603 123.852 88.1507 124.034 87.992L124.398 88.503C124.286 88.615 124.149 88.713 123.985 88.797C123.827 88.881 123.656 88.9487 123.474 89C123.297 89.0467 123.122 89.07 122.949 89.07ZM126.561 89.07C126.253 89.07 125.975 89.0163 125.728 88.909C125.481 88.8017 125.275 88.643 125.112 88.433L125.602 88.013C125.742 88.1763 125.894 88.2953 126.057 88.37C126.225 88.44 126.414 88.475 126.624 88.475C126.708 88.475 126.785 88.4657 126.855 88.447C126.93 88.4237 126.993 88.391 127.044 88.349C127.1 88.307 127.142 88.258 127.17 88.202C127.198 88.1413 127.212 88.076 127.212 88.006C127.212 87.8847 127.168 87.7867 127.079 87.712C127.032 87.6793 126.958 87.6443 126.855 87.607C126.757 87.565 126.629 87.523 126.47 87.481C126.199 87.411 125.978 87.3317 125.805 87.243C125.632 87.1543 125.499 87.054 125.406 86.942C125.336 86.8533 125.285 86.7577 125.252 86.655C125.219 86.5477 125.203 86.431 125.203 86.305C125.203 86.0997 125.261 85.9177 125.378 85.759C125.495 85.6003 125.651 85.4767 125.847 85.388C126.048 85.2947 126.272 85.248 126.519 85.248C126.692 85.248 126.862 85.2713 127.03 85.318C127.203 85.3647 127.361 85.4323 127.506 85.521C127.651 85.6097 127.772 85.7147 127.87 85.836L127.457 86.291C127.368 86.2023 127.27 86.1253 127.163 86.06C127.06 85.99 126.955 85.9363 126.848 85.899C126.741 85.8617 126.643 85.843 126.554 85.843C126.456 85.843 126.367 85.8523 126.288 85.871C126.209 85.8897 126.141 85.9177 126.085 85.955C126.034 85.9923 125.994 86.039 125.966 86.095C125.938 86.151 125.924 86.214 125.924 86.284C125.929 86.3447 125.943 86.403 125.966 86.459C125.994 86.5103 126.031 86.5547 126.078 86.592C126.129 86.6293 126.206 86.669 126.309 86.711C126.412 86.753 126.542 86.7927 126.701 86.83C126.934 86.8907 127.126 86.9583 127.275 87.033C127.429 87.103 127.55 87.1847 127.639 87.278C127.732 87.3667 127.798 87.4693 127.835 87.586C127.872 87.7027 127.891 87.8333 127.891 87.978C127.891 88.188 127.83 88.377 127.709 88.545C127.592 88.7083 127.434 88.8367 127.233 88.93C127.032 89.0233 126.808 89.07 126.561 89.07ZM129.974 89.07C129.712 89.07 129.484 89.0093 129.288 88.888C129.096 88.7667 128.947 88.5963 128.84 88.377C128.737 88.1577 128.686 87.8963 128.686 87.593V85.325H129.407V87.397C129.407 87.719 129.481 87.9733 129.631 88.16C129.785 88.3467 129.997 88.44 130.268 88.44C130.403 88.44 130.527 88.419 130.639 88.377C130.751 88.3303 130.846 88.2673 130.926 88.188C131.01 88.1087 131.075 88.013 131.122 87.901C131.168 87.789 131.192 87.6677 131.192 87.537V85.325H131.913V89H131.192V88.23L131.318 88.146C131.262 88.3187 131.166 88.475 131.031 88.615C130.9 88.755 130.744 88.867 130.562 88.951C130.38 89.0303 130.184 89.07 129.974 89.07ZM132.938 89V83.82H133.659V89H132.938ZM135.115 89V84.387H135.836V89H135.115ZM134.352 86.025V85.325H136.69V86.025H134.352ZM137.641 89.07C137.487 89.07 137.368 89.0257 137.284 88.937C137.2 88.8437 137.158 88.713 137.158 88.545C137.158 88.391 137.202 88.265 137.291 88.167C137.379 88.069 137.496 88.02 137.641 88.02C137.795 88.02 137.914 88.0667 137.998 88.16C138.082 88.2487 138.124 88.377 138.124 88.545C138.124 88.699 138.079 88.825 137.991 88.923C137.902 89.021 137.785 89.07 137.641 89.07ZM137.641 86.305C137.487 86.305 137.368 86.2607 137.284 86.172C137.2 86.0787 137.158 85.948 137.158 85.78C137.158 85.626 137.202 85.5 137.291 85.402C137.379 85.304 137.496 85.255 137.641 85.255C137.795 85.255 137.914 85.3017 137.998 85.395C138.082 85.4837 138.124 85.612 138.124 85.78C138.124 85.934 138.079 86.06 137.991 86.158C137.902 86.256 137.785 86.305 137.641 86.305ZM141.195 89.077C141.041 89.077 140.922 89.0327 140.838 88.944C140.754 88.8507 140.712 88.72 140.712 88.552C140.712 88.398 140.757 88.272 140.845 88.174C140.934 88.076 141.051 88.027 141.195 88.027C141.349 88.027 141.468 88.0737 141.552 88.167C141.636 88.2557 141.678 88.384 141.678 88.552C141.678 88.706 141.634 88.832 141.545 88.93C141.457 89.028 141.34 89.077 141.195 89.077ZM142.788 89.077C142.634 89.077 142.515 89.0327 142.431 88.944C142.347 88.8507 142.305 88.72 142.305 88.552C142.305 88.398 142.35 88.272 142.438 88.174C142.527 88.076 142.644 88.027 142.788 88.027C142.942 88.027 143.061 88.0737 143.145 88.167C143.229 88.2557 143.271 88.384 143.271 88.552C143.271 88.706 143.227 88.832 143.138 88.93C143.05 89.028 142.933 89.077 142.788 89.077ZM144.381 89.077C144.227 89.077 144.108 89.0327 144.024 88.944C143.94 88.8507 143.898 88.72 143.898 88.552C143.898 88.398 143.942 88.272 144.031 88.174C144.12 88.076 144.236 88.027 144.381 88.027C144.535 88.027 144.654 88.0737 144.738 88.167C144.822 88.2557 144.864 88.384 144.864 88.552C144.864 88.706 144.82 88.832 144.731 88.93C144.642 89.028 144.526 89.077 144.381 89.077Z" fill="black" fill-opacity="0.5"/>
</svg>
